G04*
G04 #@! TF.GenerationSoftware,Altium Limited,Altium Designer,19.0.10 (269)*
G04*
G04 Layer_Physical_Order=2*
G04 Layer_Color=32768*
%FSLAX25Y25*%
%MOIN*%
G70*
G01*
G75*
%ADD10C,0.01000*%
%ADD46C,0.04000*%
%ADD47C,0.07543*%
%ADD48C,0.05600*%
%ADD49C,0.04600*%
D10*
X174695Y195D02*
Y50529D01*
X174500Y0D02*
X174695Y195D01*
X172500Y53000D02*
X174500Y51000D01*
X139674Y53000D02*
X172500D01*
X130174Y43500D02*
X139674Y53000D01*
X57000Y43500D02*
X130174D01*
X41500Y59000D02*
X57000Y43500D01*
X41500Y59000D02*
Y103000D01*
X34500Y110000D02*
X41500Y103000D01*
X0Y110000D02*
X34500D01*
D46*
X0Y0D02*
X213500D01*
X213500Y173500D02*
X213500Y0D01*
X0Y173500D02*
X213500D01*
X0Y0D02*
Y173500D01*
D47*
X147500Y26000D02*
D03*
X137500D02*
D03*
X127500D02*
D03*
X166000Y99500D02*
D03*
X156000D02*
D03*
X58500Y66500D02*
D03*
X68500D02*
D03*
X156000Y73000D02*
D03*
X166000D02*
D03*
X156000Y86187D02*
D03*
X166000D02*
D03*
X203000Y162000D02*
D03*
X193000D02*
D03*
X183000D02*
D03*
X173000D02*
D03*
X163000D02*
D03*
X153000D02*
D03*
X143000D02*
D03*
X133000D02*
D03*
X123000D02*
D03*
X113000D02*
D03*
X103000D02*
D03*
X93000D02*
D03*
X83000D02*
D03*
X73000D02*
D03*
X63000D02*
D03*
X53000D02*
D03*
X43000D02*
D03*
X33000D02*
D03*
X23000D02*
D03*
X13000D02*
D03*
X25000Y138000D02*
D03*
X15000D02*
D03*
X35000Y125500D02*
D03*
X25000D02*
D03*
X15000D02*
D03*
X58500Y80500D02*
D03*
X68500D02*
D03*
X156000Y39000D02*
D03*
D48*
X177500Y105662D02*
D03*
X138000Y54500D02*
D03*
X95000Y58500D02*
D03*
X75484Y34500D02*
D03*
X10000Y7891D02*
D03*
X10279Y48000D02*
D03*
X32721Y38000D02*
D03*
Y48000D02*
D03*
X10279Y88000D02*
D03*
Y68000D02*
D03*
X32721Y58000D02*
D03*
X10279Y38000D02*
D03*
X92000Y71500D02*
D03*
X141000Y59000D02*
D03*
Y64543D02*
D03*
X104500Y14500D02*
D03*
X182280Y7891D02*
D03*
Y27891D02*
D03*
X116500Y59500D02*
D03*
X209500Y109211D02*
D03*
X10279Y18000D02*
D03*
Y28000D02*
D03*
Y78000D02*
D03*
X119000Y75998D02*
D03*
D49*
X10279Y98000D02*
D03*
X127500Y8500D02*
D03*
X42500Y51269D02*
D03*
X123295Y45705D02*
D03*
X103500Y30546D02*
D03*
X97870Y17000D02*
D03*
X85500Y79000D02*
D03*
X95000Y28500D02*
D03*
X111500Y21500D02*
D03*
X75484Y50016D02*
D03*
X91032Y55000D02*
D03*
X100000Y10500D02*
D03*
X113500Y27000D02*
D03*
X97500Y26000D02*
D03*
X125000Y53500D02*
D03*
X69500Y53868D02*
D03*
X107904Y19100D02*
D03*
X127000Y63502D02*
D03*
X91046Y62500D02*
D03*
X68500Y80500D02*
D03*
X78500Y67500D02*
D03*
X147500Y26000D02*
D03*
X137500D02*
D03*
X127500D02*
D03*
X133000Y16500D02*
D03*
X186059Y98000D02*
D03*
X68500Y66500D02*
D03*
X166000Y73000D02*
D03*
X156000D02*
D03*
Y86187D02*
D03*
X166000D02*
D03*
X15000Y125500D02*
D03*
Y138000D02*
D03*
X25000D02*
D03*
X35000Y125500D02*
D03*
X178000Y122000D02*
D03*
X176000Y145500D02*
D03*
X192500Y126000D02*
D03*
X204300D02*
D03*
X195000Y109000D02*
D03*
X186279Y78000D02*
D03*
X166000Y99500D02*
D03*
X156000D02*
D03*
X71500Y114500D02*
D03*
X58500Y80500D02*
D03*
X25000Y125500D02*
D03*
Y138000D02*
D03*
X134000Y105000D02*
D03*
X100000Y105500D02*
D03*
X82850Y105324D02*
D03*
X130500Y105500D02*
D03*
X127500D02*
D03*
X124500D02*
D03*
X120000D02*
D03*
X116858D02*
D03*
X114000D02*
D03*
X110500D02*
D03*
X106500D02*
D03*
X103079D02*
D03*
X97000D02*
D03*
X92350Y105324D02*
D03*
X89554D02*
D03*
X86350D02*
D03*
X152500Y147250D02*
D03*
Y149970D02*
D03*
X161500D02*
D03*
Y152500D02*
D03*
X122000D02*
D03*
Y149970D02*
D03*
X112953Y147250D02*
D03*
Y149970D02*
D03*
X94000Y147500D02*
D03*
X103000Y150000D02*
D03*
Y152500D02*
D03*
X94000Y150000D02*
D03*
X54025D02*
D03*
Y147500D02*
D03*
X63000Y150000D02*
D03*
Y152500D02*
D03*
M02*
