M48
;Layer_Color=9474304
;FILE_FORMAT=2:5
INCH,TZ
;TYPE=PLATED
T1F00S00C0.00600
T2F00S00C0.01600
T3F00S00C0.03543
%
T01
X186279Y78000
X186059Y98000
X195000Y109000
X177500Y113500
X166000Y99500
X156000
Y86187
X166000
Y73000
X156000
X165500Y46500
X164000Y25244
X147500Y26000
X137500
X127500
X113500Y27000
X111500Y21500
X107904Y19100
X97870Y17000
X100000Y10500
X97500Y26000
X95000Y28500
X103500Y30546
X123295Y45705
X125000Y53500
X127000Y63502
X142831Y49000
X138500Y40500
Y37000
X133000Y16500
X127500Y8500
X91032Y55000
X91046Y62500
X78500Y67500
X78000Y73500
X85500Y79000
X81500Y91000
X82850Y105324
X86350
X89554
X92350
X97000Y105500
X100000
X103079
X106500
X110500
X114000
X116858
X120000
X124500
X127500
X130500
X134000Y105000
X71500Y114500
X63031Y117500
X58500Y80500
X68500
Y66500
X69500Y53868
X75484Y50016
X42500Y51269
X10279Y98000
X15000Y125500
Y138000
X25000
Y125500
X35000
X54025Y147500
Y150000
X63000
Y152500
X94000Y150000
Y147500
X103000Y150000
Y152500
X112953Y149970
Y147250
X122000Y149970
Y152500
X152500Y149970
Y147250
X161500Y149970
Y152500
X176000Y145500
X178000Y122000
X192500Y126000
X204300
X197244Y137000
T02
X182280Y7891
Y27891
X184500Y47891
X180000
Y57891
X184500Y58000
X209500Y109211
X177500Y105662
X165500Y59500
X141000Y59000
Y64543
X138000Y54500
X116500Y59500
X107000Y59000
Y56882
Y54500
X105500Y52826
X107000Y61637
Y63754
X95000Y58500
X92000Y71500
X119000Y75998
X80500Y46500
X75484Y34500
X91798Y35000
X104500Y14500
X32721Y38000
Y48000
Y58000
X34211Y68124
X31000
Y78000
X34500
Y88000
X31000
Y98000
X34500
X10279Y88000
Y78000
Y68000
Y48000
Y38000
Y28000
Y18000
X10000Y7891
X25500Y153500
X63000Y144000
X103000
X121500Y143500
X162000Y144000
T03
X58500Y66500
X68500
Y80500
X58500
X156000Y86187
X166000
Y73000
X156000
Y99500
X166000
X156000Y39000
X146000
X147500Y26000
X137500
X127500
X15000Y125500
Y138000
X13000Y162000
X23000
X33000
X43000
X53000
X63000
X73000
X83000
X93000
X103000
X113000
X123000
X133000
X143000
X153000
X163000
X173000
X25000Y138000
Y125500
X35000
X183000Y162000
X193000
X203000
M30
