G04*
G04 #@! TF.GenerationSoftware,Altium Limited,Altium Designer,19.0.10 (269)*
G04*
G04 Layer_Color=16711935*
%FSLAX25Y25*%
%MOIN*%
G70*
G01*
G75*
%ADD28R,0.04300X0.04300*%
%ADD29R,0.04300X0.04300*%
%ADD34R,0.03162X0.02769*%
%ADD35R,0.02769X0.03162*%
%ADD37C,0.06706*%
%ADD38R,0.06706X0.06706*%
%ADD39C,0.03600*%
%ADD40C,0.02400*%
%ADD51R,0.03350X0.01400*%
%ADD54R,0.08280X0.04816*%
%ADD55R,0.11036X0.05131*%
%ADD56R,0.02375X0.04737*%
D28*
X78500Y100250D02*
D03*
Y93750D02*
D03*
X42500Y119494D02*
D03*
Y112994D02*
D03*
X123803Y52752D02*
D03*
Y59252D02*
D03*
X100032Y56252D02*
D03*
Y62752D02*
D03*
D29*
X204750Y109000D02*
D03*
X198250D02*
D03*
X191250D02*
D03*
X184750D02*
D03*
X184782Y144000D02*
D03*
X178281D02*
D03*
D34*
X95000Y56002D02*
D03*
X91063D02*
D03*
X113532Y63502D02*
D03*
X109595D02*
D03*
X123000Y73032D02*
D03*
X119063D02*
D03*
X123000Y69500D02*
D03*
X119063D02*
D03*
X123000Y63500D02*
D03*
X119063D02*
D03*
X109595Y60002D02*
D03*
X113532D02*
D03*
X123000Y66500D02*
D03*
X119063D02*
D03*
X66969Y113701D02*
D03*
X63031D02*
D03*
X113532Y66500D02*
D03*
X109594D02*
D03*
X113532Y53752D02*
D03*
X109594D02*
D03*
X113532Y57002D02*
D03*
X109595D02*
D03*
X104437Y51500D02*
D03*
X100500D02*
D03*
X95150Y61470D02*
D03*
X91213D02*
D03*
D35*
X74000Y46394D02*
D03*
Y42457D02*
D03*
X118500Y57805D02*
D03*
Y53868D02*
D03*
D37*
X147500Y26000D02*
D03*
X137500D02*
D03*
X166000Y99500D02*
D03*
X58500Y66500D02*
D03*
X156000Y73000D02*
D03*
Y86187D02*
D03*
X193000Y162000D02*
D03*
X183000D02*
D03*
X173000D02*
D03*
X163000D02*
D03*
X153000D02*
D03*
X143000D02*
D03*
X133000D02*
D03*
X123000D02*
D03*
X113000D02*
D03*
X103000D02*
D03*
X93000D02*
D03*
X83000D02*
D03*
X73000D02*
D03*
X63000D02*
D03*
X53000D02*
D03*
X43000D02*
D03*
X33000D02*
D03*
X23000D02*
D03*
X13000D02*
D03*
X25000Y138000D02*
D03*
X35000Y125500D02*
D03*
X25000D02*
D03*
X58500Y80500D02*
D03*
X156000Y39000D02*
D03*
D38*
X127500Y26000D02*
D03*
X156000Y99500D02*
D03*
X68500Y66500D02*
D03*
X166000Y73000D02*
D03*
Y86187D02*
D03*
X203000Y162000D02*
D03*
X15000Y138000D02*
D03*
Y125500D02*
D03*
X68500Y80500D02*
D03*
X146000Y39000D02*
D03*
D39*
X177500Y105662D02*
D03*
X138000Y54500D02*
D03*
X95000Y58500D02*
D03*
X75484Y34500D02*
D03*
X91798Y35000D02*
D03*
X31000Y78000D02*
D03*
X34211Y68124D02*
D03*
X31000D02*
D03*
X10000Y7891D02*
D03*
X10279Y48000D02*
D03*
X34500Y78000D02*
D03*
Y88000D02*
D03*
Y98000D02*
D03*
X32721Y38000D02*
D03*
Y48000D02*
D03*
X31000Y88000D02*
D03*
X10279D02*
D03*
X31000Y98000D02*
D03*
X10279Y68000D02*
D03*
X32721Y58000D02*
D03*
X10279Y38000D02*
D03*
X92000Y71500D02*
D03*
X141000Y59000D02*
D03*
Y64543D02*
D03*
X80500Y46500D02*
D03*
X104500Y14500D02*
D03*
X165500Y59500D02*
D03*
X180000Y47891D02*
D03*
X184500D02*
D03*
X182280Y7891D02*
D03*
Y27891D02*
D03*
X180000Y57891D02*
D03*
X184500Y58000D02*
D03*
X116500Y59500D02*
D03*
X63000Y144000D02*
D03*
X103000D02*
D03*
X121500Y143500D02*
D03*
X162000Y144000D02*
D03*
X209500Y109211D02*
D03*
X10279Y18000D02*
D03*
Y28000D02*
D03*
Y78000D02*
D03*
X25500Y153500D02*
D03*
X105500Y52826D02*
D03*
X107000Y63754D02*
D03*
Y61637D02*
D03*
Y56882D02*
D03*
Y59000D02*
D03*
Y54500D02*
D03*
X119000Y75998D02*
D03*
D40*
X10279Y98000D02*
D03*
X127500Y8500D02*
D03*
X42500Y51269D02*
D03*
X123295Y45705D02*
D03*
X103500Y30546D02*
D03*
X97870Y17000D02*
D03*
X85500Y79000D02*
D03*
X95000Y28500D02*
D03*
X111500Y21500D02*
D03*
X78000Y73500D02*
D03*
X75484Y50016D02*
D03*
X91032Y55000D02*
D03*
X142831Y49000D02*
D03*
X100000Y10500D02*
D03*
X113500Y27000D02*
D03*
X97500Y26000D02*
D03*
X125000Y53500D02*
D03*
X69500Y53868D02*
D03*
X107904Y19100D02*
D03*
X127000Y63502D02*
D03*
X91046Y62500D02*
D03*
X68500Y80500D02*
D03*
X78500Y67500D02*
D03*
X147500Y26000D02*
D03*
X137500D02*
D03*
X127500D02*
D03*
X133000Y16500D02*
D03*
X165500Y46500D02*
D03*
X186059Y98000D02*
D03*
X68500Y66500D02*
D03*
X164000Y25244D02*
D03*
X138500Y37000D02*
D03*
Y40500D02*
D03*
X166000Y73000D02*
D03*
X156000D02*
D03*
Y86187D02*
D03*
X166000D02*
D03*
X15000Y125500D02*
D03*
Y138000D02*
D03*
X25000D02*
D03*
X35000Y125500D02*
D03*
X177500Y113500D02*
D03*
X178000Y122000D02*
D03*
X197244Y137000D02*
D03*
X176000Y145500D02*
D03*
X192500Y126000D02*
D03*
X204300D02*
D03*
X195000Y109000D02*
D03*
X186279Y78000D02*
D03*
X166000Y99500D02*
D03*
X156000D02*
D03*
X81500Y91000D02*
D03*
X71500Y114500D02*
D03*
X58500Y80500D02*
D03*
X25000Y125500D02*
D03*
Y138000D02*
D03*
X63031Y117500D02*
D03*
X134000Y105000D02*
D03*
X100000Y105500D02*
D03*
X82850Y105324D02*
D03*
X130500Y105500D02*
D03*
X127500D02*
D03*
X124500D02*
D03*
X120000D02*
D03*
X116858D02*
D03*
X114000D02*
D03*
X110500D02*
D03*
X106500D02*
D03*
X103079D02*
D03*
X97000D02*
D03*
X92350Y105324D02*
D03*
X89554D02*
D03*
X86350D02*
D03*
X152500Y147250D02*
D03*
Y149970D02*
D03*
X161500D02*
D03*
Y152500D02*
D03*
X122000D02*
D03*
Y149970D02*
D03*
X112953Y147250D02*
D03*
Y149970D02*
D03*
X94000Y147500D02*
D03*
X103000Y150000D02*
D03*
Y152500D02*
D03*
X94000Y150000D02*
D03*
X54025D02*
D03*
Y147500D02*
D03*
X63000Y150000D02*
D03*
Y152500D02*
D03*
D51*
X161475Y152529D02*
D03*
Y149970D02*
D03*
Y147411D02*
D03*
X152525D02*
D03*
Y149970D02*
D03*
Y152529D02*
D03*
X121975D02*
D03*
Y149970D02*
D03*
Y147411D02*
D03*
X113025D02*
D03*
Y149970D02*
D03*
Y152529D02*
D03*
X102950Y152559D02*
D03*
Y150000D02*
D03*
Y147441D02*
D03*
X94000D02*
D03*
Y150000D02*
D03*
Y152559D02*
D03*
X63000D02*
D03*
Y150000D02*
D03*
Y147441D02*
D03*
X54050D02*
D03*
Y150000D02*
D03*
Y152559D02*
D03*
D54*
X32721Y88000D02*
D03*
X10279D02*
D03*
X32721Y98000D02*
D03*
X10279D02*
D03*
Y78000D02*
D03*
X32721D02*
D03*
X10279Y68000D02*
D03*
X32721D02*
D03*
X10279Y58000D02*
D03*
X32721D02*
D03*
X10279Y48000D02*
D03*
X32721D02*
D03*
X10279Y38000D02*
D03*
X32721D02*
D03*
X10279Y28000D02*
D03*
X32721D02*
D03*
X10279Y18000D02*
D03*
X32721D02*
D03*
X10279Y8000D02*
D03*
X32721D02*
D03*
X204720Y87891D02*
D03*
X182280D02*
D03*
X204720Y97891D02*
D03*
X182280D02*
D03*
Y77891D02*
D03*
X204720D02*
D03*
X182280Y67891D02*
D03*
X204720D02*
D03*
X182280Y57891D02*
D03*
X204720D02*
D03*
X182280Y47891D02*
D03*
X204720D02*
D03*
X182280Y37891D02*
D03*
X204720D02*
D03*
X182280Y27891D02*
D03*
X204720D02*
D03*
X182280Y17891D02*
D03*
X204720D02*
D03*
X182280Y7891D02*
D03*
X204720D02*
D03*
D55*
X65500Y46815D02*
D03*
Y36185D02*
D03*
D56*
X124201Y99176D02*
D03*
X127350D02*
D03*
X130500D02*
D03*
X133650D02*
D03*
X124201Y105475D02*
D03*
X127350D02*
D03*
X130500D02*
D03*
X133650D02*
D03*
X110534Y99176D02*
D03*
X113684D02*
D03*
X116833D02*
D03*
X119983D02*
D03*
X110534Y105475D02*
D03*
X113684D02*
D03*
X116833D02*
D03*
X119983D02*
D03*
X83051Y99000D02*
D03*
X86201D02*
D03*
X89350D02*
D03*
X92500D02*
D03*
X83051Y105299D02*
D03*
X86201D02*
D03*
X89350D02*
D03*
X92500D02*
D03*
X96867Y99176D02*
D03*
X100017D02*
D03*
X103167D02*
D03*
X106316D02*
D03*
X96867Y105475D02*
D03*
X100017D02*
D03*
X103167D02*
D03*
X106316D02*
D03*
M02*
