G04*
G04 #@! TF.GenerationSoftware,Altium Limited,Altium Designer,19.0.10 (269)*
G04*
G04 Layer_Color=32768*
%FSLAX25Y25*%
%MOIN*%
G70*
G01*
G75*
%ADD10C,0.01000*%
%ADD13C,0.00600*%
%ADD59C,0.00394*%
%ADD60C,0.00197*%
G36*
X102275Y154259D02*
X105625D01*
Y145741D01*
X102275D01*
Y144750D01*
X94675D01*
Y145741D01*
X91325D01*
Y154259D01*
X94675D01*
Y155250D01*
X102275D01*
Y154259D01*
D02*
G37*
G36*
X62325D02*
X65675D01*
Y145741D01*
X62325D01*
Y144750D01*
X54725D01*
Y145741D01*
X51375D01*
Y154259D01*
X54725D01*
Y155250D01*
X62325D01*
Y154259D01*
D02*
G37*
G36*
X160800Y154229D02*
X164150D01*
Y145711D01*
X160800D01*
Y144720D01*
X153200D01*
Y145711D01*
X149850D01*
Y154229D01*
X153200D01*
Y155220D01*
X160800D01*
Y154229D01*
D02*
G37*
G36*
X121300D02*
X124650D01*
Y145711D01*
X121300D01*
Y144720D01*
X113700D01*
Y145711D01*
X110350D01*
Y154229D01*
X113700D01*
Y155220D01*
X121300D01*
Y154229D01*
D02*
G37*
G36*
X124845Y81602D02*
X129632D01*
Y76815D01*
X134932D01*
Y44188D01*
X129632D01*
Y39402D01*
X124845D01*
Y34102D01*
X92218D01*
Y39402D01*
X87432D01*
Y44188D01*
X82132D01*
Y76815D01*
X87432D01*
Y81602D01*
X92218D01*
Y86902D01*
X124845D01*
Y81602D01*
D02*
G37*
D10*
X186900Y114200D02*
Y132800D01*
X201100Y114200D02*
Y132800D01*
X68100Y93200D02*
Y111800D01*
X53900Y93200D02*
Y111800D01*
D13*
X164150Y145711D02*
Y154229D01*
X160800D02*
X164150D01*
X160800D02*
Y155220D01*
X153200D02*
X160800D01*
X153200Y154229D02*
Y155220D01*
X149850Y154229D02*
X153200D01*
X149850Y145711D02*
Y154229D01*
Y145711D02*
X153200D01*
Y144720D02*
Y145711D01*
Y144720D02*
X160800D01*
Y145711D01*
X164150D01*
X124650D02*
Y154229D01*
X121300D02*
X124650D01*
X121300D02*
Y155220D01*
X113700D02*
X121300D01*
X113700Y154229D02*
Y155220D01*
X110350Y154229D02*
X113700D01*
X110350Y145711D02*
Y154229D01*
Y145711D02*
X113700D01*
Y144720D02*
Y145711D01*
Y144720D02*
X121300D01*
Y145711D01*
X124650D01*
X105625Y145741D02*
Y154259D01*
X102275D02*
X105625D01*
X102275D02*
Y155250D01*
X94675D02*
X102275D01*
X94675Y154259D02*
Y155250D01*
X91325Y154259D02*
X94675D01*
X91325Y145741D02*
Y154259D01*
Y145741D02*
X94675D01*
Y144750D02*
Y145741D01*
Y144750D02*
X102275D01*
Y145741D01*
X105625D01*
X65675D02*
Y154259D01*
X62325D02*
X65675D01*
X62325D02*
Y155250D01*
X54725D02*
X62325D01*
X54725Y154259D02*
Y155250D01*
X51375Y154259D02*
X54725D01*
X51375Y145741D02*
Y154259D01*
Y145741D02*
X54725D01*
Y144750D02*
Y145741D01*
Y144750D02*
X62325D01*
Y145741D01*
X65675D01*
X87432Y81602D02*
X92218D01*
Y86902D01*
X124845D01*
Y81602D02*
Y86902D01*
Y81602D02*
X129632D01*
X87432Y39402D02*
X92218D01*
Y34102D02*
Y39402D01*
Y34102D02*
X124845D01*
Y39402D01*
X129632D01*
Y76815D02*
Y81602D01*
Y76815D02*
X134932D01*
Y44188D02*
Y76815D01*
X129632Y44188D02*
X134932D01*
X129632Y39402D02*
Y44188D01*
X87432Y76815D02*
Y81602D01*
X82132Y76815D02*
X87432D01*
X82132Y44188D02*
Y76815D01*
Y44188D02*
X87432D01*
Y39402D02*
Y44188D01*
D59*
X114524Y12925D02*
Y16075D01*
X108224Y12925D02*
Y16075D01*
X111374Y13319D02*
Y15681D01*
X110181Y14500D02*
X112543D01*
X108224Y16075D02*
X114524D01*
X108224Y12925D02*
X114524D01*
X72622Y40882D02*
X75378D01*
X72622Y47969D02*
X75378D01*
Y40882D02*
Y47969D01*
X72622Y40882D02*
Y47969D01*
X74000Y43244D02*
Y45606D01*
X72819Y44425D02*
X75181D01*
X63532Y41500D02*
X67469D01*
X65500Y39531D02*
Y43468D01*
X59988Y33626D02*
Y49374D01*
X71012Y33626D02*
Y49374D01*
X59988D02*
X71012D01*
X59988Y33626D02*
X71012D01*
X203500Y135819D02*
Y138181D01*
X202319Y137000D02*
X204681D01*
X199957Y135622D02*
X207043D01*
X199957Y138378D02*
X207043D01*
Y135622D02*
Y138378D01*
X199957Y135622D02*
Y138378D01*
X175319Y118500D02*
X177681D01*
X176500Y117319D02*
Y119681D01*
X177878Y114957D02*
Y122043D01*
X175122Y114957D02*
Y122043D01*
X177878D01*
X175122Y114957D02*
X177878D01*
X190319Y152031D02*
X192681D01*
X191500Y150850D02*
Y153213D01*
X190122Y148488D02*
Y155575D01*
X192878Y148488D02*
Y155575D01*
X190122Y148488D02*
X192878D01*
X190122Y155575D02*
X192878D01*
X181500Y146069D02*
Y148431D01*
X180319Y147250D02*
X182681D01*
X177957Y148628D02*
X185043D01*
X177957Y145872D02*
X185043D01*
X177957D02*
Y148628D01*
X185043Y145872D02*
Y148628D01*
X57000Y87819D02*
Y90181D01*
X55819Y89000D02*
X58181D01*
X53457Y87622D02*
X60543D01*
X53457Y90378D02*
X60543D01*
Y87622D02*
Y90378D01*
X53457Y87622D02*
Y90378D01*
X117319Y55836D02*
X119681D01*
X118500Y54655D02*
Y57017D01*
X117122Y52293D02*
Y59380D01*
X119878Y52293D02*
Y59380D01*
X117122D02*
X119878D01*
X117122Y52293D02*
X119878D01*
X96575Y54624D02*
Y57380D01*
X89488Y54624D02*
Y57380D01*
X96575D01*
X89488Y54624D02*
X96575D01*
X91850Y56002D02*
X94213D01*
X93032Y54821D02*
Y57183D01*
X20000Y145819D02*
Y148181D01*
X18819Y147000D02*
X21181D01*
X16457Y148378D02*
X23543D01*
X16457Y145622D02*
X23543D01*
X16457D02*
Y148378D01*
X23543Y145622D02*
Y148378D01*
X115107Y62124D02*
Y64880D01*
X108020Y62124D02*
Y64880D01*
X115107D01*
X108020Y62124D02*
X115107D01*
X110382Y63502D02*
X112745D01*
X111563Y62321D02*
Y64683D01*
X124575Y71654D02*
Y74409D01*
X117488Y71654D02*
Y74409D01*
X124575D01*
X117488Y71654D02*
X124575D01*
X119850Y73032D02*
X122213D01*
X121031Y71850D02*
Y74213D01*
X124575Y68122D02*
Y70878D01*
X117488Y68122D02*
Y70878D01*
X124575D01*
X117488Y68122D02*
X124575D01*
X119850Y69500D02*
X122213D01*
X121031Y68319D02*
Y70681D01*
X124575Y62122D02*
Y64878D01*
X117488Y62122D02*
Y64878D01*
X124575D01*
X117488Y62122D02*
X124575D01*
X119850Y63500D02*
X122213D01*
X121031Y62319D02*
Y64681D01*
X108020Y58624D02*
Y61380D01*
X115107Y58624D02*
Y61380D01*
X108020Y58624D02*
X115107D01*
X108020Y61380D02*
X115107D01*
X110382Y60002D02*
X112744D01*
X111563Y58820D02*
Y61183D01*
X124575Y65122D02*
Y67878D01*
X117488Y65122D02*
Y67878D01*
X124575D01*
X117488Y65122D02*
X124575D01*
X119850Y66500D02*
X122213D01*
X121031Y65319D02*
Y67681D01*
X68543Y112323D02*
Y115079D01*
X61457Y112323D02*
Y115079D01*
X68543D01*
X61457Y112323D02*
X68543D01*
X63819Y113701D02*
X66181D01*
X65000Y112520D02*
Y114882D01*
X115106Y65122D02*
Y67878D01*
X108020Y65122D02*
Y67878D01*
X115106D01*
X108020Y65122D02*
X115106D01*
X110382Y66500D02*
X112744D01*
X111563Y65319D02*
Y67681D01*
X115106Y52374D02*
Y55130D01*
X108020Y52374D02*
Y55130D01*
X115106D01*
X108020Y52374D02*
X115106D01*
X110382Y53752D02*
X112744D01*
X111563Y52571D02*
Y54933D01*
X115106Y55624D02*
Y58380D01*
X108020Y55624D02*
Y58380D01*
X115106D01*
X108020Y55624D02*
X115106D01*
X110382Y57002D02*
X112744D01*
X111563Y55821D02*
Y58183D01*
X106012Y50122D02*
Y52878D01*
X98925Y50122D02*
Y52878D01*
X106012D01*
X98925Y50122D02*
X106012D01*
X101287Y51500D02*
X103650D01*
X102469Y50319D02*
Y52681D01*
X96725Y60092D02*
Y62848D01*
X89638Y60092D02*
Y62848D01*
X96725D01*
X89638Y60092D02*
X96725D01*
X92000Y61470D02*
X94362D01*
X93181Y60289D02*
Y62651D01*
D60*
X22878Y53000D02*
G03*
X22878Y53000I-1378J0D01*
G01*
X194878Y52891D02*
G03*
X194878Y52891I-1378J0D01*
G01*
X21500Y51032D02*
Y54969D01*
X19532Y53000D02*
X23469D01*
X3850Y104083D02*
X38890D01*
X3850Y1917D02*
Y104083D01*
Y1917D02*
X38890D01*
Y104083D01*
X21370Y51032D02*
Y54969D01*
X19402Y53000D02*
X23339D01*
X175850Y103974D02*
X210890D01*
X175850Y1808D02*
Y103974D01*
Y1808D02*
X210890D01*
Y103974D01*
X193370Y50923D02*
Y54860D01*
X191402Y52891D02*
X195339D01*
X193500Y50923D02*
Y54860D01*
X191532Y52891D02*
X195468D01*
M02*
