G04*
G04 #@! TF.GenerationSoftware,Altium Limited,Altium Designer,19.0.10 (269)*
G04*
G04 Layer_Color=255*
%FSLAX25Y25*%
%MOIN*%
G70*
G01*
G75*
%ADD17R,0.03500X0.03500*%
%ADD18R,0.03500X0.03500*%
%ADD25R,0.02362X0.01968*%
%ADD26R,0.01968X0.02362*%
%ADD42C,0.05906*%
%ADD43R,0.05906X0.05906*%
%ADD50R,0.07480X0.04016*%
%ADD51R,0.03350X0.01400*%
%ADD52R,0.10236X0.04331*%
%ADD53R,0.01575X0.03937*%
D17*
X78500Y100250D02*
D03*
Y93750D02*
D03*
X42500Y119494D02*
D03*
Y112994D02*
D03*
X123803Y52752D02*
D03*
Y59252D02*
D03*
X100032Y56252D02*
D03*
Y62752D02*
D03*
D18*
X204750Y109000D02*
D03*
X198250D02*
D03*
X191250D02*
D03*
X184750D02*
D03*
X184782Y144000D02*
D03*
X178281D02*
D03*
D25*
X95000Y56002D02*
D03*
X91063D02*
D03*
X113532Y63502D02*
D03*
X109595D02*
D03*
X123000Y73032D02*
D03*
X119063D02*
D03*
X123000Y69500D02*
D03*
X119063D02*
D03*
X123000Y63500D02*
D03*
X119063D02*
D03*
X109595Y60002D02*
D03*
X113532D02*
D03*
X123000Y66500D02*
D03*
X119063D02*
D03*
X66969Y113701D02*
D03*
X63031D02*
D03*
X113532Y66500D02*
D03*
X109594D02*
D03*
X113532Y53752D02*
D03*
X109594D02*
D03*
X113532Y57002D02*
D03*
X109595D02*
D03*
X104437Y51500D02*
D03*
X100500D02*
D03*
X95150Y61470D02*
D03*
X91213D02*
D03*
D26*
X74000Y46394D02*
D03*
Y42457D02*
D03*
X118500Y57805D02*
D03*
Y53868D02*
D03*
D42*
X147500Y26000D02*
D03*
X137500D02*
D03*
X166000Y99500D02*
D03*
X58500Y66500D02*
D03*
X156000Y73000D02*
D03*
Y86187D02*
D03*
X193000Y162000D02*
D03*
X183000D02*
D03*
X173000D02*
D03*
X163000D02*
D03*
X153000D02*
D03*
X143000D02*
D03*
X133000D02*
D03*
X123000D02*
D03*
X113000D02*
D03*
X103000D02*
D03*
X93000D02*
D03*
X83000D02*
D03*
X73000D02*
D03*
X63000D02*
D03*
X53000D02*
D03*
X43000D02*
D03*
X33000D02*
D03*
X23000D02*
D03*
X13000D02*
D03*
X25000Y138000D02*
D03*
X35000Y125500D02*
D03*
X25000D02*
D03*
X58500Y80500D02*
D03*
X156000Y39000D02*
D03*
D43*
X127500Y26000D02*
D03*
X156000Y99500D02*
D03*
X68500Y66500D02*
D03*
X166000Y73000D02*
D03*
Y86187D02*
D03*
X203000Y162000D02*
D03*
X15000Y138000D02*
D03*
Y125500D02*
D03*
X68500Y80500D02*
D03*
X146000Y39000D02*
D03*
D50*
X32721Y88000D02*
D03*
X10279D02*
D03*
X32721Y98000D02*
D03*
X10279D02*
D03*
Y78000D02*
D03*
X32721D02*
D03*
X10279Y68000D02*
D03*
X32721D02*
D03*
X10279Y58000D02*
D03*
X32721D02*
D03*
X10279Y48000D02*
D03*
X32721D02*
D03*
X10279Y38000D02*
D03*
X32721D02*
D03*
X10279Y28000D02*
D03*
X32721D02*
D03*
X10279Y18000D02*
D03*
X32721D02*
D03*
X10279Y8000D02*
D03*
X32721D02*
D03*
X204720Y87891D02*
D03*
X182280D02*
D03*
X204720Y97891D02*
D03*
X182280D02*
D03*
Y77891D02*
D03*
X204720D02*
D03*
X182280Y67891D02*
D03*
X204720D02*
D03*
X182280Y57891D02*
D03*
X204720D02*
D03*
X182280Y47891D02*
D03*
X204720D02*
D03*
X182280Y37891D02*
D03*
X204720D02*
D03*
X182280Y27891D02*
D03*
X204720D02*
D03*
X182280Y17891D02*
D03*
X204720D02*
D03*
X182280Y7891D02*
D03*
X204720D02*
D03*
D51*
X161475Y152529D02*
D03*
Y149970D02*
D03*
Y147411D02*
D03*
X152525D02*
D03*
Y149970D02*
D03*
Y152529D02*
D03*
X121975D02*
D03*
Y149970D02*
D03*
Y147411D02*
D03*
X113025D02*
D03*
Y149970D02*
D03*
Y152529D02*
D03*
X102950Y152559D02*
D03*
Y150000D02*
D03*
Y147441D02*
D03*
X94000D02*
D03*
Y150000D02*
D03*
Y152559D02*
D03*
X63000D02*
D03*
Y150000D02*
D03*
Y147441D02*
D03*
X54050D02*
D03*
Y150000D02*
D03*
Y152559D02*
D03*
D52*
X65500Y46815D02*
D03*
Y36185D02*
D03*
D53*
X124201Y99176D02*
D03*
X127350D02*
D03*
X130500D02*
D03*
X133650D02*
D03*
X124201Y105475D02*
D03*
X127350D02*
D03*
X130500D02*
D03*
X133650D02*
D03*
X110534Y99176D02*
D03*
X113684D02*
D03*
X116833D02*
D03*
X119983D02*
D03*
X110534Y105475D02*
D03*
X113684D02*
D03*
X116833D02*
D03*
X119983D02*
D03*
X83051Y99000D02*
D03*
X86201D02*
D03*
X89350D02*
D03*
X92500D02*
D03*
X83051Y105299D02*
D03*
X86201D02*
D03*
X89350D02*
D03*
X92500D02*
D03*
X96867Y99176D02*
D03*
X100017D02*
D03*
X103167D02*
D03*
X106316D02*
D03*
X96867Y105475D02*
D03*
X100017D02*
D03*
X103167D02*
D03*
X106316D02*
D03*
M02*
