G04*
G04 #@! TF.GenerationSoftware,Altium Limited,Altium Designer,19.0.10 (269)*
G04*
G04 Layer_Color=16711935*
%FSLAX25Y25*%
%MOIN*%
G70*
G01*
G75*
%ADD10C,0.01000*%
%ADD57C,0.00000*%
%ADD58C,0.00100*%
%ADD59C,0.00394*%
D10*
X159550Y151003D02*
X157884Y149336D01*
X159550D02*
X157884Y151003D01*
X159550Y150169D02*
X157884D01*
X158717Y149336D02*
Y151003D01*
X120050D02*
X118384Y149336D01*
X120050D02*
X118384Y151003D01*
X120050Y150169D02*
X118384D01*
X119217Y149336D02*
Y151003D01*
X101025Y151033D02*
X99359Y149366D01*
X101025D02*
X99359Y151033D01*
X101025Y150200D02*
X99359D01*
X100192Y149366D02*
Y151033D01*
X61075D02*
X59409Y149366D01*
X61075D02*
X59409Y151033D01*
X61075Y150200D02*
X59409D01*
X60242Y149366D02*
Y151033D01*
X123862Y80352D02*
X122196Y78685D01*
Y80352D02*
X123862Y78685D01*
X123029Y80352D02*
Y78685D01*
X122196Y79519D02*
X123862D01*
D57*
X155800Y154220D02*
G03*
X158200Y154220I1200J0D01*
G01*
X116300D02*
G03*
X118700Y154220I1200J0D01*
G01*
X97275Y154250D02*
G03*
X99675Y154250I1200J0D01*
G01*
X57325D02*
G03*
X59725Y154250I1200J0D01*
G01*
D58*
X159800Y151929D02*
Y153129D01*
X161750D01*
Y151929D02*
Y153129D01*
X159800Y151929D02*
X161750D01*
X159800Y149370D02*
Y150570D01*
X161750D01*
Y149370D02*
Y150570D01*
X159800Y149370D02*
X161750D01*
X159800Y146811D02*
Y148011D01*
X161750D01*
Y146811D02*
Y148011D01*
X159800Y146811D02*
X161750D01*
X154200D02*
Y148011D01*
X152250Y146811D02*
X154200D01*
X152250D02*
Y148011D01*
X154200D01*
Y149370D02*
Y150570D01*
X152250Y149370D02*
X154200D01*
X152250D02*
Y150570D01*
X154200D01*
Y151929D02*
Y153129D01*
X152250Y151929D02*
X154200D01*
X152250D02*
Y153129D01*
X154200D01*
Y145720D02*
X159800D01*
X154200D02*
Y154220D01*
X159800D01*
Y145720D02*
Y154220D01*
X120300Y151929D02*
Y153129D01*
X122250D01*
Y151929D02*
Y153129D01*
X120300Y151929D02*
X122250D01*
X120300Y149370D02*
Y150570D01*
X122250D01*
Y149370D02*
Y150570D01*
X120300Y149370D02*
X122250D01*
X120300Y146811D02*
Y148011D01*
X122250D01*
Y146811D02*
Y148011D01*
X120300Y146811D02*
X122250D01*
X114700D02*
Y148011D01*
X112750Y146811D02*
X114700D01*
X112750D02*
Y148011D01*
X114700D01*
Y149370D02*
Y150570D01*
X112750Y149370D02*
X114700D01*
X112750D02*
Y150570D01*
X114700D01*
Y151929D02*
Y153129D01*
X112750Y151929D02*
X114700D01*
X112750D02*
Y153129D01*
X114700D01*
Y145720D02*
X120300D01*
X114700D02*
Y154220D01*
X120300D01*
Y145720D02*
Y154220D01*
X101275Y151959D02*
Y153159D01*
X103225D01*
Y151959D02*
Y153159D01*
X101275Y151959D02*
X103225D01*
X101275Y149400D02*
Y150600D01*
X103225D01*
Y149400D02*
Y150600D01*
X101275Y149400D02*
X103225D01*
X101275Y146841D02*
Y148041D01*
X103225D01*
Y146841D02*
Y148041D01*
X101275Y146841D02*
X103225D01*
X95675D02*
Y148041D01*
X93725Y146841D02*
X95675D01*
X93725D02*
Y148041D01*
X95675D01*
Y149400D02*
Y150600D01*
X93725Y149400D02*
X95675D01*
X93725D02*
Y150600D01*
X95675D01*
Y151959D02*
Y153159D01*
X93725Y151959D02*
X95675D01*
X93725D02*
Y153159D01*
X95675D01*
Y145750D02*
X101275D01*
X95675D02*
Y154250D01*
X101275D01*
Y145750D02*
Y154250D01*
X61325Y151959D02*
Y153159D01*
X63275D01*
Y151959D02*
Y153159D01*
X61325Y151959D02*
X63275D01*
X61325Y149400D02*
Y150600D01*
X63275D01*
Y149400D02*
Y150600D01*
X61325Y149400D02*
X63275D01*
X61325Y146841D02*
Y148041D01*
X63275D01*
Y146841D02*
Y148041D01*
X61325Y146841D02*
X63275D01*
X55725D02*
Y148041D01*
X53775Y146841D02*
X55725D01*
X53775D02*
Y148041D01*
X55725D01*
Y149400D02*
Y150600D01*
X53775Y149400D02*
X55725D01*
X53775D02*
Y150600D01*
X55725D01*
Y151959D02*
Y153159D01*
X53775Y151959D02*
X55725D01*
X53775D02*
Y153159D01*
X55725D01*
Y145750D02*
X61325D01*
X55725D02*
Y154250D01*
X61325D01*
Y145750D02*
Y154250D01*
X128632Y45188D02*
Y46288D01*
Y45188D02*
X132532D01*
Y46288D01*
X128632D02*
X132532D01*
X128632Y47156D02*
Y48256D01*
Y47156D02*
X132532D01*
Y48256D01*
X128632D02*
X132532D01*
X128632Y49125D02*
Y50225D01*
Y49125D02*
X132532D01*
Y50225D01*
X128632D02*
X132532D01*
X128632Y51093D02*
Y52193D01*
Y51093D02*
X132532D01*
Y52193D01*
X128632D02*
X132532D01*
X128632Y53062D02*
Y54162D01*
Y53062D02*
X132532D01*
Y54162D01*
X128632D02*
X132532D01*
X128632Y55030D02*
Y56130D01*
Y55030D02*
X132532D01*
Y56130D01*
X128632D02*
X132532D01*
X128632Y56999D02*
Y58099D01*
Y56999D02*
X132532D01*
Y58099D01*
X128632D02*
X132532D01*
X128632Y58967D02*
Y60067D01*
Y58967D02*
X132532D01*
Y60067D01*
X128632D02*
X132532D01*
X128632Y60936D02*
Y62036D01*
Y60936D02*
X132532D01*
Y62036D01*
X128632D02*
X132532D01*
X128632Y62904D02*
Y64004D01*
Y62904D02*
X132532D01*
Y64004D01*
X128632D02*
X132532D01*
X128632Y64873D02*
Y65973D01*
Y64873D02*
X132532D01*
Y65973D01*
X128632D02*
X132532D01*
X128632Y66841D02*
Y67941D01*
Y66841D02*
X132532D01*
Y67941D01*
X128632D02*
X132532D01*
X128632Y68810D02*
Y69910D01*
Y68810D02*
X132532D01*
Y69910D01*
X128632D02*
X132532D01*
X128632Y70778D02*
Y71878D01*
Y70778D02*
X132532D01*
Y71878D01*
X128632D02*
X132532D01*
X128632Y72747D02*
Y73847D01*
Y72747D02*
X132532D01*
Y73847D01*
X128632D02*
X132532D01*
X128632Y74715D02*
Y75815D01*
Y74715D02*
X132532D01*
Y75815D01*
X128632D02*
X132532D01*
X122745Y80602D02*
X123845D01*
Y84502D01*
X122745D02*
X123845D01*
X122745Y80602D02*
Y84502D01*
X120777Y80602D02*
X121877D01*
Y84502D01*
X120777D02*
X121877D01*
X120777Y80602D02*
Y84502D01*
X118808Y80602D02*
X119908D01*
Y84502D01*
X118808D02*
X119908D01*
X118808Y80602D02*
Y84502D01*
X116840Y80602D02*
X117940D01*
Y84502D01*
X116840D02*
X117940D01*
X116840Y80602D02*
Y84502D01*
X114871Y80602D02*
X115971D01*
Y84502D01*
X114871D02*
X115971D01*
X114871Y80602D02*
Y84502D01*
X112903Y80602D02*
X114003D01*
Y84502D01*
X112903D02*
X114003D01*
X112903Y80602D02*
Y84502D01*
X110934Y80602D02*
X112034D01*
Y84502D01*
X110934D02*
X112034D01*
X110934Y80602D02*
Y84502D01*
X108966Y80602D02*
X110066D01*
Y84502D01*
X108966D02*
X110066D01*
X108966Y80602D02*
Y84502D01*
X106997Y80602D02*
X108097D01*
Y84502D01*
X106997D02*
X108097D01*
X106997Y80602D02*
Y84502D01*
X105029Y80602D02*
X106129D01*
Y84502D01*
X105029D02*
X106129D01*
X105029Y80602D02*
Y84502D01*
X103060Y80602D02*
X104160D01*
Y84502D01*
X103060D02*
X104160D01*
X103060Y80602D02*
Y84502D01*
X101092Y80602D02*
X102192D01*
Y84502D01*
X101092D02*
X102192D01*
X101092Y80602D02*
Y84502D01*
X99123Y80602D02*
X100223D01*
Y84502D01*
X99123D02*
X100223D01*
X99123Y80602D02*
Y84502D01*
X97155Y80602D02*
X98255D01*
Y84502D01*
X97155D02*
X98255D01*
X97155Y80602D02*
Y84502D01*
X95186Y80602D02*
X96286D01*
Y84502D01*
X95186D02*
X96286D01*
X95186Y80602D02*
Y84502D01*
X93218Y80602D02*
X94318D01*
Y84502D01*
X93218D02*
X94318D01*
X93218Y80602D02*
Y84502D01*
X88432Y74715D02*
Y75815D01*
X84532D02*
X88432D01*
X84532Y74715D02*
Y75815D01*
Y74715D02*
X88432D01*
Y72747D02*
Y73847D01*
X84532D02*
X88432D01*
X84532Y72747D02*
Y73847D01*
Y72747D02*
X88432D01*
Y70778D02*
Y71878D01*
X84532D02*
X88432D01*
X84532Y70778D02*
Y71878D01*
Y70778D02*
X88432D01*
Y68810D02*
Y69910D01*
X84532D02*
X88432D01*
X84532Y68810D02*
Y69910D01*
Y68810D02*
X88432D01*
Y66841D02*
Y67941D01*
X84532D02*
X88432D01*
X84532Y66841D02*
Y67941D01*
Y66841D02*
X88432D01*
Y64873D02*
Y65973D01*
X84532D02*
X88432D01*
X84532Y64873D02*
Y65973D01*
Y64873D02*
X88432D01*
Y62904D02*
Y64004D01*
X84532D02*
X88432D01*
X84532Y62904D02*
Y64004D01*
Y62904D02*
X88432D01*
Y60936D02*
Y62036D01*
X84532D02*
X88432D01*
X84532Y60936D02*
Y62036D01*
Y60936D02*
X88432D01*
Y58967D02*
Y60067D01*
X84532D02*
X88432D01*
X84532Y58967D02*
Y60067D01*
Y58967D02*
X88432D01*
Y56999D02*
Y58099D01*
X84532D02*
X88432D01*
X84532Y56999D02*
Y58099D01*
Y56999D02*
X88432D01*
Y55030D02*
Y56130D01*
X84532D02*
X88432D01*
X84532Y55030D02*
Y56130D01*
Y55030D02*
X88432D01*
Y53062D02*
Y54162D01*
X84532D02*
X88432D01*
X84532Y53062D02*
Y54162D01*
Y53062D02*
X88432D01*
Y51093D02*
Y52193D01*
X84532D02*
X88432D01*
X84532Y51093D02*
Y52193D01*
Y51093D02*
X88432D01*
Y49125D02*
Y50225D01*
X84532D02*
X88432D01*
X84532Y49125D02*
Y50225D01*
Y49125D02*
X88432D01*
Y47156D02*
Y48256D01*
X84532D02*
X88432D01*
X84532Y47156D02*
Y48256D01*
Y47156D02*
X88432D01*
Y45188D02*
Y46288D01*
X84532D02*
X88432D01*
X84532Y45188D02*
Y46288D01*
Y45188D02*
X88432D01*
X93218Y40402D02*
X94318D01*
X93218Y36502D02*
Y40402D01*
Y36502D02*
X94318D01*
Y40402D01*
X95186D02*
X96286D01*
X95186Y36502D02*
Y40402D01*
Y36502D02*
X96286D01*
Y40402D01*
X97155D02*
X98255D01*
X97155Y36502D02*
Y40402D01*
Y36502D02*
X98255D01*
Y40402D01*
X99123D02*
X100223D01*
X99123Y36502D02*
Y40402D01*
Y36502D02*
X100223D01*
Y40402D01*
X101092D02*
X102192D01*
X101092Y36502D02*
Y40402D01*
Y36502D02*
X102192D01*
Y40402D01*
X103060D02*
X104160D01*
X103060Y36502D02*
Y40402D01*
Y36502D02*
X104160D01*
Y40402D01*
X105029D02*
X106129D01*
X105029Y36502D02*
Y40402D01*
Y36502D02*
X106129D01*
Y40402D01*
X106997D02*
X108097D01*
X106997Y36502D02*
Y40402D01*
Y36502D02*
X108097D01*
Y40402D01*
X108966D02*
X110066D01*
X108966Y36502D02*
Y40402D01*
Y36502D02*
X110066D01*
Y40402D01*
X110934D02*
X112034D01*
X110934Y36502D02*
Y40402D01*
Y36502D02*
X112034D01*
Y40402D01*
X112903D02*
X114003D01*
X112903Y36502D02*
Y40402D01*
Y36502D02*
X114003D01*
Y40402D01*
X114871D02*
X115971D01*
X114871Y36502D02*
Y40402D01*
Y36502D02*
X115971D01*
Y40402D01*
X116840D02*
X117940D01*
X116840Y36502D02*
Y40402D01*
Y36502D02*
X117940D01*
Y40402D01*
X118808D02*
X119908D01*
X118808Y36502D02*
Y40402D01*
Y36502D02*
X119908D01*
Y40402D01*
X120777D02*
X121877D01*
X120777Y36502D02*
Y40402D01*
Y36502D02*
X121877D01*
Y40402D01*
X122745D02*
X123845D01*
X122745Y36502D02*
Y40402D01*
Y36502D02*
X123845D01*
Y40402D01*
X123632Y80602D02*
X128632Y75602D01*
X88432Y40402D02*
Y80602D01*
Y40402D02*
X128632D01*
Y80602D01*
X88432D02*
X128632D01*
D59*
X72819Y42260D02*
X75181D01*
X72819Y46591D02*
X75181D01*
Y42260D02*
Y46591D01*
X72819Y42260D02*
Y46591D01*
X60303Y34906D02*
Y48094D01*
X70697Y34906D02*
Y48094D01*
X60303D02*
X70697D01*
X60303Y34906D02*
X70697D01*
X201335Y135819D02*
X205665D01*
X201335Y138181D02*
X205665D01*
Y135819D02*
Y138181D01*
X201335Y135819D02*
Y138181D01*
X177681Y116335D02*
Y120665D01*
X175319Y116335D02*
Y120665D01*
X177681D01*
X175319Y116335D02*
X177681D01*
X190319Y149866D02*
Y154197D01*
X192681Y149866D02*
Y154197D01*
X190319Y149866D02*
X192681D01*
X190319Y154197D02*
X192681D01*
X179335Y148431D02*
X183665D01*
X179335Y146069D02*
X183665D01*
X179335D02*
Y148431D01*
X183665Y146069D02*
Y148431D01*
X6606Y19260D02*
X11370D01*
X6606Y16740D02*
Y19260D01*
Y16740D02*
X11370D01*
X31370Y19260D02*
X36134D01*
Y16740D02*
Y19260D01*
X31370Y16740D02*
X36134D01*
X31370Y26740D02*
X36134D01*
Y29260D01*
X31370D02*
X36134D01*
X6606Y26740D02*
X11370D01*
X6606D02*
Y29260D01*
X11370D01*
X31370Y46740D02*
X36134D01*
Y49260D01*
X31370D02*
X36134D01*
X6606Y46740D02*
X11370D01*
X6606D02*
Y49260D01*
X11370D01*
X6606Y59260D02*
X11370D01*
X6606Y56740D02*
Y59260D01*
Y56740D02*
X11370D01*
X31370Y59260D02*
X36134D01*
Y56740D02*
Y59260D01*
X31370Y56740D02*
X36134D01*
X31370Y3000D02*
Y103000D01*
X11370Y3000D02*
X31370D01*
X11370D02*
Y103000D01*
X31370D01*
Y99260D02*
X36134D01*
Y96740D02*
Y99260D01*
X31370Y96740D02*
X36134D01*
X31370Y86740D02*
X36134D01*
Y89260D01*
X31370D02*
X36134D01*
X6606Y96740D02*
X11370D01*
X6606D02*
Y99260D01*
X11370D01*
X6606Y86740D02*
X11370D01*
X6606D02*
Y89260D01*
X11370D01*
X6606Y79260D02*
X11370D01*
X6606Y76740D02*
Y79260D01*
Y76740D02*
X11370D01*
X31370Y79260D02*
X36134D01*
Y76740D02*
Y79260D01*
X31370Y76740D02*
X36134D01*
X31370Y66740D02*
X36134D01*
Y69260D01*
X31370D02*
X36134D01*
X6606Y66740D02*
X11370D01*
X6606D02*
Y69260D01*
X11370D01*
X6606Y39260D02*
X11370D01*
X6606Y36740D02*
Y39260D01*
Y36740D02*
X11370D01*
X31370Y39260D02*
X36134D01*
Y36740D02*
Y39260D01*
X31370Y36740D02*
X36134D01*
X31370Y6740D02*
X36134D01*
Y9260D01*
X31370D02*
X36134D01*
X6606Y6740D02*
X11370D01*
X6606D02*
Y9260D01*
X11370D01*
X178606Y19151D02*
X183370D01*
X178606Y16631D02*
Y19151D01*
Y16631D02*
X183370D01*
X203370Y19151D02*
X208134D01*
Y16631D02*
Y19151D01*
X203370Y16631D02*
X208134D01*
X203370Y26631D02*
X208134D01*
Y29151D01*
X203370D02*
X208134D01*
X178606Y26631D02*
X183370D01*
X178606D02*
Y29151D01*
X183370D01*
X203370Y46631D02*
X208134D01*
Y49151D01*
X203370D02*
X208134D01*
X178606Y46631D02*
X183370D01*
X178606D02*
Y49151D01*
X183370D01*
X178606Y59151D02*
X183370D01*
X178606Y56631D02*
Y59151D01*
Y56631D02*
X183370D01*
X203370Y59151D02*
X208134D01*
Y56631D02*
Y59151D01*
X203370Y56631D02*
X208134D01*
X203370Y2891D02*
Y102891D01*
X183370Y2891D02*
X203370D01*
X183370D02*
Y102891D01*
X203370D01*
Y99151D02*
X208134D01*
Y96631D02*
Y99151D01*
X203370Y96631D02*
X208134D01*
X203370Y86631D02*
X208134D01*
Y89151D01*
X203370D02*
X208134D01*
X178606Y96631D02*
X183370D01*
X178606D02*
Y99151D01*
X183370D01*
X178606Y86631D02*
X183370D01*
X178606D02*
Y89151D01*
X183370D01*
X178606Y79151D02*
X183370D01*
X178606Y76631D02*
Y79151D01*
Y76631D02*
X183370D01*
X203370Y79151D02*
X208134D01*
Y76631D02*
Y79151D01*
X203370Y76631D02*
X208134D01*
X203370Y66631D02*
X208134D01*
Y69151D01*
X203370D02*
X208134D01*
X178606Y66631D02*
X183370D01*
X178606D02*
Y69151D01*
X183370D01*
X178606Y39151D02*
X183370D01*
X178606Y36631D02*
Y39151D01*
Y36631D02*
X183370D01*
X203370Y39151D02*
X208134D01*
Y36631D02*
Y39151D01*
X203370Y36631D02*
X208134D01*
X203370Y6631D02*
X208134D01*
Y9151D01*
X203370D02*
X208134D01*
X178606Y6631D02*
X183370D01*
X178606D02*
Y9151D01*
X183370D01*
X54835Y87819D02*
X59165D01*
X54835Y90181D02*
X59165D01*
Y87819D02*
Y90181D01*
X54835Y87819D02*
Y90181D01*
X117319Y53671D02*
Y58002D01*
X119681Y53671D02*
Y58002D01*
X117319D02*
X119681D01*
X117319Y53671D02*
X119681D01*
X95197Y54821D02*
Y57183D01*
X90866Y54821D02*
Y57183D01*
X95197D01*
X90866Y54821D02*
X95197D01*
X17835Y148181D02*
X22165D01*
X17835Y145819D02*
X22165D01*
X17835D02*
Y148181D01*
X22165Y145819D02*
Y148181D01*
X113729Y62321D02*
Y64683D01*
X109398Y62321D02*
Y64683D01*
X113729D01*
X109398Y62321D02*
X113729D01*
X123197Y71850D02*
Y74213D01*
X118866Y71850D02*
Y74213D01*
X123197D01*
X118866Y71850D02*
X123197D01*
Y68319D02*
Y70681D01*
X118866Y68319D02*
Y70681D01*
X123197D01*
X118866Y68319D02*
X123197D01*
Y62319D02*
Y64681D01*
X118866Y62319D02*
Y64681D01*
X123197D01*
X118866Y62319D02*
X123197D01*
X109398Y58820D02*
Y61183D01*
X113729Y58820D02*
Y61183D01*
X109398Y58820D02*
X113729D01*
X109398Y61183D02*
X113729D01*
X123197Y65319D02*
Y67681D01*
X118866Y65319D02*
Y67681D01*
X123197D01*
X118866Y65319D02*
X123197D01*
X67165Y112520D02*
Y114882D01*
X62835Y112520D02*
Y114882D01*
X67165D01*
X62835Y112520D02*
X67165D01*
X113728Y65319D02*
Y67681D01*
X109398Y65319D02*
Y67681D01*
X113728D01*
X109398Y65319D02*
X113728D01*
Y52571D02*
Y54933D01*
X109398Y52571D02*
Y54933D01*
X113728D01*
X109398Y52571D02*
X113728D01*
X113728Y55821D02*
Y58183D01*
X109398Y55821D02*
Y58183D01*
X113728D01*
X109398Y55821D02*
X113728D01*
X104634Y50319D02*
Y52681D01*
X100303Y50319D02*
Y52681D01*
X104634D01*
X100303Y50319D02*
X104634D01*
X95347Y60289D02*
Y62651D01*
X91016Y60289D02*
Y62651D01*
X95347D01*
X91016Y60289D02*
X95347D01*
M02*
