G04*
G04 #@! TF.GenerationSoftware,Altium Limited,Altium Designer,19.0.10 (269)*
G04*
G04 Layer_Color=8388736*
%FSLAX25Y25*%
%MOIN*%
G70*
G01*
G75*
%ADD23R,0.03950X0.04343*%
%ADD24R,0.04343X0.03950*%
%ADD25R,0.05524X0.06312*%
%ADD26R,0.02959X0.04731*%
%ADD27R,0.06312X0.06706*%
%ADD28R,0.11036X0.05131*%
%ADD29R,0.13005X0.04737*%
%ADD30R,0.06706X0.06312*%
%ADD31C,0.06706*%
%ADD32R,0.06706X0.06706*%
%ADD33R,0.06706X0.06706*%
%ADD34C,0.13398*%
%ADD35C,0.03600*%
D23*
X365414Y326610D02*
D03*
X370926D02*
D03*
X394782Y341884D02*
D03*
X389270D02*
D03*
D24*
X365340Y332590D02*
D03*
Y338102D02*
D03*
X273930Y302894D02*
D03*
Y308406D02*
D03*
X274060Y319162D02*
D03*
Y313650D02*
D03*
D25*
X390120Y332480D02*
D03*
X397207D02*
D03*
X367613Y360920D02*
D03*
X374700D02*
D03*
X367617Y351830D02*
D03*
X374703D02*
D03*
D26*
X374700Y341884D02*
D03*
X382180D02*
D03*
Y332436D02*
D03*
X378440D02*
D03*
X374700D02*
D03*
D27*
X374376Y285750D02*
D03*
X382250D02*
D03*
D28*
X364370Y264210D02*
D03*
Y274840D02*
D03*
X390180Y264205D02*
D03*
Y274835D02*
D03*
D29*
X259130Y309501D02*
D03*
X237870D02*
D03*
X259130Y339501D02*
D03*
X237870D02*
D03*
X259130Y349501D02*
D03*
X237870D02*
D03*
X259130Y359501D02*
D03*
X237870D02*
D03*
Y329501D02*
D03*
X259130D02*
D03*
X237870Y319501D02*
D03*
X259130D02*
D03*
X237870Y299501D02*
D03*
X259130D02*
D03*
X237870Y289501D02*
D03*
X259130D02*
D03*
X237870Y279501D02*
D03*
Y269501D02*
D03*
X259130Y279501D02*
D03*
Y269501D02*
D03*
X431130Y269501D02*
D03*
Y279501D02*
D03*
X409870Y269501D02*
D03*
Y279501D02*
D03*
X431130Y289501D02*
D03*
X409870D02*
D03*
X431130Y299501D02*
D03*
X409870D02*
D03*
X431130Y319501D02*
D03*
X409870D02*
D03*
X431130Y329501D02*
D03*
X409870D02*
D03*
Y359501D02*
D03*
X431130D02*
D03*
X409870Y349501D02*
D03*
X431130D02*
D03*
X409870Y339501D02*
D03*
X431130D02*
D03*
X409870Y309501D02*
D03*
X431130D02*
D03*
D30*
X384870Y352913D02*
D03*
Y360787D02*
D03*
D31*
X377260Y274890D02*
D03*
X348670Y265010D02*
D03*
X324790Y284370D02*
D03*
X275380Y284410D02*
D03*
X338960Y343050D02*
D03*
X328960D02*
D03*
X394120Y285660D02*
D03*
Y295660D02*
D03*
D32*
X377260Y264890D02*
D03*
X348670Y275010D02*
D03*
X324790Y294370D02*
D03*
X275380Y294410D02*
D03*
X394120Y305660D02*
D03*
D33*
X318960Y343050D02*
D03*
D34*
X234420Y379650D02*
D03*
X431340D02*
D03*
D35*
X291140Y326350D02*
D03*
X275400Y360040D02*
D03*
X275150Y349520D02*
D03*
X275400Y339900D02*
D03*
X275280Y329510D02*
D03*
X318960Y343050D02*
D03*
X361160Y326680D02*
D03*
X397630Y326110D02*
D03*
X399590Y341690D02*
D03*
X400790Y320170D02*
D03*
X307910Y326590D02*
D03*
X315150Y320090D02*
D03*
X343280Y317320D02*
D03*
X361060Y332670D02*
D03*
X360440Y351600D02*
D03*
X360610Y358360D02*
D03*
X378330Y327830D02*
D03*
X298780Y284120D02*
D03*
X298990Y301830D02*
D03*
X356270Y264210D02*
D03*
X353170Y285840D02*
D03*
X358260Y296490D02*
D03*
X407760Y229399D02*
D03*
X367760D02*
D03*
X337760D02*
D03*
X292760Y233565D02*
D03*
X317800Y229550D02*
D03*
X397660Y251720D02*
D03*
X237720Y349410D02*
D03*
X238100Y359410D02*
D03*
X356380Y324130D02*
D03*
X409470Y269410D02*
D03*
X409530Y289490D02*
D03*
X397880Y274160D02*
D03*
X417420Y259920D02*
D03*
M02*
