M48
;Layer_Color=9474304
;FILE_FORMAT=2:5
INCH,TZ
;TYPE=PLATED
T1F00S00C0.01600
T2F00S00C0.02000
T3F00S00C0.03543
;TYPE=NON_PLATED
T4F00S00C0.12598
%
T01
X317800Y229550
X337760Y229399
X367760
X407760
X397660Y251720
X397880Y274160
X409470Y269410
X417420Y259920
X409530Y289490
X358260Y296490
X353170Y285840
X356270Y264210
X298780Y284120
X298990Y301830
X292760Y233565
X291140Y326350
X307910Y326590
X275280Y329510
X275400Y339900
X275150Y349520
X275400Y360040
X238100Y359410
X237720Y349410
X318960Y343050
X315150Y320090
X343280Y317320
X356380Y324130
X361160Y326680
X361060Y332670
X360440Y351600
X360610Y358360
X378330Y327830
X397630Y326110
X400790Y320170
X399590Y341690
T02
X237870Y309501
Y319501
Y329501
T03
X324790Y284370
Y294370
X348670Y275010
Y265010
X377260Y264890
Y274890
X394120Y285660
Y295660
Y305660
X275380Y294410
Y284410
X318960Y343050
X328960
X338960
T04
X234420Y379650
X431340
M30
