G04*
G04 #@! TF.GenerationSoftware,Altium Limited,Altium Designer,19.0.10 (269)*
G04*
G04 Layer_Color=255*
%FSLAX25Y25*%
%MOIN*%
G70*
G01*
G75*
%ADD15R,0.03150X0.03543*%
%ADD16R,0.03543X0.03150*%
%ADD17R,0.04724X0.05512*%
%ADD19R,0.05512X0.05906*%
%ADD20R,0.10236X0.04331*%
%ADD21R,0.12205X0.03937*%
%ADD22R,0.05906X0.05512*%
%ADD36R,0.02559X0.04331*%
%ADD37C,0.05906*%
%ADD38R,0.05906X0.05906*%
%ADD39R,0.05906X0.05906*%
%ADD40C,0.12598*%
D15*
X365414Y326610D02*
D03*
X370926D02*
D03*
X394782Y341884D02*
D03*
X389270D02*
D03*
D16*
X365340Y332590D02*
D03*
Y338102D02*
D03*
X273930Y302894D02*
D03*
Y308406D02*
D03*
X274060Y319162D02*
D03*
Y313650D02*
D03*
D17*
X390120Y332480D02*
D03*
X397207D02*
D03*
X367613Y360920D02*
D03*
X374700D02*
D03*
X367617Y351830D02*
D03*
X374703D02*
D03*
D19*
X374376Y285750D02*
D03*
X382250D02*
D03*
D20*
X364370Y264210D02*
D03*
Y274840D02*
D03*
X390180Y264205D02*
D03*
Y274835D02*
D03*
D21*
X259130Y309501D02*
D03*
X237870D02*
D03*
X259130Y339501D02*
D03*
X237870D02*
D03*
X259130Y349501D02*
D03*
X237870D02*
D03*
X259130Y359501D02*
D03*
X237870D02*
D03*
Y329501D02*
D03*
X259130D02*
D03*
X237870Y319501D02*
D03*
X259130D02*
D03*
X237870Y299501D02*
D03*
X259130D02*
D03*
X237870Y289501D02*
D03*
X259130D02*
D03*
X237870Y279501D02*
D03*
Y269501D02*
D03*
X259130Y279501D02*
D03*
Y269501D02*
D03*
X431130Y269501D02*
D03*
Y279501D02*
D03*
X409870Y269501D02*
D03*
Y279501D02*
D03*
X431130Y289501D02*
D03*
X409870D02*
D03*
X431130Y299501D02*
D03*
X409870D02*
D03*
X431130Y319501D02*
D03*
X409870D02*
D03*
X431130Y329501D02*
D03*
X409870D02*
D03*
Y359501D02*
D03*
X431130D02*
D03*
X409870Y349501D02*
D03*
X431130D02*
D03*
X409870Y339501D02*
D03*
X431130D02*
D03*
X409870Y309501D02*
D03*
X431130D02*
D03*
D22*
X384870Y352913D02*
D03*
Y360787D02*
D03*
D36*
X374700Y341884D02*
D03*
X382180D02*
D03*
Y332436D02*
D03*
X378440D02*
D03*
X374700D02*
D03*
D37*
X377260Y274890D02*
D03*
X348670Y265010D02*
D03*
X324790Y284370D02*
D03*
X275380Y284410D02*
D03*
X338960Y343050D02*
D03*
X328960D02*
D03*
X394120Y285660D02*
D03*
Y295660D02*
D03*
D38*
X377260Y264890D02*
D03*
X348670Y275010D02*
D03*
X324790Y294370D02*
D03*
X275380Y294410D02*
D03*
X394120Y305660D02*
D03*
D39*
X318960Y343050D02*
D03*
D40*
X234420Y379650D02*
D03*
X431340D02*
D03*
M02*
