G04*
G04 #@! TF.GenerationSoftware,Altium Limited,Altium Designer,19.0.10 (269)*
G04*
G04 Layer_Color=32896*
%FSLAX25Y25*%
%MOIN*%
G70*
G01*
G75*
%ADD10C,0.01000*%
%ADD11C,0.00709*%
%ADD13C,0.00600*%
%ADD14C,0.00787*%
D10*
X122650Y108475D02*
X135150D01*
X122650Y96475D02*
Y108475D01*
Y96475D02*
X135150D01*
Y108475D01*
X108983D02*
X121483D01*
X108983Y96475D02*
Y108475D01*
Y96475D02*
X121483D01*
Y108475D01*
X81500Y108299D02*
X94000D01*
X81500Y96299D02*
Y108299D01*
Y96299D02*
X94000D01*
Y108299D01*
X95316Y108475D02*
X107816D01*
X95316Y96475D02*
Y108475D01*
Y96475D02*
X107816D01*
Y108475D01*
X28500Y105834D02*
Y107500D01*
X26834Y105834D01*
X26417D01*
X26001Y106250D01*
Y107083D01*
X26417Y107500D01*
X18500Y106500D02*
Y105667D01*
Y106084D01*
X16001D01*
X16417Y106500D01*
X9780Y9500D02*
Y8667D01*
Y9083D01*
X7280D01*
X7697Y9500D01*
X9363Y7417D02*
X9780Y7001D01*
Y6168D01*
X9363Y5751D01*
X7697D01*
X7280Y6168D01*
Y7001D01*
X7697Y7417D01*
X8113D01*
X8530Y7001D01*
Y5751D01*
X35780Y7834D02*
Y9500D01*
X34113Y7834D01*
X33697D01*
X33280Y8250D01*
Y9083D01*
X33697Y9500D01*
Y7001D02*
X33280Y6584D01*
Y5751D01*
X33697Y5335D01*
X35363D01*
X35780Y5751D01*
Y6584D01*
X35363Y7001D01*
X33697D01*
X163725Y155512D02*
X162059Y153845D01*
X163725D02*
X162059Y155512D01*
X163725Y154678D02*
X162059D01*
X162892Y153845D02*
Y155512D01*
X124225D02*
X122559Y153845D01*
X124225D02*
X122559Y155512D01*
X124225Y154678D02*
X122559D01*
X123392Y153845D02*
Y155512D01*
X105200Y155542D02*
X103534Y153876D01*
X105200D02*
X103534Y155542D01*
X105200Y154709D02*
X103534D01*
X104367Y153876D02*
Y155542D01*
X65250D02*
X63584Y153876D01*
X65250D02*
X63584Y155542D01*
X65250Y154709D02*
X63584D01*
X64417Y153876D02*
Y155542D01*
X200500Y105725D02*
Y107391D01*
X198834Y105725D01*
X198417D01*
X198001Y106142D01*
Y106975D01*
X198417Y107391D01*
X190500Y106391D02*
Y105558D01*
Y105975D01*
X188001D01*
X188417Y106391D01*
X177500Y4500D02*
X178333D01*
X177917D01*
Y2001D01*
X177500Y2417D01*
X179583Y4084D02*
X179999Y4500D01*
X180832D01*
X181249Y4084D01*
Y2417D01*
X180832Y2001D01*
X179999D01*
X179583Y2417D01*
Y2834D01*
X179999Y3250D01*
X181249D01*
X201666Y5891D02*
X200000D01*
X201666Y4225D01*
Y3809D01*
X201250Y3392D01*
X200416D01*
X200000Y3809D01*
X202499D02*
X202916Y3392D01*
X203749D01*
X204165Y3809D01*
Y5475D01*
X203749Y5891D01*
X202916D01*
X202499Y5475D01*
Y3809D01*
X45500Y15000D02*
Y17499D01*
X44250D01*
X43834Y17083D01*
Y16250D01*
X44250Y15833D01*
X45500D01*
X43001Y15000D02*
X42168D01*
X42584D01*
Y17499D01*
X43001Y17083D01*
X40918Y15000D02*
X40085D01*
X40502D01*
Y17499D01*
X40918Y17083D01*
X119500Y141999D02*
Y139917D01*
X119083Y139500D01*
X118250D01*
X117834Y139917D01*
Y141999D01*
X117001D02*
X115335D01*
Y141583D01*
X117001Y139917D01*
Y139500D01*
X60500Y142999D02*
Y140917D01*
X60084Y140500D01*
X59250D01*
X58834Y140917D01*
Y142999D01*
X58001Y140917D02*
X57584Y140500D01*
X56751D01*
X56335Y140917D01*
Y142583D01*
X56751Y142999D01*
X57584D01*
X58001Y142583D01*
Y142166D01*
X57584Y141750D01*
X56335D01*
X100500Y142499D02*
Y140417D01*
X100083Y140000D01*
X99250D01*
X98834Y140417D01*
Y142499D01*
X98001Y142083D02*
X97584Y142499D01*
X96751D01*
X96335Y142083D01*
Y141666D01*
X96751Y141250D01*
X96335Y140833D01*
Y140417D01*
X96751Y140000D01*
X97584D01*
X98001Y140417D01*
Y140833D01*
X97584Y141250D01*
X98001Y141666D01*
Y142083D01*
X97584Y141250D02*
X96751D01*
X159000Y142499D02*
Y140417D01*
X158583Y140000D01*
X157750D01*
X157334Y140417D01*
Y142499D01*
X154835D02*
X155668Y142083D01*
X156501Y141250D01*
Y140417D01*
X156084Y140000D01*
X155251D01*
X154835Y140417D01*
Y140833D01*
X155251Y141250D01*
X156501D01*
X82000Y90213D02*
X84499D01*
Y91462D01*
X84083Y91879D01*
X83250D01*
X82833Y91462D01*
Y90213D01*
Y91046D02*
X82000Y91879D01*
Y92712D02*
Y93545D01*
Y93128D01*
X84499D01*
X84083Y92712D01*
Y94794D02*
X84499Y95211D01*
Y96044D01*
X84083Y96461D01*
X83666D01*
X83250Y96044D01*
X82833Y96461D01*
X82416D01*
X82000Y96044D01*
Y95211D01*
X82416Y94794D01*
X82833D01*
X83250Y95211D01*
X83666Y94794D01*
X84083D01*
X83250Y95211D02*
Y96044D01*
X44500Y109744D02*
X42001D01*
Y108494D01*
X42417Y108078D01*
X43250D01*
X43667Y108494D01*
Y109744D01*
Y108911D02*
X44500Y108078D01*
Y107245D02*
Y106412D01*
Y106828D01*
X42001D01*
X42417Y107245D01*
Y105162D02*
X42001Y104746D01*
Y103913D01*
X42417Y103496D01*
X42834D01*
X43250Y103913D01*
Y104329D01*
Y103913D01*
X43667Y103496D01*
X44083D01*
X44500Y103913D01*
Y104746D01*
X44083Y105162D01*
X212000Y108000D02*
Y110499D01*
X210750D01*
X210334Y110083D01*
Y109250D01*
X210750Y108833D01*
X212000D01*
X211167D02*
X210334Y108000D01*
X209501D02*
X208668D01*
X209084D01*
Y110499D01*
X209501Y110083D01*
X207418Y108000D02*
X206585D01*
X207002D01*
Y110499D01*
X207418Y110083D01*
X190532Y143000D02*
Y145499D01*
X189282D01*
X188865Y145083D01*
Y144250D01*
X189282Y143833D01*
X190532D01*
X189698D02*
X188865Y143000D01*
X188032Y143417D02*
X187616Y143000D01*
X186783D01*
X186366Y143417D01*
Y145083D01*
X186783Y145499D01*
X187616D01*
X188032Y145083D01*
Y144666D01*
X187616Y144250D01*
X186366D01*
X181500Y108000D02*
Y110499D01*
X180250D01*
X179834Y110083D01*
Y109250D01*
X180250Y108833D01*
X181500D01*
X180667D02*
X179834Y108000D01*
X179001Y110499D02*
X177335D01*
Y110083D01*
X179001Y108416D01*
Y108000D01*
X181500Y101000D02*
Y103499D01*
X180250D01*
X179834Y103083D01*
Y102250D01*
X180250Y101833D01*
X181500D01*
X177335Y103499D02*
X178168Y103083D01*
X179001Y102250D01*
Y101417D01*
X178584Y101000D01*
X177751D01*
X177335Y101417D01*
Y101833D01*
X177751Y102250D01*
X179001D01*
X91834Y113883D02*
X92250Y114299D01*
X93084D01*
X93500Y113883D01*
Y112216D01*
X93084Y111800D01*
X92250D01*
X91834Y112216D01*
X91001Y113883D02*
X90584Y114299D01*
X89751D01*
X89335Y113883D01*
Y113466D01*
X89751Y113050D01*
X90168D01*
X89751D01*
X89335Y112633D01*
Y112216D01*
X89751Y111800D01*
X90584D01*
X91001Y112216D01*
X88502Y113883D02*
X88085Y114299D01*
X87252D01*
X86835Y113883D01*
Y112216D01*
X87252Y111800D01*
X88085D01*
X88502Y112216D01*
Y113883D01*
X105634Y114083D02*
X106050Y114499D01*
X106884D01*
X107300Y114083D01*
Y112417D01*
X106884Y112000D01*
X106050D01*
X105634Y112417D01*
X103135Y112000D02*
X104801D01*
X103135Y113666D01*
Y114083D01*
X103551Y114499D01*
X104384D01*
X104801Y114083D01*
X102302Y112417D02*
X101885Y112000D01*
X101052D01*
X100636Y112417D01*
Y114083D01*
X101052Y114499D01*
X101885D01*
X102302Y114083D01*
Y113666D01*
X101885Y113250D01*
X100636D01*
X119334Y114083D02*
X119750Y114499D01*
X120583D01*
X121000Y114083D01*
Y112417D01*
X120583Y112000D01*
X119750D01*
X119334Y112417D01*
X116835Y112000D02*
X118501D01*
X116835Y113666D01*
Y114083D01*
X117251Y114499D01*
X118084D01*
X118501Y114083D01*
X116002D02*
X115585Y114499D01*
X114752D01*
X114336Y114083D01*
Y113666D01*
X114752Y113250D01*
X114336Y112833D01*
Y112417D01*
X114752Y112000D01*
X115585D01*
X116002Y112417D01*
Y112833D01*
X115585Y113250D01*
X116002Y113666D01*
Y114083D01*
X115585Y113250D02*
X114752D01*
X132934Y114083D02*
X133350Y114499D01*
X134184D01*
X134600Y114083D01*
Y112417D01*
X134184Y112000D01*
X133350D01*
X132934Y112417D01*
X130435Y112000D02*
X132101D01*
X130435Y113666D01*
Y114083D01*
X130851Y114499D01*
X131684D01*
X132101Y114083D01*
X129602Y114499D02*
X127936D01*
Y114083D01*
X129602Y112417D01*
Y112000D01*
X58834Y114284D02*
X59250Y114700D01*
X60084D01*
X60500Y114284D01*
Y112617D01*
X60084Y112201D01*
X59250D01*
X58834Y112617D01*
X56335Y112201D02*
X58001D01*
X56335Y113867D01*
Y114284D01*
X56751Y114700D01*
X57584D01*
X58001Y114284D01*
X54252Y112201D02*
Y114700D01*
X55502Y113450D01*
X53835D01*
X112897Y50584D02*
X113313Y51001D01*
X114146D01*
X114563Y50584D01*
Y48918D01*
X114146Y48502D01*
X113313D01*
X112897Y48918D01*
X112064Y48502D02*
X111231D01*
X111647D01*
Y51001D01*
X112064Y50584D01*
X109981Y48918D02*
X109565Y48502D01*
X108731D01*
X108315Y48918D01*
Y50584D01*
X108731Y51001D01*
X109565D01*
X109981Y50584D01*
Y50168D01*
X109565Y49751D01*
X108315D01*
X105365Y57888D02*
X105782Y58304D01*
X106615D01*
X107032Y57888D01*
Y56221D01*
X106615Y55805D01*
X105782D01*
X105365Y56221D01*
X104532Y55805D02*
X103699D01*
X104116D01*
Y58304D01*
X104532Y57888D01*
X102450D02*
X102033Y58304D01*
X101200D01*
X100784Y57888D01*
Y57471D01*
X101200Y57054D01*
X100784Y56638D01*
Y56221D01*
X101200Y55805D01*
X102033D01*
X102450Y56221D01*
Y56638D01*
X102033Y57054D01*
X102450Y57471D01*
Y57888D01*
X102033Y57054D02*
X101200D01*
X129334Y68083D02*
X129750Y68499D01*
X130584D01*
X131000Y68083D01*
Y66417D01*
X130584Y66000D01*
X129750D01*
X129334Y66417D01*
X128501Y66000D02*
X127668D01*
X128084D01*
Y68499D01*
X128501Y68083D01*
X126418Y68499D02*
X124752D01*
Y68083D01*
X126418Y66417D01*
Y66000D01*
X129334Y64083D02*
X129750Y64499D01*
X130584D01*
X131000Y64083D01*
Y62416D01*
X130584Y62000D01*
X129750D01*
X129334Y62416D01*
X128501Y62000D02*
X127668D01*
X128084D01*
Y64499D01*
X128501Y64083D01*
X124752Y64499D02*
X125585Y64083D01*
X126418Y63250D01*
Y62416D01*
X126002Y62000D01*
X125169D01*
X124752Y62416D01*
Y62833D01*
X125169Y63250D01*
X126418D01*
X105397Y61084D02*
X105814Y61501D01*
X106647D01*
X107063Y61084D01*
Y59418D01*
X106647Y59002D01*
X105814D01*
X105397Y59418D01*
X104564Y59002D02*
X103731D01*
X104148D01*
Y61501D01*
X104564Y61084D01*
X100815Y61501D02*
X102481D01*
Y60251D01*
X101648Y60668D01*
X101232D01*
X100815Y60251D01*
Y59418D01*
X101232Y59002D01*
X102065D01*
X102481Y59418D01*
X103771Y48333D02*
X104187Y48749D01*
X105020D01*
X105437Y48333D01*
Y46666D01*
X105020Y46250D01*
X104187D01*
X103771Y46666D01*
X102938Y46250D02*
X102105D01*
X102521D01*
Y48749D01*
X102938Y48333D01*
X99606Y46250D02*
Y48749D01*
X100855Y47500D01*
X99189D01*
X105397Y68083D02*
X105814Y68499D01*
X106647D01*
X107063Y68083D01*
Y66417D01*
X106647Y66000D01*
X105814D01*
X105397Y66417D01*
X104564Y66000D02*
X103731D01*
X104148D01*
Y68499D01*
X104564Y68083D01*
X102481D02*
X102065Y68499D01*
X101232D01*
X100815Y68083D01*
Y67666D01*
X101232Y67250D01*
X101648D01*
X101232D01*
X100815Y66833D01*
Y66417D01*
X101232Y66000D01*
X102065D01*
X102481Y66417D01*
X115365Y70583D02*
X115782Y70999D01*
X116615D01*
X117031Y70583D01*
Y68916D01*
X116615Y68500D01*
X115782D01*
X115365Y68916D01*
X114532Y68500D02*
X113699D01*
X114116D01*
Y70999D01*
X114532Y70583D01*
X110783Y68500D02*
X112450D01*
X110783Y70166D01*
Y70583D01*
X111200Y70999D01*
X112033D01*
X112450Y70583D01*
X115365Y74083D02*
X115782Y74499D01*
X116615D01*
X117031Y74083D01*
Y72417D01*
X116615Y72000D01*
X115782D01*
X115365Y72417D01*
X114532Y72000D02*
X113699D01*
X114116D01*
Y74499D01*
X114532Y74083D01*
X112450Y72000D02*
X111617D01*
X112033D01*
Y74499D01*
X112450Y74083D01*
X105334Y64583D02*
X105750Y64999D01*
X106583D01*
X107000Y64583D01*
Y62916D01*
X106583Y62500D01*
X105750D01*
X105334Y62916D01*
X104501Y62500D02*
X103668D01*
X104084D01*
Y64999D01*
X104501Y64583D01*
X102418D02*
X102002Y64999D01*
X101169D01*
X100752Y64583D01*
Y62916D01*
X101169Y62500D01*
X102002D01*
X102418Y62916D01*
Y64583D01*
X74184Y51008D02*
X74601Y51424D01*
X75434D01*
X75850Y51008D01*
Y49342D01*
X75434Y48925D01*
X74601D01*
X74184Y49342D01*
X73351D02*
X72935Y48925D01*
X72102D01*
X71685Y49342D01*
Y51008D01*
X72102Y51424D01*
X72935D01*
X73351Y51008D01*
Y50591D01*
X72935Y50175D01*
X71685D01*
X68534Y54683D02*
X68950Y55099D01*
X69784D01*
X70200Y54683D01*
Y53017D01*
X69784Y52600D01*
X68950D01*
X68534Y53017D01*
X67701Y54683D02*
X67284Y55099D01*
X66451D01*
X66035Y54683D01*
Y54266D01*
X66451Y53850D01*
X66035Y53433D01*
Y53017D01*
X66451Y52600D01*
X67284D01*
X67701Y53017D01*
Y53433D01*
X67284Y53850D01*
X67701Y54266D01*
Y54683D01*
X67284Y53850D02*
X66451D01*
X94134Y62683D02*
X94550Y63099D01*
X95384D01*
X95800Y62683D01*
Y61016D01*
X95384Y60600D01*
X94550D01*
X94134Y61016D01*
X93301Y63099D02*
X91635D01*
Y62683D01*
X93301Y61016D01*
Y60600D01*
X98949Y50836D02*
X98532Y51252D01*
Y52085D01*
X98949Y52502D01*
X100615D01*
X101032Y52085D01*
Y51252D01*
X100615Y50836D01*
X98532Y48336D02*
X98949Y49169D01*
X99782Y50002D01*
X100615D01*
X101032Y49586D01*
Y48753D01*
X100615Y48336D01*
X100198D01*
X99782Y48753D01*
Y50002D01*
X94234Y68083D02*
X94650Y68499D01*
X95483D01*
X95900Y68083D01*
Y66417D01*
X95483Y66000D01*
X94650D01*
X94234Y66417D01*
X91735Y68499D02*
X93401D01*
Y67250D01*
X92568Y67666D01*
X92151D01*
X91735Y67250D01*
Y66417D01*
X92151Y66000D01*
X92984D01*
X93401Y66417D01*
X118739Y50919D02*
X119155Y51335D01*
X119988D01*
X120405Y50919D01*
Y49253D01*
X119988Y48836D01*
X119155D01*
X118739Y49253D01*
X116240Y48836D02*
X117906D01*
X116240Y50502D01*
Y50919D01*
X116656Y51335D01*
X117489D01*
X117906Y50919D01*
X128137Y58494D02*
X128554Y58910D01*
X129387D01*
X129803Y58494D01*
Y56828D01*
X129387Y56411D01*
X128554D01*
X128137Y56828D01*
X127304Y56411D02*
X126471D01*
X126888D01*
Y58910D01*
X127304Y58494D01*
D11*
X76926Y97001D02*
X79926D01*
X40926Y116245D02*
X43926D01*
X201501Y107574D02*
Y110574D01*
X188001Y107574D02*
Y110574D01*
X181532Y142574D02*
Y145574D01*
X73501Y44425D02*
X74485Y44426D01*
X118001Y55836D02*
X118985Y55837D01*
X93031Y56487D02*
X93031Y55502D01*
X122229Y56002D02*
X125229D01*
X111563Y63987D02*
X111563Y63002D01*
X121031Y73517D02*
X121031Y72532D01*
X121031Y69985D02*
X121031Y69001D01*
X121031Y63985D02*
X121031Y63001D01*
X111564Y60501D02*
X111564Y59516D01*
X121031Y66985D02*
X121031Y66001D01*
X64999Y114186D02*
X65000Y113201D01*
X111562Y66985D02*
X111563Y66001D01*
X111562Y54237D02*
X111563Y53252D01*
X111562Y57487D02*
X111563Y56502D01*
X102468Y51985D02*
X102468Y51001D01*
X98458Y59502D02*
X101458D01*
X93180Y61956D02*
X93181Y60971D01*
D13*
X153700Y145220D02*
X160300D01*
X153700Y154720D02*
X160300D01*
X114200Y145220D02*
X120800D01*
X114200Y154720D02*
X120800D01*
X95175Y145250D02*
X101775D01*
X95175Y154750D02*
X101775D01*
X55225Y145250D02*
X61825D01*
X55225Y154750D02*
X61825D01*
D14*
X25118Y86382D02*
Y89382D01*
Y86382D02*
X28118D01*
Y89382D01*
X25118D02*
X28118D01*
X14882Y86382D02*
Y89382D01*
Y86382D02*
X17882D01*
Y89382D01*
X14882D02*
X17882D01*
X25118Y96618D02*
Y99618D01*
Y96618D02*
X28118D01*
Y99618D01*
X25118D02*
X28118D01*
X14882Y96618D02*
Y99618D01*
Y96618D02*
X17882D01*
Y99618D01*
X14882D02*
X17882D01*
X11264Y103276D02*
X31736D01*
X14882Y79382D02*
X17882D01*
Y76382D02*
Y79382D01*
X14882Y76382D02*
X17882D01*
X14882D02*
Y79382D01*
X25118D02*
X28118D01*
Y76382D02*
Y79382D01*
X25118Y76382D02*
X28118D01*
X25118D02*
Y79382D01*
Y66382D02*
Y69382D01*
Y66382D02*
X28118D01*
Y69382D01*
X25118D02*
X28118D01*
X14882Y66382D02*
Y69382D01*
Y66382D02*
X17882D01*
Y69382D01*
X14882D02*
X17882D01*
X25118Y56382D02*
Y59382D01*
Y56382D02*
X28118D01*
Y59382D01*
X25118D02*
X28118D01*
X14882Y56382D02*
Y59382D01*
Y56382D02*
X17882D01*
Y59382D01*
X14882D02*
X17882D01*
X25118Y46382D02*
Y49382D01*
Y46382D02*
X28118D01*
Y49382D01*
X25118D02*
X28118D01*
X14882Y46382D02*
Y49382D01*
Y46382D02*
X17882D01*
Y49382D01*
X14882D02*
X17882D01*
X14882Y9382D02*
X17882D01*
Y6382D02*
Y9382D01*
X14882Y6382D02*
X17882D01*
X14882D02*
Y9382D01*
X25118D02*
X28118D01*
Y6382D02*
Y9382D01*
X25118Y6382D02*
X28118D01*
X25118D02*
Y9382D01*
Y16382D02*
Y19382D01*
Y16382D02*
X28118D01*
Y19382D01*
X25118D02*
X28118D01*
X14882Y16382D02*
Y19382D01*
Y16382D02*
X17882D01*
Y19382D01*
X14882D02*
X17882D01*
X14882Y39618D02*
X17882D01*
Y36618D02*
Y39618D01*
X14882Y36618D02*
X17882D01*
X14882D02*
Y39618D01*
X25118D02*
X28118D01*
Y36618D02*
Y39618D01*
X25118Y36618D02*
X28118D01*
X25118D02*
Y39618D01*
X14882Y29382D02*
X17882D01*
Y26382D02*
Y29382D01*
X14882Y26382D02*
X17882D01*
X14882D02*
Y29382D01*
X25118D02*
X28118D01*
Y26382D02*
Y29382D01*
X25118Y26382D02*
X28118D01*
X25118D02*
Y29382D01*
X11264Y2764D02*
X31736D01*
X11264D02*
Y103276D01*
X31736Y2764D02*
Y103276D01*
X60776Y39925D02*
Y43075D01*
X70224Y39925D02*
Y43075D01*
X197118Y86273D02*
Y89273D01*
Y86273D02*
X200118D01*
Y89273D01*
X197118D02*
X200118D01*
X186882Y86273D02*
Y89273D01*
Y86273D02*
X189882D01*
Y89273D01*
X186882D02*
X189882D01*
X197118Y96509D02*
Y99509D01*
Y96509D02*
X200118D01*
Y99509D01*
X197118D02*
X200118D01*
X186882Y96509D02*
Y99509D01*
Y96509D02*
X189882D01*
Y99509D01*
X186882D02*
X189882D01*
X183264Y103167D02*
X203736D01*
X186882Y79273D02*
X189882D01*
Y76273D02*
Y79273D01*
X186882Y76273D02*
X189882D01*
X186882D02*
Y79273D01*
X197118D02*
X200118D01*
Y76273D02*
Y79273D01*
X197118Y76273D02*
X200118D01*
X197118D02*
Y79273D01*
Y66273D02*
Y69273D01*
Y66273D02*
X200118D01*
Y69273D01*
X197118D02*
X200118D01*
X186882Y66273D02*
Y69273D01*
Y66273D02*
X189882D01*
Y69273D01*
X186882D02*
X189882D01*
X197118Y56273D02*
Y59273D01*
Y56273D02*
X200118D01*
Y59273D01*
X197118D02*
X200118D01*
X186882Y56273D02*
Y59273D01*
Y56273D02*
X189882D01*
Y59273D01*
X186882D02*
X189882D01*
X197118Y46273D02*
Y49273D01*
Y46273D02*
X200118D01*
Y49273D01*
X197118D02*
X200118D01*
X186882Y46273D02*
Y49273D01*
Y46273D02*
X189882D01*
Y49273D01*
X186882D02*
X189882D01*
X186882Y9273D02*
X189882D01*
Y6273D02*
Y9273D01*
X186882Y6273D02*
X189882D01*
X186882D02*
Y9273D01*
X197118D02*
X200118D01*
Y6273D02*
Y9273D01*
X197118Y6273D02*
X200118D01*
X197118D02*
Y9273D01*
Y16273D02*
Y19273D01*
Y16273D02*
X200118D01*
Y19273D01*
X197118D02*
X200118D01*
X186882Y16273D02*
Y19273D01*
Y16273D02*
X189882D01*
Y19273D01*
X186882D02*
X189882D01*
X186882Y39509D02*
X189882D01*
Y36509D02*
Y39509D01*
X186882Y36509D02*
X189882D01*
X186882D02*
Y39509D01*
X197118D02*
X200118D01*
Y36509D02*
Y39509D01*
X197118Y36509D02*
X200118D01*
X197118D02*
Y39509D01*
X186882Y29273D02*
X189882D01*
Y26273D02*
Y29273D01*
X186882Y26273D02*
X189882D01*
X186882D02*
Y29273D01*
X197118D02*
X200118D01*
Y26273D02*
Y29273D01*
X197118Y26273D02*
X200118D01*
X197118D02*
Y29273D01*
X183264Y2655D02*
X203736D01*
X183264D02*
Y103167D01*
X203736Y2655D02*
Y103167D01*
M02*
