G04*
G04 #@! TF.GenerationSoftware,Altium Limited,Altium Designer,19.0.10 (269)*
G04*
G04 Layer_Color=65535*
%FSLAX25Y25*%
%MOIN*%
G70*
G01*
G75*
%ADD10C,0.01000*%
%ADD11C,0.00709*%
%ADD12C,0.00800*%
%ADD13C,0.00600*%
%ADD14C,0.00787*%
%ADD15C,0.01500*%
%ADD16C,0.00500*%
G36*
X110290Y14491D02*
X112258Y15672D01*
Y13309D01*
X110290Y14491D01*
D02*
G37*
G36*
X108297Y34102D02*
Y33102D01*
X106797D01*
Y34102D01*
X108297D01*
D02*
G37*
G36*
X134932Y46956D02*
Y48456D01*
X135932D01*
Y46956D01*
X134932D01*
D02*
G37*
G36*
X82132Y48925D02*
Y50425D01*
X81132D01*
Y48925D01*
X82132D01*
D02*
G37*
G36*
Y68610D02*
Y70110D01*
X81132D01*
Y68610D01*
X82132D01*
D02*
G37*
G36*
X106329Y86902D02*
Y87902D01*
X104829D01*
Y86902D01*
X106329D01*
D02*
G37*
G36*
X134932Y66641D02*
Y68141D01*
X135932D01*
Y66641D01*
X134932D01*
D02*
G37*
D10*
X198900Y116400D02*
G03*
X198900Y116400I-1000J0D01*
G01*
X65900Y95400D02*
G03*
X65900Y95400I-1000J0D01*
G01*
X172295Y47000D02*
Y48000D01*
X170795Y46500D02*
Y48675D01*
X169252Y45456D02*
Y49500D01*
X166500Y47500D02*
X169295D01*
X170000Y59500D02*
Y62000D01*
X172500Y59500D01*
X170000Y57000D02*
X172500Y59500D01*
X170000Y57000D02*
Y59500D01*
X166000D02*
X170000D01*
X38391Y38000D02*
X40000D01*
X38391Y47891D02*
X39500D01*
X38500Y57891D02*
X40000D01*
X3500Y98000D02*
X4500D01*
X3000Y98500D02*
X3500Y98000D01*
X3000Y98500D02*
Y102842D01*
X186900Y114200D02*
X201100D01*
X186900Y132800D02*
X201100D01*
X111453Y121901D02*
X128253D01*
Y111801D02*
Y121901D01*
X111453Y111801D02*
X128253D01*
X111453D02*
Y121901D01*
X88157D02*
X104957D01*
Y111801D02*
Y121901D01*
X88157Y111801D02*
X104957D01*
X88157D02*
Y121901D01*
X44500Y82000D02*
Y82500D01*
X42500Y81000D02*
Y82500D01*
X43500Y81500D02*
Y83252D01*
X42500Y82752D02*
Y84000D01*
Y82500D02*
Y82752D01*
X40000Y82500D02*
X42500D01*
X32721Y78000D02*
X40000D01*
X32721Y88000D02*
X40000D01*
X32721Y68000D02*
X40000D01*
Y98000D01*
X32721D02*
X40000D01*
X26500Y8000D02*
X188000D01*
X53900Y111800D02*
X68100D01*
X53900Y93200D02*
X68100D01*
X32000Y-5000D02*
X38000Y-3000D01*
X32000Y-5000D02*
X38000Y-7000D01*
X198000D02*
X204000Y-5000D01*
X198000Y-3000D02*
X204000Y-5000D01*
X32000D02*
X95806D01*
X136994D02*
X204000D01*
X32000Y-6000D02*
Y498D01*
X204000Y-6000D02*
Y389D01*
X0Y198000D02*
X6000Y200000D01*
X0Y198000D02*
X6000Y196000D01*
X209000D02*
X215000Y198000D01*
X209000Y200000D02*
X215000Y198000D01*
X0D02*
X91804D01*
X119996D02*
X215000D01*
X0Y174500D02*
Y199000D01*
X215000Y173500D02*
Y199000D01*
X222500Y5500D02*
X224500Y-500D01*
X226500Y5500D01*
X224500Y173500D02*
X226500Y167500D01*
X222500D02*
X224500Y173500D01*
Y-500D02*
Y69804D01*
Y99996D02*
Y173500D01*
X214500Y-500D02*
X225500D01*
X215000Y173500D02*
X225500D01*
X208001Y156000D02*
X210500D01*
Y157250D01*
X210084Y157666D01*
X209667D01*
X209250Y157250D01*
Y156000D01*
Y157250D01*
X208834Y157666D01*
X208417D01*
X208001Y157250D01*
Y156000D01*
Y158499D02*
Y159332D01*
Y158916D01*
X210500D01*
Y158499D01*
Y159332D01*
Y160582D02*
X208834D01*
X208001Y161415D01*
X208834Y162248D01*
X210500D01*
X209250D01*
Y160582D01*
X208417Y164747D02*
X208001Y164331D01*
Y163498D01*
X208417Y163081D01*
X208834D01*
X209250Y163498D01*
Y164331D01*
X209667Y164747D01*
X210084D01*
X210500Y164331D01*
Y163498D01*
X210084Y163081D01*
X2500Y160500D02*
Y162999D01*
X3750D01*
X4166Y162583D01*
Y161750D01*
X3750Y161333D01*
X2500D01*
X3333D02*
X4166Y160500D01*
X6665Y162999D02*
X4999D01*
Y160500D01*
X6665D01*
X4999Y161750D02*
X5832D01*
X9165Y162999D02*
X7498D01*
Y161750D01*
X8331D01*
X7498D01*
Y160500D01*
X172500Y156250D02*
X174166D01*
X173333Y157083D02*
Y155417D01*
X176665Y157083D02*
X176249Y157499D01*
X175416D01*
X174999Y157083D01*
Y155417D01*
X175416Y155000D01*
X176249D01*
X176665Y155417D01*
X177498Y157499D02*
Y155000D01*
Y156250D01*
X179165D01*
Y157499D01*
Y155000D01*
X179998Y157083D02*
X180414Y157499D01*
X181247D01*
X181664Y157083D01*
Y156666D01*
X181247Y156250D01*
X181664Y155833D01*
Y155417D01*
X181247Y155000D01*
X180414D01*
X179998Y155417D01*
Y155833D01*
X180414Y156250D01*
X179998Y156666D01*
Y157083D01*
X180414Y156250D02*
X181247D01*
X182497D02*
X184163D01*
X152500D02*
X154166D01*
X153333Y157083D02*
Y155417D01*
X156665Y157083D02*
X156249Y157499D01*
X155416D01*
X154999Y157083D01*
Y155417D01*
X155416Y155000D01*
X156249D01*
X156665Y155417D01*
X157498Y157499D02*
Y155000D01*
Y156250D01*
X159165D01*
Y157499D01*
Y155000D01*
X159998Y157499D02*
X161664D01*
Y157083D01*
X159998Y155417D01*
Y155000D01*
X162497Y156250D02*
X164163D01*
X132000D02*
X133666D01*
X132833Y157083D02*
Y155417D01*
X136165Y157083D02*
X135749Y157499D01*
X134916D01*
X134499Y157083D01*
Y155417D01*
X134916Y155000D01*
X135749D01*
X136165Y155417D01*
X136998Y157499D02*
Y155000D01*
Y156250D01*
X138664D01*
Y157499D01*
Y155000D01*
X141164Y157499D02*
X140331Y157083D01*
X139498Y156250D01*
Y155417D01*
X139914Y155000D01*
X140747D01*
X141164Y155417D01*
Y155833D01*
X140747Y156250D01*
X139498D01*
X141997D02*
X143663D01*
X112000Y155750D02*
X113666D01*
X112833Y156583D02*
Y154917D01*
X116165Y156583D02*
X115749Y156999D01*
X114916D01*
X114499Y156583D01*
Y154917D01*
X114916Y154500D01*
X115749D01*
X116165Y154917D01*
X116998Y156999D02*
Y154500D01*
Y155750D01*
X118665D01*
Y156999D01*
Y154500D01*
X121164Y156999D02*
X119498D01*
Y155750D01*
X120331Y156166D01*
X120747D01*
X121164Y155750D01*
Y154917D01*
X120747Y154500D01*
X119914D01*
X119498Y154917D01*
X121997Y155750D02*
X123663D01*
X93000Y156750D02*
X94666D01*
X93833Y157583D02*
Y155917D01*
X97165Y157583D02*
X96749Y157999D01*
X95916D01*
X95499Y157583D01*
Y155917D01*
X95916Y155500D01*
X96749D01*
X97165Y155917D01*
X97998Y157999D02*
Y155500D01*
Y156750D01*
X99664D01*
Y157999D01*
Y155500D01*
X101747D02*
Y157999D01*
X100498Y156750D01*
X102164D01*
X102997D02*
X104663D01*
X73500D02*
X75166D01*
X74333Y157583D02*
Y155917D01*
X77665Y157583D02*
X77249Y157999D01*
X76416D01*
X75999Y157583D01*
Y155917D01*
X76416Y155500D01*
X77249D01*
X77665Y155917D01*
X78498Y157999D02*
Y155500D01*
Y156750D01*
X80164D01*
Y157999D01*
Y155500D01*
X80998Y157583D02*
X81414Y157999D01*
X82247D01*
X82664Y157583D01*
Y157166D01*
X82247Y156750D01*
X81831D01*
X82247D01*
X82664Y156333D01*
Y155917D01*
X82247Y155500D01*
X81414D01*
X80998Y155917D01*
X83497Y156750D02*
X85163D01*
X53500D02*
X55166D01*
X54333Y157583D02*
Y155917D01*
X57665Y157583D02*
X57249Y157999D01*
X56416D01*
X55999Y157583D01*
Y155917D01*
X56416Y155500D01*
X57249D01*
X57665Y155917D01*
X58498Y157999D02*
Y155500D01*
Y156750D01*
X60164D01*
Y157999D01*
Y155500D01*
X62664D02*
X60998D01*
X62664Y157166D01*
Y157583D01*
X62247Y157999D01*
X61414D01*
X60998Y157583D01*
X63497Y156750D02*
X65163D01*
X34000D02*
X35666D01*
X34833Y157583D02*
Y155917D01*
X38165Y157583D02*
X37749Y157999D01*
X36916D01*
X36499Y157583D01*
Y155917D01*
X36916Y155500D01*
X37749D01*
X38165Y155917D01*
X38998Y157999D02*
Y155500D01*
Y156750D01*
X40664D01*
Y157999D01*
Y155500D01*
X41498D02*
X42331D01*
X41914D01*
Y157999D01*
X41498Y157583D01*
X43580Y156750D02*
X45246D01*
X125362Y89652D02*
X123696Y87985D01*
Y89652D02*
X125362Y87985D01*
X124529Y89652D02*
Y87985D01*
X123696Y88819D02*
X125362D01*
X35166Y2705D02*
X33500D01*
X35166Y4371D01*
Y4787D01*
X34750Y5204D01*
X33917D01*
X33500Y4787D01*
X35999D02*
X36416Y5204D01*
X37249D01*
X37665Y4787D01*
Y3121D01*
X37249Y2705D01*
X36416D01*
X35999Y3121D01*
Y4787D01*
X5000Y3000D02*
X5833D01*
X5416D01*
Y5499D01*
X5000Y5083D01*
X7083Y3416D02*
X7499Y3000D01*
X8332D01*
X8749Y3416D01*
Y5083D01*
X8332Y5499D01*
X7499D01*
X7083Y5083D01*
Y4666D01*
X7499Y4250D01*
X8749D01*
X33181Y102357D02*
Y104024D01*
X34847Y102357D01*
X35264D01*
X35680Y102774D01*
Y103607D01*
X35264Y104024D01*
X5622Y102842D02*
Y102009D01*
Y102426D01*
X8121D01*
X7705Y102842D01*
X206666Y2000D02*
X205000D01*
X206666Y3666D01*
Y4083D01*
X206250Y4499D01*
X205416D01*
X205000Y4083D01*
X207499D02*
X207916Y4499D01*
X208749D01*
X209165Y4083D01*
Y2417D01*
X208749Y2000D01*
X207916D01*
X207499Y2417D01*
Y4083D01*
X178000Y2000D02*
X178833D01*
X178417D01*
Y4499D01*
X178000Y4083D01*
X180083Y2417D02*
X180499Y2000D01*
X181332D01*
X181749Y2417D01*
Y4083D01*
X181332Y4499D01*
X180499D01*
X180083Y4083D01*
Y3666D01*
X180499Y3250D01*
X181749D01*
X205181Y102249D02*
Y103915D01*
X206847Y102249D01*
X207264D01*
X207680Y102665D01*
Y103498D01*
X207264Y103915D01*
X177622Y102734D02*
Y101901D01*
Y102317D01*
X180121D01*
X179705Y102734D01*
X169000Y55000D02*
Y57499D01*
X170250D01*
X170666Y57083D01*
Y56250D01*
X170250Y55833D01*
X169000D01*
X169833D02*
X170666Y55000D01*
X173165D02*
X171499D01*
X173165Y56666D01*
Y57083D01*
X172749Y57499D01*
X171916D01*
X171499Y57083D01*
X83000Y86751D02*
Y83835D01*
X83583Y83252D01*
X84749D01*
X85333Y83835D01*
Y86751D01*
X86499Y83252D02*
X87665D01*
X87082D01*
Y86751D01*
X86499Y86167D01*
X35000Y146000D02*
Y148499D01*
X36250D01*
X36666Y148083D01*
Y147250D01*
X36250Y146833D01*
X35000D01*
X35833D02*
X36666Y146000D01*
X39165D02*
X37499D01*
X39165Y147666D01*
Y148083D01*
X38749Y148499D01*
X37916D01*
X37499Y148083D01*
X39998D02*
X40415Y148499D01*
X41248D01*
X41664Y148083D01*
Y146416D01*
X41248Y146000D01*
X40415D01*
X39998Y146416D01*
Y148083D01*
X18000Y105324D02*
Y107823D01*
X19250D01*
X19666Y107407D01*
Y106574D01*
X19250Y106157D01*
X18000D01*
X20499Y105324D02*
X21332D01*
X20916D01*
Y107823D01*
X20499Y107407D01*
X22582D02*
X22998Y107823D01*
X23832D01*
X24248Y107407D01*
Y105741D01*
X23832Y105324D01*
X22998D01*
X22582Y105741D01*
Y107407D01*
X17500Y151499D02*
Y149000D01*
X18750D01*
X19166Y149416D01*
Y151083D01*
X18750Y151499D01*
X17500D01*
X21665Y149000D02*
X19999D01*
X21665Y150666D01*
Y151083D01*
X21249Y151499D01*
X20416D01*
X19999Y151083D01*
X8600Y190400D02*
Y192899D01*
X9850D01*
X10266Y192483D01*
Y191650D01*
X9850Y191233D01*
X8600D01*
X11099Y190400D02*
X11932D01*
X11516D01*
Y192899D01*
X11099Y192483D01*
X14848Y190400D02*
X13182D01*
X14848Y192066D01*
Y192483D01*
X14432Y192899D01*
X13598D01*
X13182Y192483D01*
X206000Y146765D02*
Y149264D01*
X207250D01*
X207666Y148847D01*
Y148014D01*
X207250Y147598D01*
X206000D01*
X206833D02*
X207666Y146765D01*
X208499D02*
X209332D01*
X208916D01*
Y149264D01*
X208499Y148847D01*
X210582Y147181D02*
X210998Y146765D01*
X211831D01*
X212248Y147181D01*
Y148847D01*
X211831Y149264D01*
X210998D01*
X210582Y148847D01*
Y148431D01*
X210998Y148014D01*
X212248D01*
X2500Y152100D02*
Y154599D01*
X3750D01*
X4166Y154183D01*
Y153350D01*
X3750Y152933D01*
X2500D01*
X3333D02*
X4166Y152100D01*
X4999D02*
X5832D01*
X5416D01*
Y154599D01*
X4999Y154183D01*
X7082Y154599D02*
X8748D01*
Y154183D01*
X7082Y152516D01*
Y152100D01*
X25666Y148083D02*
X25250Y148499D01*
X24417D01*
X24000Y148083D01*
Y146416D01*
X24417Y146000D01*
X25250D01*
X25666Y146416D01*
X26499Y148083D02*
X26916Y148499D01*
X27749D01*
X28165Y148083D01*
Y147666D01*
X27749Y147250D01*
X27332D01*
X27749D01*
X28165Y146833D01*
Y146416D01*
X27749Y146000D01*
X26916D01*
X26499Y146416D01*
X28998Y146000D02*
X29831D01*
X29415D01*
Y148499D01*
X28998Y148083D01*
X74000Y114999D02*
Y112917D01*
X74417Y112500D01*
X75250D01*
X75666Y112917D01*
Y114999D01*
X78165D02*
X76499D01*
Y113750D01*
X77332Y114166D01*
X77749D01*
X78165Y113750D01*
Y112917D01*
X77749Y112500D01*
X76916D01*
X76499Y112917D01*
X179500Y135499D02*
Y133416D01*
X179917Y133000D01*
X180750D01*
X181166Y133416D01*
Y135499D01*
X183249Y133000D02*
Y135499D01*
X181999Y134250D01*
X183665D01*
X92350Y124500D02*
Y126999D01*
X93600D01*
X94016Y126583D01*
Y125750D01*
X93600Y125333D01*
X92350D01*
X93183D02*
X94016Y124500D01*
X94850D02*
X95683D01*
X95266D01*
Y126999D01*
X94850Y126583D01*
X98598Y126999D02*
X97765Y126583D01*
X96932Y125750D01*
Y124917D01*
X97349Y124500D01*
X98182D01*
X98598Y124917D01*
Y125333D01*
X98182Y125750D01*
X96932D01*
X116316Y124500D02*
Y126999D01*
X117566D01*
X117982Y126583D01*
Y125750D01*
X117566Y125333D01*
X116316D01*
X117149D02*
X117982Y124500D01*
X118815D02*
X119649D01*
X119232D01*
Y126999D01*
X118815Y126583D01*
X122564Y126999D02*
X120898D01*
Y125750D01*
X121731Y126166D01*
X122148D01*
X122564Y125750D01*
Y124917D01*
X122148Y124500D01*
X121315D01*
X120898Y124917D01*
X46500Y117000D02*
Y119499D01*
X47750D01*
X48166Y119083D01*
Y118250D01*
X47750Y117833D01*
X46500D01*
X47333D02*
X48166Y117000D01*
X48999D02*
X49832D01*
X49416D01*
Y119499D01*
X48999Y119083D01*
X52748Y117000D02*
X51082D01*
X52748Y118666D01*
Y119083D01*
X52331Y119499D01*
X51498D01*
X51082Y119083D01*
X171000Y149970D02*
Y152469D01*
X172250D01*
X172666Y152052D01*
Y151219D01*
X172250Y150803D01*
X171000D01*
X171833D02*
X172666Y149970D01*
X173499D02*
X174332D01*
X173916D01*
Y152469D01*
X173499Y152052D01*
X175582D02*
X175998Y152469D01*
X176831D01*
X177248Y152052D01*
Y150386D01*
X176831Y149970D01*
X175998D01*
X175582Y150386D01*
Y152052D01*
X195000Y143500D02*
Y145999D01*
X196250D01*
X196666Y145583D01*
Y144750D01*
X196250Y144333D01*
X195000D01*
X195833D02*
X196666Y143500D01*
X197499Y145583D02*
X197916Y145999D01*
X198749D01*
X199165Y145583D01*
Y145166D01*
X198749Y144750D01*
X199165Y144333D01*
Y143916D01*
X198749Y143500D01*
X197916D01*
X197499Y143916D01*
Y144333D01*
X197916Y144750D01*
X197499Y145166D01*
Y145583D01*
X197916Y144750D02*
X198749D01*
X125000Y11500D02*
Y13999D01*
X126250D01*
X126666Y13583D01*
Y12750D01*
X126250Y12333D01*
X125000D01*
X125833D02*
X126666Y11500D01*
X129165Y13999D02*
X128332Y13583D01*
X127499Y12750D01*
Y11917D01*
X127916Y11500D01*
X128749D01*
X129165Y11917D01*
Y12333D01*
X128749Y12750D01*
X127499D01*
X155500Y28500D02*
Y30999D01*
X156750D01*
X157166Y30583D01*
Y29750D01*
X156750Y29333D01*
X155500D01*
X156333D02*
X157166Y28500D01*
X159665Y30999D02*
X157999D01*
Y29750D01*
X158832Y30166D01*
X159249D01*
X159665Y29750D01*
Y28916D01*
X159249Y28500D01*
X158416D01*
X157999Y28916D01*
X137500Y11500D02*
Y13999D01*
X138750D01*
X139166Y13583D01*
Y12750D01*
X138750Y12333D01*
X137500D01*
X138333D02*
X139166Y11500D01*
X139999D02*
X140832D01*
X140416D01*
Y13999D01*
X139999Y13583D01*
X48000Y65000D02*
Y67499D01*
X49250D01*
X49666Y67083D01*
Y66250D01*
X49250Y65833D01*
X48000D01*
X50499Y65417D02*
X50916Y65000D01*
X51749D01*
X52165Y65417D01*
Y67083D01*
X51749Y67499D01*
X50916D01*
X50499Y67083D01*
Y66666D01*
X50916Y66250D01*
X52165D01*
X2500Y136500D02*
Y138999D01*
X3750D01*
X4166Y138583D01*
Y137750D01*
X3750Y137333D01*
X2500D01*
X4999Y138583D02*
X5416Y138999D01*
X6249D01*
X6665Y138583D01*
Y138166D01*
X6249Y137750D01*
X6665Y137333D01*
Y136916D01*
X6249Y136500D01*
X5416D01*
X4999Y136916D01*
Y137333D01*
X5416Y137750D01*
X4999Y138166D01*
Y138583D01*
X5416Y137750D02*
X6249D01*
X47500Y78000D02*
Y80499D01*
X48750D01*
X49166Y80083D01*
Y79250D01*
X48750Y78833D01*
X47500D01*
X51665Y78000D02*
X49999D01*
X51665Y79666D01*
Y80083D01*
X51249Y80499D01*
X50416D01*
X49999Y80083D01*
X145500Y72500D02*
Y74999D01*
X146750D01*
X147166Y74583D01*
Y73750D01*
X146750Y73333D01*
X145500D01*
X149665Y74999D02*
X147999D01*
Y73750D01*
X148832Y74166D01*
X149249D01*
X149665Y73750D01*
Y72917D01*
X149249Y72500D01*
X148416D01*
X147999Y72917D01*
X145500Y84500D02*
Y86999D01*
X146750D01*
X147166Y86583D01*
Y85750D01*
X146750Y85333D01*
X145500D01*
X149249Y84500D02*
Y86999D01*
X147999Y85750D01*
X149665D01*
X191001Y103915D02*
Y106414D01*
X192250D01*
X192667Y105998D01*
Y105164D01*
X192250Y104748D01*
X191001D01*
X193500Y106414D02*
X195166D01*
Y105998D01*
X193500Y104331D01*
Y103915D01*
X145500Y97890D02*
Y100389D01*
X146750D01*
X147166Y99972D01*
Y99139D01*
X146750Y98723D01*
X145500D01*
X147999Y99972D02*
X148416Y100389D01*
X149249D01*
X149665Y99972D01*
Y99556D01*
X149249Y99139D01*
X148832D01*
X149249D01*
X149665Y98723D01*
Y98306D01*
X149249Y97890D01*
X148416D01*
X147999Y98306D01*
X118000Y25500D02*
Y27999D01*
X119250D01*
X119666Y27583D01*
Y26750D01*
X119250Y26333D01*
X118000D01*
X120499Y25500D02*
X121332D01*
X120916D01*
Y27999D01*
X120499Y27583D01*
X3666Y125999D02*
X2833D01*
X3250D01*
Y123916D01*
X2833Y123500D01*
X2417D01*
X2000Y123916D01*
X4499Y123500D02*
Y125999D01*
X5749D01*
X6165Y125583D01*
Y124750D01*
X5749Y124333D01*
X4499D01*
X8664Y123500D02*
X6998D01*
X8664Y125166D01*
Y125583D01*
X8248Y125999D01*
X7415D01*
X6998Y125583D01*
X156166Y47999D02*
X155333D01*
X155750D01*
Y45917D01*
X155333Y45500D01*
X154917D01*
X154500Y45917D01*
X156999Y45500D02*
Y47999D01*
X158249D01*
X158665Y47583D01*
Y46750D01*
X158249Y46333D01*
X156999D01*
X159498Y45500D02*
X160331D01*
X159915D01*
Y47999D01*
X159498Y47583D01*
X119558Y7499D02*
Y5000D01*
X120807D01*
X121224Y5416D01*
Y7083D01*
X120807Y7499D01*
X119558D01*
X122057Y5000D02*
X122890D01*
X122474D01*
Y7499D01*
X122057Y7083D01*
X63166Y89984D02*
X62750Y90401D01*
X61917D01*
X61500Y89984D01*
Y88318D01*
X61917Y87902D01*
X62750D01*
X63166Y88318D01*
X65665Y87902D02*
X63999D01*
X65665Y89568D01*
Y89984D01*
X65249Y90401D01*
X64416D01*
X63999Y89984D01*
X68164Y90401D02*
X66498D01*
Y89151D01*
X67331Y89568D01*
X67748D01*
X68164Y89151D01*
Y88318D01*
X67748Y87902D01*
X66915D01*
X66498Y88318D01*
X169666Y119083D02*
X169250Y119499D01*
X168417D01*
X168000Y119083D01*
Y117417D01*
X168417Y117000D01*
X169250D01*
X169666Y117417D01*
X172165Y117000D02*
X170499D01*
X172165Y118666D01*
Y119083D01*
X171749Y119499D01*
X170916D01*
X170499Y119083D01*
X172998D02*
X173415Y119499D01*
X174248D01*
X174664Y119083D01*
Y118666D01*
X174248Y118250D01*
X173831D01*
X174248D01*
X174664Y117833D01*
Y117417D01*
X174248Y117000D01*
X173415D01*
X172998Y117417D01*
X179666Y145083D02*
X179250Y145499D01*
X178417D01*
X178000Y145083D01*
Y143417D01*
X178417Y143000D01*
X179250D01*
X179666Y143417D01*
X182165Y143000D02*
X180499D01*
X182165Y144666D01*
Y145083D01*
X181749Y145499D01*
X180916D01*
X180499Y145083D01*
X184664Y143000D02*
X182998D01*
X184664Y144666D01*
Y145083D01*
X184248Y145499D01*
X183415D01*
X182998Y145083D01*
X189666Y147083D02*
X189250Y147499D01*
X188417D01*
X188000Y147083D01*
Y145416D01*
X188417Y145000D01*
X189250D01*
X189666Y145416D01*
X192165Y145000D02*
X190499D01*
X192165Y146666D01*
Y147083D01*
X191749Y147499D01*
X190916D01*
X190499Y147083D01*
X192998Y145000D02*
X193831D01*
X193415D01*
Y147499D01*
X192998Y147083D01*
X202166Y140583D02*
X201750Y140999D01*
X200917D01*
X200500Y140583D01*
Y138917D01*
X200917Y138500D01*
X201750D01*
X202166Y138917D01*
X204665Y138500D02*
X202999D01*
X204665Y140166D01*
Y140583D01*
X204249Y140999D01*
X203416D01*
X202999Y140583D01*
X205498D02*
X205915Y140999D01*
X206748D01*
X207165Y140583D01*
Y138917D01*
X206748Y138500D01*
X205915D01*
X205498Y138917D01*
Y140583D01*
D11*
X31395Y148999D02*
X34395D01*
X182501Y149926D02*
Y152926D01*
X195074Y151501D02*
X198074D01*
X127001Y14926D02*
Y17926D01*
X157499Y24074D02*
Y27074D01*
X164074Y53256D02*
X167074D01*
X138999Y15074D02*
Y18074D01*
X49501Y113426D02*
Y116426D01*
X203500Y136501D02*
X203501Y137485D01*
X176015Y118501D02*
X176999Y118500D01*
X191001Y152031D02*
X191985Y152031D01*
X181499Y146765D02*
X181500Y147749D01*
X201426Y151499D02*
X204426D01*
X57000Y88501D02*
X57001Y89485D01*
X19999Y146515D02*
X20000Y147499D01*
X11426Y150749D02*
X14426D01*
D12*
X16400Y152800D02*
Y155100D01*
X17100Y155800D01*
X22000D01*
X16400Y152800D02*
X17100Y152100D01*
X22000D01*
Y155800D01*
D13*
X129132Y77125D02*
Y81102D01*
X87932Y77125D02*
Y81102D01*
Y39902D02*
X91908D01*
X129132D02*
Y43878D01*
X125155Y81102D02*
X129132D01*
X87932D02*
X91908D01*
X87932Y39902D02*
Y43878D01*
X125155Y39902D02*
X129132D01*
X97406Y-8599D02*
X99405D01*
X98406D01*
Y-2601D01*
X97406Y-3601D01*
X102404Y-2601D02*
X106403D01*
Y-3601D01*
X102404Y-7599D01*
Y-8599D01*
X112401D02*
X108403D01*
X112401Y-4600D01*
Y-3601D01*
X111402Y-2601D01*
X109402D01*
X108403Y-3601D01*
X114401D02*
X115400Y-2601D01*
X117400D01*
X118399Y-3601D01*
Y-7599D01*
X117400Y-8599D01*
X115400D01*
X114401Y-7599D01*
Y-3601D01*
X120399Y-8599D02*
Y-7599D01*
X121398D01*
Y-8599D01*
X120399D01*
X125397Y-3601D02*
X126397Y-2601D01*
X128396D01*
X129396Y-3601D01*
Y-7599D01*
X128396Y-8599D01*
X126397D01*
X125397Y-7599D01*
Y-3601D01*
X131395D02*
X132395Y-2601D01*
X134394D01*
X135394Y-3601D01*
Y-7599D01*
X134394Y-8599D01*
X132395D01*
X131395Y-7599D01*
Y-3601D01*
X97403Y200399D02*
X93404D01*
Y197400D01*
X95403Y198400D01*
X96403D01*
X97403Y197400D01*
Y195401D01*
X96403Y194401D01*
X94404D01*
X93404Y195401D01*
X102401Y194401D02*
Y200399D01*
X99402Y197400D01*
X103401D01*
X105400Y194401D02*
Y195401D01*
X106400D01*
Y194401D01*
X105400D01*
X114397Y200399D02*
X112398Y199399D01*
X110398Y197400D01*
Y195401D01*
X111398Y194401D01*
X113398D01*
X114397Y195401D01*
Y196400D01*
X113398Y197400D01*
X110398D01*
X116397Y194401D02*
X118396D01*
X117396D01*
Y200399D01*
X116397Y199399D01*
X228099Y74403D02*
X222101D01*
X225100Y71404D01*
Y75403D01*
X228099Y80401D02*
X222101D01*
X225100Y77402D01*
Y81401D01*
X228099Y83400D02*
X227099D01*
Y84400D01*
X228099D01*
Y83400D01*
Y92398D02*
Y88399D01*
X224100Y92398D01*
X223101D01*
X222101Y91398D01*
Y89398D01*
X223101Y88399D01*
Y94397D02*
X222101Y95397D01*
Y97396D01*
X223101Y98396D01*
X227099D01*
X228099Y97396D01*
Y95397D01*
X227099Y94397D01*
X223101D01*
D14*
X122500Y21000D02*
Y31000D01*
X152500D01*
Y21000D02*
Y31000D01*
X122500Y21000D02*
X152500D01*
X31468Y2705D02*
Y4870D01*
X11272Y2705D02*
Y4870D01*
Y2705D02*
X31468D01*
X11272Y101130D02*
Y103295D01*
X31468Y101130D02*
Y103295D01*
X11272D02*
X31468D01*
X203468Y2596D02*
Y4761D01*
X183272Y2596D02*
Y4761D01*
Y2596D02*
X203468D01*
X183272Y101021D02*
Y103187D01*
X203468Y101021D02*
Y103187D01*
X183272D02*
X203468D01*
X151000Y104500D02*
X171000D01*
X151000Y94500D02*
Y104500D01*
Y94500D02*
X171000D01*
Y104500D01*
X53500Y61500D02*
X73500D01*
Y71500D01*
X53500D02*
X73500D01*
X53500Y61500D02*
Y71500D01*
X151000Y68000D02*
X171000D01*
Y78000D01*
X151000D02*
X171000D01*
X151000Y68000D02*
Y78000D01*
Y81187D02*
X171000D01*
Y91187D01*
X151000D02*
X171000D01*
X151000Y81187D02*
Y91187D01*
X208000Y167000D02*
Y172000D01*
X8000D02*
X208000D01*
X8000Y167000D02*
Y172000D01*
X204667D02*
Y185333D01*
X203000Y187000D02*
X204667Y185333D01*
X201333D02*
X203000Y187000D01*
X201333Y172000D02*
Y185333D01*
X194667Y172000D02*
Y185333D01*
X193000Y187000D02*
X194667Y185333D01*
X191333D02*
X193000Y187000D01*
X191333Y172000D02*
Y185333D01*
X184667Y172000D02*
Y185333D01*
X183000Y187000D02*
X184667Y185333D01*
X181333D02*
X183000Y187000D01*
X181333Y172000D02*
Y185333D01*
X174667Y172000D02*
Y185333D01*
X173000Y187000D02*
X174667Y185333D01*
X171333D02*
X173000Y187000D01*
X171333Y172000D02*
Y185333D01*
X164667Y172000D02*
Y185333D01*
X163000Y187000D02*
X164667Y185333D01*
X161333D02*
X163000Y187000D01*
X161333Y172000D02*
Y185333D01*
X154667Y172000D02*
Y185333D01*
X153000Y187000D02*
X154667Y185333D01*
X151333D02*
X153000Y187000D01*
X151333Y172000D02*
Y185333D01*
X144667Y172000D02*
Y185333D01*
X143000Y187000D02*
X144667Y185333D01*
X141333D02*
X143000Y187000D01*
X141333Y172000D02*
Y185333D01*
X134667Y172000D02*
Y185333D01*
X133000Y187000D02*
X134667Y185333D01*
X131333D02*
X133000Y187000D01*
X131333Y172000D02*
Y185333D01*
X124667Y172000D02*
Y185333D01*
X123000Y187000D02*
X124667Y185333D01*
X121333D02*
X123000Y187000D01*
X121333Y172000D02*
Y185333D01*
X114667Y172000D02*
Y185333D01*
X113000Y187000D02*
X114667Y185333D01*
X111333D02*
X113000Y187000D01*
X111333Y172000D02*
Y185333D01*
X104667Y172000D02*
Y185333D01*
X103000Y187000D02*
X104667Y185333D01*
X101333D02*
X103000Y187000D01*
X101333Y172000D02*
Y185333D01*
X94667Y172000D02*
Y185333D01*
X93000Y187000D02*
X94667Y185333D01*
X91333D02*
X93000Y187000D01*
X91333Y172000D02*
Y185333D01*
X84667Y172000D02*
Y185333D01*
X83000Y187000D02*
X84667Y185333D01*
X81333D02*
X83000Y187000D01*
X81333Y172000D02*
Y185333D01*
X74667Y172000D02*
Y185333D01*
X73000Y187000D02*
X74667Y185333D01*
X71333D02*
X73000Y187000D01*
X71333Y172000D02*
Y185333D01*
X64667Y172000D02*
Y185333D01*
X63000Y187000D02*
X64667Y185333D01*
X61333D02*
X63000Y187000D01*
X61333Y172000D02*
Y185333D01*
X54667Y172000D02*
Y185333D01*
X53000Y187000D02*
X54667Y185333D01*
X51333D02*
X53000Y187000D01*
X51333Y172000D02*
Y185333D01*
X44667Y172000D02*
Y185333D01*
X43000Y187000D02*
X44667Y185333D01*
X41333D02*
X43000Y187000D01*
X41333Y172000D02*
Y185333D01*
X34667Y172000D02*
Y185333D01*
X33000Y187000D02*
X34667Y185333D01*
X31333D02*
X33000Y187000D01*
X31333Y172000D02*
Y185333D01*
X24667Y172000D02*
Y185333D01*
X23000Y187000D02*
X24667Y185333D01*
X21333D02*
X23000Y187000D01*
X21333Y172000D02*
Y185333D01*
X14667Y172000D02*
Y185333D01*
X13000Y187000D02*
X14667Y185333D01*
X11333D02*
X13000Y187000D01*
X11333Y172000D02*
Y185333D01*
X200500Y167000D02*
X208000D01*
X8000D02*
X200500D01*
X10000Y143000D02*
X30000D01*
X10000Y133000D02*
Y143000D01*
Y133000D02*
X30000D01*
Y143000D01*
X10000Y120500D02*
Y130500D01*
X40000D01*
Y120500D02*
Y130500D01*
X10000Y120500D02*
X40000D01*
X53500Y75500D02*
X73500D01*
Y85500D01*
X53500D02*
X73500D01*
X53500Y75500D02*
Y85500D01*
X141000Y44000D02*
X161000D01*
X141000Y34000D02*
Y44000D01*
Y34000D02*
X161000D01*
Y44000D01*
D15*
X55350Y141496D02*
Y129500D01*
X61348D01*
X63347Y131499D01*
Y133499D01*
X61348Y135498D01*
X55350D01*
X61348D01*
X63347Y137497D01*
Y139497D01*
X61348Y141496D01*
X55350D01*
X75344D02*
X67346D01*
Y129500D01*
X75344D01*
X67346Y135498D02*
X71345D01*
X79342Y129500D02*
Y137497D01*
X83341Y141496D01*
X87340Y137497D01*
Y129500D01*
Y135498D01*
X79342D01*
X91338Y141496D02*
X99336D01*
X95337D01*
Y129500D01*
X111332Y139497D02*
X109333Y141496D01*
X105334D01*
X103334Y139497D01*
Y137497D01*
X105334Y135498D01*
X109333D01*
X111332Y133499D01*
Y131499D01*
X109333Y129500D01*
X105334D01*
X103334Y131499D01*
X115331Y135498D02*
X123328D01*
X127327Y129500D02*
Y137497D01*
X131325Y141496D01*
X135324Y137497D01*
Y129500D01*
Y135498D01*
X127327D01*
X139323Y141496D02*
Y129500D01*
X145321D01*
X147320Y131499D01*
Y139497D01*
X145321Y141496D01*
X139323D01*
X159316Y139497D02*
X157317Y141496D01*
X153318D01*
X151319Y139497D01*
Y131499D01*
X153318Y129500D01*
X157317D01*
X159316Y131499D01*
D16*
X1917Y6166D02*
X1501Y5750D01*
Y4916D01*
X1917Y4500D01*
X3584D01*
X4000Y4916D01*
Y5750D01*
X3584Y6166D01*
X1501Y6999D02*
X4000D01*
Y8665D01*
X1501Y9498D02*
X4000D01*
X3167D01*
X1501Y11164D01*
X2750Y9915D01*
X4000Y11164D01*
X162000Y66254D02*
Y63754D01*
X163250D01*
X163666Y64171D01*
Y64587D01*
X163250Y65004D01*
X162000D01*
X163250D01*
X163666Y65421D01*
Y65837D01*
X163250Y66254D01*
X162000D01*
X164499D02*
X165332D01*
X164916D01*
Y63754D01*
X164499D01*
X165332D01*
X166582D02*
Y65421D01*
X167415Y66254D01*
X168248Y65421D01*
Y63754D01*
Y65004D01*
X166582D01*
X170747Y65837D02*
X170331Y66254D01*
X169498D01*
X169081Y65837D01*
Y65421D01*
X169498Y65004D01*
X170331D01*
X170747Y64587D01*
Y64171D01*
X170331Y63754D01*
X169498D01*
X169081Y64171D01*
X171997Y66670D02*
Y65837D01*
X171580Y65421D01*
X163500Y106000D02*
Y108499D01*
X164750D01*
X165166Y108083D01*
Y107250D01*
X164750Y106833D01*
X163500D01*
X164333D02*
X165166Y106000D01*
X167665Y108499D02*
X165999D01*
Y106000D01*
X167665D01*
X165999Y107250D02*
X166832D01*
X170165Y108499D02*
X168498D01*
Y107250D01*
X169331D01*
X168498D01*
Y106000D01*
X171414Y108916D02*
Y108083D01*
X170998Y107666D01*
X41916Y56500D02*
Y58999D01*
X42750D02*
Y56500D01*
X41500Y58166D02*
X42750D01*
X43166D01*
X41500Y57333D02*
X43166D01*
X43999Y56500D02*
Y58999D01*
X45249D01*
X45665Y58583D01*
Y57750D01*
X45249Y57333D01*
X43999D01*
X46498Y58999D02*
Y56500D01*
X47331Y57333D01*
X48164Y56500D01*
Y58999D01*
X48998D02*
Y56500D01*
X50247D01*
X50664Y56916D01*
Y58583D01*
X50247Y58999D01*
X48998D01*
X51497Y56500D02*
Y58999D01*
X53163Y56500D01*
Y58999D01*
X1916Y104000D02*
Y106499D01*
X2750D02*
Y104000D01*
X1500Y105666D02*
X2750D01*
X3166D01*
X1500Y104833D02*
X3166D01*
X3999Y106499D02*
Y104000D01*
X5249D01*
X5665Y104417D01*
Y106083D01*
X5249Y106499D01*
X3999D01*
X6498Y104000D02*
Y106499D01*
X7748D01*
X8164Y106083D01*
Y105250D01*
X7748Y104833D01*
X6498D01*
X7331D02*
X8164Y104000D01*
X8998Y106499D02*
Y104000D01*
X10247D01*
X10664Y104417D01*
Y106083D01*
X10247Y106499D01*
X8998D01*
X11497D02*
Y106083D01*
X12330Y105250D01*
X13163Y106083D01*
Y106499D01*
X12330Y105250D02*
Y104000D01*
X1001Y64543D02*
X3500D01*
Y65793D01*
X3084Y66209D01*
X1417D01*
X1001Y65793D01*
Y64543D01*
Y67042D02*
Y67875D01*
Y67459D01*
X3500D01*
Y67042D01*
Y67875D01*
Y69125D02*
X1001D01*
X3500Y70791D01*
X1001D01*
Y55500D02*
X3500D01*
Y56750D01*
X3084Y57166D01*
X1417D01*
X1001Y56750D01*
Y55500D01*
X1417Y59665D02*
X1001Y59249D01*
Y58416D01*
X1417Y57999D01*
X1834D01*
X2250Y58416D01*
Y59249D01*
X2667Y59665D01*
X3084D01*
X3500Y59249D01*
Y58416D01*
X3084Y57999D01*
X1001Y60498D02*
X1417D01*
X2250Y61331D01*
X1417Y62164D01*
X1001D01*
X2250Y61331D02*
X3500D01*
X1417Y45166D02*
X1001Y44750D01*
Y43916D01*
X1417Y43500D01*
X1834D01*
X2250Y43916D01*
Y44750D01*
X2667Y45166D01*
X3084D01*
X3500Y44750D01*
Y43916D01*
X3084Y43500D01*
X1417Y47665D02*
X1001Y47249D01*
Y46416D01*
X1417Y45999D01*
X3084D01*
X3500Y46416D01*
Y47249D01*
X3084Y47665D01*
X1001Y48498D02*
X3500D01*
Y50165D01*
X1001Y50998D02*
X3500D01*
X2667D01*
X1001Y52664D01*
X2250Y51414D01*
X3500Y52664D01*
Y34916D02*
X1001D01*
Y35750D02*
X3500D01*
X1834Y34500D02*
Y35750D01*
Y36166D01*
X2667Y34500D02*
Y36166D01*
X1417Y38665D02*
X1001Y38249D01*
Y37416D01*
X1417Y36999D01*
X3084D01*
X3500Y37416D01*
Y38249D01*
X3084Y38665D01*
X1417Y41164D02*
X1001Y40748D01*
Y39915D01*
X1417Y39498D01*
X1834D01*
X2250Y39915D01*
Y40748D01*
X2667Y41164D01*
X3084D01*
X3500Y40748D01*
Y39915D01*
X3084Y39498D01*
X41916Y37000D02*
Y39499D01*
X42750D02*
Y37000D01*
X41500Y38666D02*
X42750D01*
X43166D01*
X41500Y37833D02*
X43166D01*
X43999Y37000D02*
Y39499D01*
X45249D01*
X45665Y39083D01*
Y38250D01*
X45249Y37833D01*
X43999D01*
X44832D02*
X45665Y37000D01*
X48164Y39499D02*
X46498D01*
Y37000D01*
X48164D01*
X46498Y38250D02*
X47331D01*
X50664Y39083D02*
X50247Y39499D01*
X49414D01*
X48998Y39083D01*
Y38666D01*
X49414Y38250D01*
X50247D01*
X50664Y37833D01*
Y37416D01*
X50247Y37000D01*
X49414D01*
X48998Y37416D01*
X53163Y39499D02*
X51497D01*
Y37000D01*
X53163D01*
X51497Y38250D02*
X52330D01*
X53996Y39499D02*
X55662D01*
X54829D01*
Y37000D01*
X41500Y48999D02*
Y46500D01*
X42750D01*
X43166Y46916D01*
Y48583D01*
X42750Y48999D01*
X41500D01*
X43999D02*
Y47333D01*
X44832Y46500D01*
X45665Y47333D01*
Y48999D01*
X46498D02*
Y46500D01*
X47748D01*
X48164Y46916D01*
Y48583D01*
X47748Y48999D01*
X46498D01*
X48998D02*
Y46500D01*
X50247D01*
X50664Y46916D01*
Y48583D01*
X50247Y48999D01*
X48998D01*
M02*
