G04*
G04 #@! TF.GenerationSoftware,Altium Limited,Altium Designer,19.0.10 (269)*
G04*
G04 Layer_Physical_Order=4*
G04 Layer_Color=16711680*
%FSLAX25Y25*%
%MOIN*%
G70*
G01*
G75*
%ADD10C,0.01000*%
%ADD17R,0.03500X0.03500*%
%ADD18R,0.03500X0.03500*%
%ADD25R,0.02362X0.01968*%
%ADD26R,0.01968X0.02362*%
%ADD41C,0.02000*%
%ADD42C,0.05906*%
%ADD43R,0.05906X0.05906*%
%ADD44C,0.02800*%
%ADD45C,0.01600*%
%ADD50R,0.07480X0.04016*%
%ADD51R,0.03350X0.01400*%
%ADD52R,0.10236X0.04331*%
%ADD53R,0.01575X0.03937*%
G36*
X41200Y102511D02*
X41000Y102300D01*
Y86018D01*
X37461D01*
Y87500D01*
X27542D01*
X27518Y87490D01*
X26071Y88937D01*
X25641Y89225D01*
X25134Y89325D01*
X14820D01*
Y90808D01*
X5739D01*
Y85192D01*
X14820D01*
Y86674D01*
X24585D01*
X27505Y83755D01*
X27935Y83468D01*
X28442Y83367D01*
X41000D01*
Y65868D01*
X37461D01*
Y67500D01*
X32721D01*
X27980D01*
Y65868D01*
X24006D01*
X20937Y68937D01*
X20507Y69225D01*
X20000Y69326D01*
X14820D01*
Y70808D01*
X5739D01*
Y65192D01*
X14820D01*
Y66675D01*
X19451D01*
X22520Y63606D01*
X22950Y63318D01*
X23457Y63217D01*
X40681D01*
X41000Y62899D01*
Y59325D01*
X37261D01*
Y60808D01*
X28180D01*
Y55968D01*
X23364D01*
X20394Y58937D01*
X19964Y59225D01*
X19457Y59325D01*
X14820D01*
Y60808D01*
X5739D01*
Y55192D01*
X14820D01*
Y56674D01*
X18908D01*
X21878Y53705D01*
X22308Y53418D01*
X22815Y53317D01*
X42034D01*
X42083Y52817D01*
X41876Y52776D01*
X41346Y52422D01*
X40993Y51893D01*
X40869Y51269D01*
X40993Y50644D01*
X41175Y50372D01*
Y46046D01*
X41151Y46018D01*
X37261D01*
Y50808D01*
X28180D01*
Y46018D01*
X20248D01*
X17328Y48937D01*
X16898Y49225D01*
X16391Y49325D01*
X14820D01*
Y50808D01*
X5739D01*
Y45192D01*
X14820D01*
Y46674D01*
X15842D01*
X18762Y43755D01*
X19192Y43468D01*
X19699Y43367D01*
X40759D01*
X41675Y42451D01*
Y38083D01*
X41175Y37876D01*
X40113Y38937D01*
X39683Y39225D01*
X39176Y39325D01*
X37261D01*
Y40808D01*
X28180D01*
Y35192D01*
X37000D01*
Y33325D01*
X22049D01*
X16437Y38937D01*
X16007Y39225D01*
X15500Y39325D01*
X14820D01*
Y40808D01*
X5739D01*
Y35192D01*
X14820D01*
Y36099D01*
X15320Y36306D01*
X20563Y31063D01*
X20993Y30775D01*
X21500Y30674D01*
X28180D01*
Y25192D01*
X37000D01*
Y20808D01*
X28180D01*
Y15192D01*
X37000D01*
Y12633D01*
X20308D01*
X19801Y12532D01*
X19371Y12245D01*
X16451Y9325D01*
X14820D01*
Y10808D01*
X5739D01*
Y5192D01*
X14820D01*
Y6674D01*
X17000D01*
X17507Y6775D01*
X17937Y7063D01*
X20857Y9982D01*
X28180D01*
Y5192D01*
X37000D01*
Y4000D01*
X119732D01*
Y37000D01*
X93124D01*
X92734Y37261D01*
X91798Y37447D01*
X90861Y37261D01*
X90471Y37000D01*
X77190D01*
X77180Y37053D01*
X76782Y37648D01*
X75835Y38595D01*
Y41607D01*
X75784Y41863D01*
Y43000D01*
X88000D01*
Y40000D01*
X129000D01*
Y43000D01*
X131000D01*
Y43500D01*
X140118Y52618D01*
X174000D01*
X174000Y-0D01*
X0Y0D01*
Y109500D01*
X34211D01*
X41200Y102511D01*
D02*
G37*
G36*
X213500Y173500D02*
X213500Y-0D01*
X175000Y0D01*
Y53000D01*
X174500Y53500D01*
X140532Y53498D01*
X140143Y53998D01*
X140243Y54500D01*
X140072Y55358D01*
X139586Y56086D01*
X138858Y56572D01*
X138000Y56743D01*
X137142Y56572D01*
X136414Y56086D01*
X135928Y55358D01*
X135757Y54500D01*
X135928Y53642D01*
X136414Y52914D01*
X137142Y52428D01*
X137875Y52282D01*
X138107Y51807D01*
X130300Y44000D01*
X129000D01*
Y77675D01*
X135500D01*
X136007Y77775D01*
X136437Y78063D01*
X154122Y95747D01*
X159753D01*
Y103253D01*
X152247D01*
Y97622D01*
X134951Y80326D01*
X129000D01*
Y80485D01*
X128835Y80650D01*
X88000Y80808D01*
Y80326D01*
X86396D01*
X86124Y80507D01*
X85500Y80631D01*
X84876Y80507D01*
X84604Y80326D01*
X72253D01*
Y84253D01*
X64747D01*
Y76747D01*
X72253D01*
Y77675D01*
X84604D01*
X84876Y77493D01*
X85500Y77369D01*
X86124Y77493D01*
X86396Y77675D01*
X88000D01*
Y44000D01*
X81978D01*
X81827Y44500D01*
X82230Y44770D01*
X82761Y45564D01*
X82848Y46000D01*
X78152D01*
X78239Y45564D01*
X78770Y44770D01*
X79173Y44500D01*
X79022Y44000D01*
X75784D01*
Y48375D01*
X76108Y48509D01*
X76638Y48862D01*
X76991Y49391D01*
X77116Y50016D01*
X76991Y50640D01*
X76638Y51169D01*
X76108Y51523D01*
X75484Y51647D01*
X74860Y51523D01*
X74331Y51169D01*
X73977Y50640D01*
X73913Y50319D01*
X73063Y49469D01*
X72775Y49039D01*
X72675Y48531D01*
Y48375D01*
X72216D01*
Y44000D01*
X71418D01*
Y49780D01*
X70825D01*
Y52972D01*
X71007Y53243D01*
X71131Y53868D01*
X71007Y54492D01*
X70653Y55021D01*
X70124Y55375D01*
X69500Y55499D01*
X68876Y55375D01*
X68347Y55021D01*
X67993Y54492D01*
X67869Y53868D01*
X67993Y53243D01*
X68174Y52972D01*
Y49780D01*
X59582D01*
Y44000D01*
X57000D01*
Y44326D01*
X53817Y47509D01*
Y74509D01*
X53716Y75016D01*
X53429Y75446D01*
X43245Y85629D01*
X42815Y85917D01*
X42308Y86018D01*
X42000D01*
Y102432D01*
X42016Y102511D01*
X42013Y102522D01*
X42015Y102533D01*
X42000Y102601D01*
Y103000D01*
X34500Y110500D01*
X0D01*
X-0Y173500D01*
X213500Y173500D01*
D02*
G37*
%LPC*%
G36*
X37461Y101008D02*
X33220D01*
Y98500D01*
X37461D01*
Y101008D01*
D02*
G37*
G36*
X32221D02*
X27980D01*
Y98500D01*
X32221D01*
Y101008D01*
D02*
G37*
G36*
X14820Y100808D02*
X5739D01*
Y95192D01*
X14820D01*
Y100808D01*
D02*
G37*
G36*
X37461Y97500D02*
X33220D01*
Y94992D01*
X37461D01*
Y97500D01*
D02*
G37*
G36*
X32221D02*
X27980D01*
Y94992D01*
X32221D01*
Y97500D01*
D02*
G37*
G36*
X37461Y91008D02*
X33220D01*
Y88500D01*
X37461D01*
Y91008D01*
D02*
G37*
G36*
X32221D02*
X27980D01*
Y88500D01*
X32221D01*
Y91008D01*
D02*
G37*
G36*
X37461Y81008D02*
X33220D01*
Y78500D01*
X37461D01*
Y81008D01*
D02*
G37*
G36*
X32221D02*
X27980D01*
Y78500D01*
X32221D01*
Y81008D01*
D02*
G37*
G36*
X14820Y80808D02*
X5739D01*
Y75192D01*
X14820D01*
Y80808D01*
D02*
G37*
G36*
X37461Y77500D02*
X33220D01*
Y74992D01*
X37461D01*
Y77500D01*
D02*
G37*
G36*
X32221D02*
X27980D01*
Y74992D01*
X32221D01*
Y77500D01*
D02*
G37*
G36*
X37461Y71008D02*
X33220D01*
Y68500D01*
X37461D01*
Y71008D01*
D02*
G37*
G36*
X32221D02*
X27980D01*
Y68500D01*
X32221D01*
Y71008D01*
D02*
G37*
G36*
X143331Y50736D02*
Y49500D01*
X144567D01*
X144526Y49702D01*
X144129Y50298D01*
X143533Y50696D01*
X143331Y50736D01*
D02*
G37*
G36*
X142331D02*
X142129Y50696D01*
X141533Y50298D01*
X141135Y49702D01*
X141095Y49500D01*
X142331D01*
Y50736D01*
D02*
G37*
G36*
X144567Y48500D02*
X143331D01*
Y47264D01*
X143533Y47304D01*
X144129Y47702D01*
X144526Y48298D01*
X144567Y48500D01*
D02*
G37*
G36*
X142331D02*
X141095D01*
X141135Y48298D01*
X141533Y47702D01*
X142129Y47304D01*
X142331Y47264D01*
Y48500D01*
D02*
G37*
G36*
X166000Y48236D02*
Y47000D01*
X167236D01*
X167196Y47202D01*
X166798Y47798D01*
X166202Y48196D01*
X166000Y48236D01*
D02*
G37*
G36*
X165000D02*
X164798Y48196D01*
X164202Y47798D01*
X163804Y47202D01*
X163764Y47000D01*
X165000D01*
Y48236D01*
D02*
G37*
G36*
X167236Y46000D02*
X166000D01*
Y44764D01*
X166202Y44804D01*
X166798Y45202D01*
X167196Y45798D01*
X167236Y46000D01*
D02*
G37*
G36*
X165000D02*
X163764D01*
X163804Y45798D01*
X164202Y45202D01*
X164798Y44804D01*
X165000Y44764D01*
Y46000D01*
D02*
G37*
G36*
X139000Y42236D02*
Y41000D01*
X140236D01*
X140196Y41202D01*
X139798Y41798D01*
X139202Y42196D01*
X139000Y42236D01*
D02*
G37*
G36*
X138000D02*
X137798Y42196D01*
X137202Y41798D01*
X136804Y41202D01*
X136764Y41000D01*
X138000D01*
Y42236D01*
D02*
G37*
G36*
X149953Y42953D02*
X146500D01*
Y39500D01*
X149953D01*
Y42953D01*
D02*
G37*
G36*
X145500D02*
X142047D01*
Y39500D01*
X145500D01*
Y42953D01*
D02*
G37*
G36*
X140236Y40000D02*
X136764D01*
X136804Y39798D01*
X137202Y39202D01*
X137429Y39051D01*
Y38449D01*
X137202Y38298D01*
X136804Y37702D01*
X136764Y37500D01*
X140236D01*
X140196Y37702D01*
X139798Y38298D01*
X139571Y38449D01*
Y39051D01*
X139798Y39202D01*
X140196Y39798D01*
X140236Y40000D01*
D02*
G37*
G36*
Y36500D02*
X139000D01*
Y35264D01*
X139202Y35304D01*
X139798Y35702D01*
X140196Y36298D01*
X140236Y36500D01*
D02*
G37*
G36*
X138000D02*
X136764D01*
X136804Y36298D01*
X137202Y35702D01*
X137798Y35304D01*
X138000Y35264D01*
Y36500D01*
D02*
G37*
G36*
X156000Y42785D02*
X155020Y42656D01*
X154107Y42278D01*
X153323Y41677D01*
X152722Y40893D01*
X152344Y39980D01*
X152215Y39000D01*
X152344Y38020D01*
X152722Y37107D01*
X153323Y36323D01*
X154107Y35722D01*
X155020Y35344D01*
X156000Y35215D01*
X156980Y35344D01*
X157893Y35722D01*
X158677Y36323D01*
X159278Y37107D01*
X159656Y38020D01*
X159785Y39000D01*
X159656Y39980D01*
X159278Y40893D01*
X158677Y41677D01*
X157893Y42278D01*
X156980Y42656D01*
X156000Y42785D01*
D02*
G37*
G36*
X149953Y38500D02*
X146500D01*
Y35047D01*
X149953D01*
Y38500D01*
D02*
G37*
G36*
X145500D02*
X142047D01*
Y35047D01*
X145500D01*
Y38500D01*
D02*
G37*
G36*
X164500Y26980D02*
Y25744D01*
X165736D01*
X165696Y25946D01*
X165298Y26542D01*
X164702Y26939D01*
X164500Y26980D01*
D02*
G37*
G36*
X163500D02*
X163298Y26939D01*
X162702Y26542D01*
X162304Y25946D01*
X162264Y25744D01*
X163500D01*
Y26980D01*
D02*
G37*
G36*
X14820Y30808D02*
X5739D01*
Y25192D01*
X14820D01*
Y30808D01*
D02*
G37*
G36*
X165736Y24744D02*
X164500D01*
Y23508D01*
X164702Y23548D01*
X165298Y23946D01*
X165696Y24542D01*
X165736Y24744D01*
D02*
G37*
G36*
X163500D02*
X162264D01*
X162304Y24542D01*
X162702Y23946D01*
X163298Y23548D01*
X163500Y23508D01*
Y24744D01*
D02*
G37*
G36*
X147500Y29785D02*
X146520Y29656D01*
X145607Y29278D01*
X144824Y28677D01*
X144222Y27893D01*
X143844Y26980D01*
X143715Y26000D01*
X143844Y25020D01*
X144222Y24107D01*
X144824Y23324D01*
X145607Y22722D01*
X146520Y22344D01*
X147500Y22215D01*
X148480Y22344D01*
X149393Y22722D01*
X150177Y23324D01*
X150778Y24107D01*
X151156Y25020D01*
X151285Y26000D01*
X151156Y26980D01*
X150778Y27893D01*
X150177Y28677D01*
X149393Y29278D01*
X148480Y29656D01*
X147500Y29785D01*
D02*
G37*
G36*
X137500D02*
X136520Y29656D01*
X135607Y29278D01*
X134824Y28677D01*
X134222Y27893D01*
X133844Y26980D01*
X133715Y26000D01*
X133844Y25020D01*
X134222Y24107D01*
X134824Y23324D01*
X135607Y22722D01*
X136520Y22344D01*
X137500Y22215D01*
X138480Y22344D01*
X139393Y22722D01*
X140176Y23324D01*
X140778Y24107D01*
X141156Y25020D01*
X141285Y26000D01*
X141156Y26980D01*
X140778Y27893D01*
X140176Y28677D01*
X139393Y29278D01*
X138480Y29656D01*
X137500Y29785D01*
D02*
G37*
G36*
X14820Y20808D02*
X5739D01*
Y15192D01*
X14820D01*
Y20808D01*
D02*
G37*
G36*
X133000Y18131D02*
X132376Y18007D01*
X131846Y17653D01*
X131493Y17124D01*
X131369Y16500D01*
X131493Y15876D01*
X131846Y15347D01*
X132376Y14993D01*
X133000Y14869D01*
X133624Y14993D01*
X134153Y15347D01*
X134507Y15876D01*
X134631Y16500D01*
X134507Y17124D01*
X134153Y17653D01*
X133624Y18007D01*
X133000Y18131D01*
D02*
G37*
G36*
X131253Y29753D02*
X123747D01*
Y22247D01*
X126174D01*
Y9396D01*
X125993Y9124D01*
X125869Y8500D01*
X125993Y7876D01*
X126347Y7346D01*
X126876Y6993D01*
X127500Y6869D01*
X128124Y6993D01*
X128654Y7346D01*
X129007Y7876D01*
X129131Y8500D01*
X129007Y9124D01*
X128825Y9396D01*
Y22247D01*
X131253D01*
Y29753D01*
D02*
G37*
G36*
X206753Y165753D02*
X199247D01*
Y158247D01*
X206753D01*
Y165753D01*
D02*
G37*
G36*
X193000Y165785D02*
X192020Y165656D01*
X191107Y165278D01*
X190323Y164676D01*
X189722Y163893D01*
X189344Y162980D01*
X189215Y162000D01*
X189344Y161020D01*
X189722Y160107D01*
X190323Y159324D01*
X191107Y158722D01*
X192020Y158344D01*
X193000Y158215D01*
X193980Y158344D01*
X194893Y158722D01*
X195677Y159324D01*
X196278Y160107D01*
X196656Y161020D01*
X196785Y162000D01*
X196656Y162980D01*
X196278Y163893D01*
X195677Y164676D01*
X194893Y165278D01*
X193980Y165656D01*
X193000Y165785D01*
D02*
G37*
G36*
X183000D02*
X182020Y165656D01*
X181107Y165278D01*
X180324Y164676D01*
X179722Y163893D01*
X179344Y162980D01*
X179215Y162000D01*
X179344Y161020D01*
X179722Y160107D01*
X180324Y159324D01*
X181107Y158722D01*
X182020Y158344D01*
X183000Y158215D01*
X183980Y158344D01*
X184893Y158722D01*
X185677Y159324D01*
X186278Y160107D01*
X186656Y161020D01*
X186785Y162000D01*
X186656Y162980D01*
X186278Y163893D01*
X185677Y164676D01*
X184893Y165278D01*
X183980Y165656D01*
X183000Y165785D01*
D02*
G37*
G36*
X173000D02*
X172020Y165656D01*
X171107Y165278D01*
X170324Y164676D01*
X169722Y163893D01*
X169344Y162980D01*
X169215Y162000D01*
X169344Y161020D01*
X169722Y160107D01*
X170324Y159324D01*
X171107Y158722D01*
X172020Y158344D01*
X173000Y158215D01*
X173980Y158344D01*
X174893Y158722D01*
X175677Y159324D01*
X176278Y160107D01*
X176656Y161020D01*
X176785Y162000D01*
X176656Y162980D01*
X176278Y163893D01*
X175677Y164676D01*
X174893Y165278D01*
X173980Y165656D01*
X173000Y165785D01*
D02*
G37*
G36*
X163000D02*
X162020Y165656D01*
X161107Y165278D01*
X160324Y164676D01*
X159722Y163893D01*
X159344Y162980D01*
X159215Y162000D01*
X159344Y161020D01*
X159722Y160107D01*
X160324Y159324D01*
X161107Y158722D01*
X162020Y158344D01*
X163000Y158215D01*
X163980Y158344D01*
X164893Y158722D01*
X165676Y159324D01*
X166278Y160107D01*
X166656Y161020D01*
X166785Y162000D01*
X166656Y162980D01*
X166278Y163893D01*
X165676Y164676D01*
X164893Y165278D01*
X163980Y165656D01*
X163000Y165785D01*
D02*
G37*
G36*
X153000D02*
X152020Y165656D01*
X151107Y165278D01*
X150323Y164676D01*
X149722Y163893D01*
X149344Y162980D01*
X149215Y162000D01*
X149344Y161020D01*
X149722Y160107D01*
X150323Y159324D01*
X151107Y158722D01*
X152020Y158344D01*
X153000Y158215D01*
X153980Y158344D01*
X154893Y158722D01*
X155676Y159324D01*
X156278Y160107D01*
X156656Y161020D01*
X156785Y162000D01*
X156656Y162980D01*
X156278Y163893D01*
X155676Y164676D01*
X154893Y165278D01*
X153980Y165656D01*
X153000Y165785D01*
D02*
G37*
G36*
X143000D02*
X142020Y165656D01*
X141107Y165278D01*
X140323Y164676D01*
X139722Y163893D01*
X139344Y162980D01*
X139215Y162000D01*
X139344Y161020D01*
X139722Y160107D01*
X140323Y159324D01*
X141107Y158722D01*
X142020Y158344D01*
X143000Y158215D01*
X143980Y158344D01*
X144893Y158722D01*
X145677Y159324D01*
X146278Y160107D01*
X146656Y161020D01*
X146785Y162000D01*
X146656Y162980D01*
X146278Y163893D01*
X145677Y164676D01*
X144893Y165278D01*
X143980Y165656D01*
X143000Y165785D01*
D02*
G37*
G36*
X133000D02*
X132020Y165656D01*
X131107Y165278D01*
X130324Y164676D01*
X129722Y163893D01*
X129344Y162980D01*
X129215Y162000D01*
X129344Y161020D01*
X129722Y160107D01*
X130324Y159324D01*
X131107Y158722D01*
X132020Y158344D01*
X133000Y158215D01*
X133980Y158344D01*
X134893Y158722D01*
X135677Y159324D01*
X136278Y160107D01*
X136656Y161020D01*
X136785Y162000D01*
X136656Y162980D01*
X136278Y163893D01*
X135677Y164676D01*
X134893Y165278D01*
X133980Y165656D01*
X133000Y165785D01*
D02*
G37*
G36*
X123000D02*
X122020Y165656D01*
X121107Y165278D01*
X120324Y164676D01*
X119722Y163893D01*
X119344Y162980D01*
X119215Y162000D01*
X119344Y161020D01*
X119722Y160107D01*
X120324Y159324D01*
X121107Y158722D01*
X122020Y158344D01*
X123000Y158215D01*
X123980Y158344D01*
X124893Y158722D01*
X125677Y159324D01*
X126278Y160107D01*
X126656Y161020D01*
X126785Y162000D01*
X126656Y162980D01*
X126278Y163893D01*
X125677Y164676D01*
X124893Y165278D01*
X123980Y165656D01*
X123000Y165785D01*
D02*
G37*
G36*
X113000D02*
X112020Y165656D01*
X111107Y165278D01*
X110324Y164676D01*
X109722Y163893D01*
X109344Y162980D01*
X109215Y162000D01*
X109344Y161020D01*
X109722Y160107D01*
X110324Y159324D01*
X111107Y158722D01*
X112020Y158344D01*
X113000Y158215D01*
X113980Y158344D01*
X114893Y158722D01*
X115676Y159324D01*
X116278Y160107D01*
X116656Y161020D01*
X116785Y162000D01*
X116656Y162980D01*
X116278Y163893D01*
X115676Y164676D01*
X114893Y165278D01*
X113980Y165656D01*
X113000Y165785D01*
D02*
G37*
G36*
X103000D02*
X102020Y165656D01*
X101107Y165278D01*
X100323Y164676D01*
X99722Y163893D01*
X99344Y162980D01*
X99215Y162000D01*
X99344Y161020D01*
X99722Y160107D01*
X100323Y159324D01*
X101107Y158722D01*
X102020Y158344D01*
X103000Y158215D01*
X103980Y158344D01*
X104893Y158722D01*
X105676Y159324D01*
X106278Y160107D01*
X106656Y161020D01*
X106785Y162000D01*
X106656Y162980D01*
X106278Y163893D01*
X105676Y164676D01*
X104893Y165278D01*
X103980Y165656D01*
X103000Y165785D01*
D02*
G37*
G36*
X93000D02*
X92020Y165656D01*
X91107Y165278D01*
X90324Y164676D01*
X89722Y163893D01*
X89344Y162980D01*
X89215Y162000D01*
X89344Y161020D01*
X89722Y160107D01*
X90324Y159324D01*
X91107Y158722D01*
X92020Y158344D01*
X93000Y158215D01*
X93980Y158344D01*
X94893Y158722D01*
X95676Y159324D01*
X96278Y160107D01*
X96656Y161020D01*
X96785Y162000D01*
X96656Y162980D01*
X96278Y163893D01*
X95676Y164676D01*
X94893Y165278D01*
X93980Y165656D01*
X93000Y165785D01*
D02*
G37*
G36*
X83000D02*
X82020Y165656D01*
X81107Y165278D01*
X80323Y164676D01*
X79722Y163893D01*
X79344Y162980D01*
X79215Y162000D01*
X79344Y161020D01*
X79722Y160107D01*
X80323Y159324D01*
X81107Y158722D01*
X82020Y158344D01*
X83000Y158215D01*
X83980Y158344D01*
X84893Y158722D01*
X85676Y159324D01*
X86278Y160107D01*
X86656Y161020D01*
X86785Y162000D01*
X86656Y162980D01*
X86278Y163893D01*
X85676Y164676D01*
X84893Y165278D01*
X83980Y165656D01*
X83000Y165785D01*
D02*
G37*
G36*
X73000D02*
X72020Y165656D01*
X71107Y165278D01*
X70323Y164676D01*
X69722Y163893D01*
X69344Y162980D01*
X69215Y162000D01*
X69344Y161020D01*
X69722Y160107D01*
X70323Y159324D01*
X71107Y158722D01*
X72020Y158344D01*
X73000Y158215D01*
X73980Y158344D01*
X74893Y158722D01*
X75677Y159324D01*
X76278Y160107D01*
X76656Y161020D01*
X76785Y162000D01*
X76656Y162980D01*
X76278Y163893D01*
X75677Y164676D01*
X74893Y165278D01*
X73980Y165656D01*
X73000Y165785D01*
D02*
G37*
G36*
X63000D02*
X62020Y165656D01*
X61107Y165278D01*
X60324Y164676D01*
X59722Y163893D01*
X59344Y162980D01*
X59215Y162000D01*
X59344Y161020D01*
X59722Y160107D01*
X60324Y159324D01*
X61107Y158722D01*
X62020Y158344D01*
X63000Y158215D01*
X63980Y158344D01*
X64893Y158722D01*
X65676Y159324D01*
X66278Y160107D01*
X66656Y161020D01*
X66785Y162000D01*
X66656Y162980D01*
X66278Y163893D01*
X65676Y164676D01*
X64893Y165278D01*
X63980Y165656D01*
X63000Y165785D01*
D02*
G37*
G36*
X53000D02*
X52020Y165656D01*
X51107Y165278D01*
X50323Y164676D01*
X49722Y163893D01*
X49344Y162980D01*
X49215Y162000D01*
X49344Y161020D01*
X49722Y160107D01*
X50323Y159324D01*
X51107Y158722D01*
X52020Y158344D01*
X53000Y158215D01*
X53980Y158344D01*
X54893Y158722D01*
X55677Y159324D01*
X56278Y160107D01*
X56656Y161020D01*
X56785Y162000D01*
X56656Y162980D01*
X56278Y163893D01*
X55677Y164676D01*
X54893Y165278D01*
X53980Y165656D01*
X53000Y165785D01*
D02*
G37*
G36*
X43000D02*
X42020Y165656D01*
X41107Y165278D01*
X40323Y164676D01*
X39722Y163893D01*
X39344Y162980D01*
X39215Y162000D01*
X39344Y161020D01*
X39722Y160107D01*
X40323Y159324D01*
X41107Y158722D01*
X42020Y158344D01*
X43000Y158215D01*
X43980Y158344D01*
X44893Y158722D01*
X45676Y159324D01*
X46278Y160107D01*
X46656Y161020D01*
X46785Y162000D01*
X46656Y162980D01*
X46278Y163893D01*
X45676Y164676D01*
X44893Y165278D01*
X43980Y165656D01*
X43000Y165785D01*
D02*
G37*
G36*
X33000D02*
X32020Y165656D01*
X31107Y165278D01*
X30323Y164676D01*
X29722Y163893D01*
X29344Y162980D01*
X29215Y162000D01*
X29344Y161020D01*
X29722Y160107D01*
X30323Y159324D01*
X31107Y158722D01*
X32020Y158344D01*
X33000Y158215D01*
X33980Y158344D01*
X34893Y158722D01*
X35677Y159324D01*
X36278Y160107D01*
X36656Y161020D01*
X36785Y162000D01*
X36656Y162980D01*
X36278Y163893D01*
X35677Y164676D01*
X34893Y165278D01*
X33980Y165656D01*
X33000Y165785D01*
D02*
G37*
G36*
X23000D02*
X22020Y165656D01*
X21107Y165278D01*
X20324Y164676D01*
X19722Y163893D01*
X19344Y162980D01*
X19215Y162000D01*
X19344Y161020D01*
X19722Y160107D01*
X20324Y159324D01*
X21107Y158722D01*
X22020Y158344D01*
X23000Y158215D01*
X23980Y158344D01*
X24893Y158722D01*
X25677Y159324D01*
X26278Y160107D01*
X26656Y161020D01*
X26785Y162000D01*
X26656Y162980D01*
X26278Y163893D01*
X25677Y164676D01*
X24893Y165278D01*
X23980Y165656D01*
X23000Y165785D01*
D02*
G37*
G36*
X13000D02*
X12020Y165656D01*
X11107Y165278D01*
X10323Y164676D01*
X9722Y163893D01*
X9344Y162980D01*
X9215Y162000D01*
X9344Y161020D01*
X9722Y160107D01*
X10323Y159324D01*
X11107Y158722D01*
X12020Y158344D01*
X13000Y158215D01*
X13980Y158344D01*
X14893Y158722D01*
X15676Y159324D01*
X16278Y160107D01*
X16656Y161020D01*
X16785Y162000D01*
X16656Y162980D01*
X16278Y163893D01*
X15676Y164676D01*
X14893Y165278D01*
X13980Y165656D01*
X13000Y165785D01*
D02*
G37*
G36*
X26000Y155848D02*
Y154000D01*
X27848D01*
X27761Y154436D01*
X27230Y155230D01*
X26436Y155761D01*
X26000Y155848D01*
D02*
G37*
G36*
X25000D02*
X24564Y155761D01*
X23770Y155230D01*
X23239Y154436D01*
X23152Y154000D01*
X25000D01*
Y155848D01*
D02*
G37*
G36*
X27848Y153000D02*
X26000D01*
Y151152D01*
X26436Y151239D01*
X27230Y151770D01*
X27761Y152564D01*
X27848Y153000D01*
D02*
G37*
G36*
X25000D02*
X23152D01*
X23239Y152564D01*
X23770Y151770D01*
X24564Y151239D01*
X25000Y151152D01*
Y153000D01*
D02*
G37*
G36*
X103000Y154131D02*
X102636Y154059D01*
X100475D01*
Y149141D01*
X100275D01*
Y147941D01*
X102950D01*
X105625D01*
Y149141D01*
X105425D01*
Y154059D01*
X103364D01*
X103000Y154131D01*
D02*
G37*
G36*
X63000D02*
X62636Y154059D01*
X60525D01*
Y149141D01*
X60325D01*
Y147941D01*
X63000D01*
X65675D01*
Y149141D01*
X65475D01*
Y154059D01*
X63364D01*
X63000Y154131D01*
D02*
G37*
G36*
X161500D02*
X160985Y154029D01*
X159000D01*
Y149111D01*
X158800D01*
Y147911D01*
X161475D01*
X164150D01*
Y149111D01*
X163950D01*
Y154029D01*
X162015D01*
X161500Y154131D01*
D02*
G37*
G36*
X122000D02*
X121485Y154029D01*
X119500D01*
Y149111D01*
X119300D01*
Y147911D01*
X121975D01*
X124650D01*
Y149111D01*
X124450D01*
Y154029D01*
X122515D01*
X122000Y154131D01*
D02*
G37*
G36*
X96475Y154059D02*
X91525D01*
Y151059D01*
Y148500D01*
Y145941D01*
X93636D01*
X94000Y145869D01*
X94364Y145941D01*
X96475D01*
Y148500D01*
Y151059D01*
Y154059D01*
D02*
G37*
G36*
X56525D02*
X51575D01*
Y151059D01*
Y148500D01*
Y145941D01*
X53661D01*
X54025Y145869D01*
X54389Y145941D01*
X56525D01*
Y148500D01*
Y151059D01*
Y154059D01*
D02*
G37*
G36*
X155000Y154029D02*
X150050D01*
Y151029D01*
Y148470D01*
Y145911D01*
X151624D01*
X151876Y145743D01*
X152500Y145619D01*
X153124Y145743D01*
X153376Y145911D01*
X155000D01*
Y148470D01*
Y151029D01*
Y154029D01*
D02*
G37*
G36*
X115500D02*
X110550D01*
Y151029D01*
Y148470D01*
Y145911D01*
X112077D01*
X112329Y145743D01*
X112953Y145619D01*
X113577Y145743D01*
X113829Y145911D01*
X115500D01*
Y148470D01*
Y151029D01*
Y154029D01*
D02*
G37*
G36*
X164150Y146911D02*
X161475D01*
X158800D01*
Y145711D01*
X159726D01*
X159962Y145270D01*
X159739Y144936D01*
X159652Y144500D01*
X164348D01*
X164261Y144936D01*
X163969Y145373D01*
X164150Y145711D01*
X164150D01*
Y146911D01*
D02*
G37*
G36*
X105625Y146941D02*
X102950D01*
X100275D01*
Y145741D01*
X100675D01*
X100943Y145241D01*
X100739Y144936D01*
X100652Y144500D01*
X105348D01*
X105261Y144936D01*
X105057Y145241D01*
X105324Y145741D01*
X105625D01*
Y146941D01*
D02*
G37*
G36*
X65675D02*
X63000D01*
X60325D01*
Y145741D01*
X60676D01*
X60943Y145241D01*
X60739Y144936D01*
X60652Y144500D01*
X65348D01*
X65261Y144936D01*
X65057Y145241D01*
X65324Y145741D01*
X65675D01*
Y146941D01*
D02*
G37*
G36*
X124650Y146911D02*
X121975D01*
X119300D01*
Y145711D01*
X119628D01*
X119714Y145427D01*
X119757Y145211D01*
X119239Y144436D01*
X119152Y144000D01*
X123848D01*
X123761Y144436D01*
X123243Y145211D01*
X123286Y145427D01*
X123372Y145711D01*
X124650D01*
Y146911D01*
D02*
G37*
G36*
X164348Y143500D02*
X162500D01*
Y141652D01*
X162936Y141739D01*
X163730Y142270D01*
X164261Y143064D01*
X164348Y143500D01*
D02*
G37*
G36*
X161500D02*
X159652D01*
X159739Y143064D01*
X160270Y142270D01*
X161064Y141739D01*
X161500Y141652D01*
Y143500D01*
D02*
G37*
G36*
X105348D02*
X103500D01*
Y141652D01*
X103936Y141739D01*
X104730Y142270D01*
X105261Y143064D01*
X105348Y143500D01*
D02*
G37*
G36*
X102500D02*
X100652D01*
X100739Y143064D01*
X101270Y142270D01*
X102064Y141739D01*
X102500Y141652D01*
Y143500D01*
D02*
G37*
G36*
X65348D02*
X63500D01*
Y141652D01*
X63936Y141739D01*
X64730Y142270D01*
X65261Y143064D01*
X65348Y143500D01*
D02*
G37*
G36*
X62500D02*
X60652D01*
X60739Y143064D01*
X61270Y142270D01*
X62064Y141739D01*
X62500Y141652D01*
Y143500D01*
D02*
G37*
G36*
X176000Y147131D02*
X175376Y147007D01*
X174846Y146653D01*
X174493Y146124D01*
X174369Y145500D01*
X174493Y144876D01*
X174846Y144346D01*
X175376Y143993D01*
X175732Y143922D01*
Y141450D01*
X180832D01*
Y143714D01*
X180888Y144000D01*
X180832Y144286D01*
Y146550D01*
X177223D01*
X177154Y146653D01*
X176624Y147007D01*
X176000Y147131D01*
D02*
G37*
G36*
X123848Y143000D02*
X122000D01*
Y141152D01*
X122436Y141239D01*
X123230Y141770D01*
X123761Y142564D01*
X123848Y143000D01*
D02*
G37*
G36*
X121000D02*
X119152D01*
X119239Y142564D01*
X119770Y141770D01*
X120564Y141239D01*
X121000Y141152D01*
Y143000D01*
D02*
G37*
G36*
X197744Y138736D02*
Y137500D01*
X198980D01*
X198940Y137702D01*
X198542Y138298D01*
X197946Y138696D01*
X197744Y138736D01*
D02*
G37*
G36*
X196744D02*
X196542Y138696D01*
X195946Y138298D01*
X195548Y137702D01*
X195508Y137500D01*
X196744D01*
Y138736D01*
D02*
G37*
G36*
X198980Y136500D02*
X197744D01*
Y135264D01*
X197946Y135304D01*
X198542Y135702D01*
X198940Y136298D01*
X198980Y136500D01*
D02*
G37*
G36*
X196744D02*
X195508D01*
X195548Y136298D01*
X195946Y135702D01*
X196542Y135304D01*
X196744Y135264D01*
Y136500D01*
D02*
G37*
G36*
X18753Y141753D02*
X11247D01*
Y134247D01*
X18753D01*
Y141753D01*
D02*
G37*
G36*
X25000Y141785D02*
X24020Y141656D01*
X23107Y141278D01*
X22323Y140676D01*
X21722Y139893D01*
X21344Y138980D01*
X21215Y138000D01*
X21344Y137020D01*
X21722Y136107D01*
X22323Y135324D01*
X23107Y134722D01*
X24020Y134344D01*
X25000Y134215D01*
X25980Y134344D01*
X26893Y134722D01*
X27676Y135324D01*
X28278Y136107D01*
X28656Y137020D01*
X28785Y138000D01*
X28656Y138980D01*
X28278Y139893D01*
X27676Y140676D01*
X26893Y141278D01*
X25980Y141656D01*
X25000Y141785D01*
D02*
G37*
G36*
X204300Y127631D02*
X203676Y127507D01*
X203404Y127325D01*
X200500D01*
X199993Y127225D01*
X199563Y126937D01*
X194063Y121437D01*
X193775Y121007D01*
X193675Y120500D01*
Y111550D01*
X188700D01*
Y106450D01*
X193800D01*
Y107298D01*
X194300Y107543D01*
X194376Y107493D01*
X195000Y107369D01*
X195200Y107408D01*
X195700Y106998D01*
Y106450D01*
X200800D01*
Y111550D01*
X196326D01*
Y119951D01*
X201049Y124674D01*
X203404D01*
X203676Y124493D01*
X204300Y124369D01*
X204924Y124493D01*
X205453Y124846D01*
X205807Y125376D01*
X205931Y126000D01*
X205807Y126624D01*
X205453Y127154D01*
X204924Y127507D01*
X204300Y127631D01*
D02*
G37*
G36*
X187331Y146550D02*
X182231D01*
Y144286D01*
X182175Y144000D01*
X182231Y143714D01*
Y141450D01*
X184176D01*
X191174Y134451D01*
Y126896D01*
X190993Y126624D01*
X190869Y126000D01*
X190993Y125376D01*
X191347Y124846D01*
X191876Y124493D01*
X192500Y124369D01*
X193124Y124493D01*
X193654Y124846D01*
X194007Y125376D01*
X194131Y126000D01*
X194007Y126624D01*
X193825Y126896D01*
Y135000D01*
X193725Y135507D01*
X193437Y135937D01*
X187331Y142043D01*
Y146550D01*
D02*
G37*
G36*
X18753Y129253D02*
X11247D01*
Y121747D01*
X18753D01*
Y129253D01*
D02*
G37*
G36*
X35000Y129285D02*
X34020Y129156D01*
X33107Y128778D01*
X32324Y128176D01*
X31722Y127393D01*
X31344Y126480D01*
X31215Y125500D01*
X31344Y124520D01*
X31722Y123607D01*
X32324Y122824D01*
X33107Y122222D01*
X34020Y121844D01*
X35000Y121715D01*
X35980Y121844D01*
X36893Y122222D01*
X37677Y122824D01*
X38278Y123607D01*
X38656Y124520D01*
X38785Y125500D01*
X38656Y126480D01*
X38278Y127393D01*
X37677Y128176D01*
X36893Y128778D01*
X35980Y129156D01*
X35000Y129285D01*
D02*
G37*
G36*
X178000Y123631D02*
X177376Y123507D01*
X176847Y123153D01*
X176493Y122624D01*
X176369Y122000D01*
X176493Y121376D01*
X176847Y120846D01*
X177376Y120493D01*
X178000Y120369D01*
X178624Y120493D01*
X179154Y120846D01*
X179507Y121376D01*
X179631Y122000D01*
X179507Y122624D01*
X179154Y123153D01*
X178624Y123507D01*
X178000Y123631D01*
D02*
G37*
G36*
X63531Y119236D02*
Y118000D01*
X64767D01*
X64727Y118202D01*
X64329Y118798D01*
X63734Y119196D01*
X63531Y119236D01*
D02*
G37*
G36*
X62531D02*
X62329Y119196D01*
X61734Y118798D01*
X61336Y118202D01*
X61296Y118000D01*
X62531D01*
Y119236D01*
D02*
G37*
G36*
X25000Y129285D02*
X24020Y129156D01*
X23107Y128778D01*
X22323Y128176D01*
X21722Y127393D01*
X21344Y126480D01*
X21215Y125500D01*
X21344Y124520D01*
X21722Y123607D01*
X22323Y122824D01*
X23107Y122222D01*
X24020Y121844D01*
X25000Y121715D01*
X25980Y121844D01*
X26893Y122222D01*
X26932Y122252D01*
X31122Y118063D01*
X31552Y117775D01*
X32059Y117675D01*
X39950D01*
Y116944D01*
X45050D01*
Y122044D01*
X39950D01*
Y120326D01*
X32608D01*
X28585Y124349D01*
X28656Y124520D01*
X28785Y125500D01*
X28656Y126480D01*
X28278Y127393D01*
X27676Y128176D01*
X26893Y128778D01*
X25980Y129156D01*
X25000Y129285D01*
D02*
G37*
G36*
X178000Y115236D02*
Y114000D01*
X179236D01*
X179196Y114202D01*
X178798Y114798D01*
X178202Y115196D01*
X178000Y115236D01*
D02*
G37*
G36*
X177000D02*
X176798Y115196D01*
X176202Y114798D01*
X175804Y114202D01*
X175764Y114000D01*
X177000D01*
Y115236D01*
D02*
G37*
G36*
X179236Y113000D02*
X178000D01*
Y111764D01*
X178202Y111804D01*
X178798Y112202D01*
X179196Y112798D01*
X179236Y113000D01*
D02*
G37*
G36*
X177000D02*
X175764D01*
X175804Y112798D01*
X176202Y112202D01*
X176798Y111804D01*
X177000Y111764D01*
Y113000D01*
D02*
G37*
G36*
X64767Y117000D02*
X61296D01*
X61336Y116798D01*
X61734Y116202D01*
X61760Y116185D01*
X61608Y115685D01*
X60850D01*
Y114201D01*
X63031D01*
Y113701D01*
X63531D01*
Y111717D01*
X65213D01*
Y111917D01*
X68950D01*
Y112665D01*
X71500D01*
X72202Y112804D01*
X72798Y113202D01*
X73196Y113798D01*
X73335Y114500D01*
X73196Y115202D01*
X72798Y115798D01*
X72202Y116196D01*
X71500Y116335D01*
X67500D01*
X66798Y116196D01*
X66202Y115798D01*
X65993Y115485D01*
X65213D01*
Y115685D01*
X64455D01*
X64303Y116185D01*
X64329Y116202D01*
X64727Y116798D01*
X64767Y117000D01*
D02*
G37*
G36*
X62531Y113201D02*
X60850D01*
Y111717D01*
X62531D01*
Y113201D01*
D02*
G37*
G36*
X187300Y111550D02*
X182200D01*
Y107634D01*
X181554Y106988D01*
X179260D01*
X179086Y107248D01*
X178358Y107735D01*
X177500Y107905D01*
X176642Y107735D01*
X175914Y107248D01*
X175428Y106521D01*
X175257Y105662D01*
X175428Y104804D01*
X175914Y104076D01*
X176642Y103590D01*
X177500Y103419D01*
X178358Y103590D01*
X179086Y104076D01*
X179260Y104337D01*
X182103D01*
X182610Y104438D01*
X183040Y104725D01*
X184765Y106450D01*
X187300D01*
Y111550D01*
D02*
G37*
G36*
X207300D02*
X202200D01*
Y106450D01*
X207300D01*
Y107729D01*
X207800Y107796D01*
X207914Y107625D01*
X208642Y107139D01*
X209500Y106968D01*
X210358Y107139D01*
X211086Y107625D01*
X211572Y108353D01*
X211743Y109211D01*
X211572Y110070D01*
X211086Y110797D01*
X210358Y111284D01*
X209500Y111454D01*
X208642Y111284D01*
X207914Y110797D01*
X207800Y110627D01*
X207300Y110694D01*
Y111550D01*
D02*
G37*
G36*
X135237Y108244D02*
X122613D01*
Y102707D01*
X135237D01*
Y103971D01*
X135507Y104376D01*
X135631Y105000D01*
X135507Y105624D01*
X135237Y106029D01*
Y108244D01*
D02*
G37*
G36*
X121570D02*
X108947D01*
Y105893D01*
X108869Y105500D01*
X108947Y105107D01*
Y102707D01*
X121570D01*
Y105194D01*
X121631Y105500D01*
X121570Y105806D01*
Y108244D01*
D02*
G37*
G36*
X107904D02*
X95280D01*
Y102707D01*
X107904D01*
Y104721D01*
X108007Y104876D01*
X108131Y105500D01*
X108007Y106124D01*
X107904Y106279D01*
Y108244D01*
D02*
G37*
G36*
X94087Y108068D02*
X81464D01*
Y106129D01*
X81343Y105948D01*
X81219Y105324D01*
X81343Y104700D01*
X81464Y104519D01*
Y103031D01*
X81464Y103008D01*
X81050Y102800D01*
X80886Y102800D01*
X75950D01*
Y97700D01*
X77183D01*
X77202Y97671D01*
X77798Y97273D01*
X78500Y97133D01*
X81016D01*
X81097Y97000D01*
X81094Y96961D01*
X80815Y96500D01*
X79000D01*
Y94250D01*
X81250D01*
Y95820D01*
X81464Y96232D01*
X81648Y96232D01*
X94087D01*
Y97341D01*
X95280D01*
Y96407D01*
X107904D01*
Y97341D01*
X108947D01*
Y96407D01*
X121570D01*
Y97341D01*
X122613D01*
Y96407D01*
X135237D01*
Y98312D01*
X135345Y98474D01*
X135485Y99176D01*
X135345Y99878D01*
X135237Y100040D01*
Y101944D01*
X122613D01*
Y101011D01*
X121570D01*
Y101944D01*
X108947D01*
Y101011D01*
X107904D01*
Y101944D01*
X95280D01*
Y101011D01*
X94087D01*
Y101769D01*
X81709D01*
X81253Y102181D01*
X81253Y102425D01*
X81464Y102531D01*
X81627Y102531D01*
Y102531D01*
X94087D01*
Y108068D01*
D02*
G37*
G36*
X209261Y100699D02*
X200180D01*
Y95083D01*
X209261D01*
Y100699D01*
D02*
G37*
G36*
X166000Y103285D02*
X165020Y103156D01*
X164107Y102778D01*
X163323Y102176D01*
X162722Y101393D01*
X162344Y100480D01*
X162215Y99500D01*
X162344Y98520D01*
X162722Y97607D01*
X163323Y96824D01*
X164107Y96222D01*
X165020Y95844D01*
X166000Y95715D01*
X166980Y95844D01*
X167893Y96222D01*
X168482Y96675D01*
X177739D01*
Y95083D01*
X186820D01*
Y96584D01*
X187213Y96846D01*
X187566Y97376D01*
X187690Y98000D01*
X187566Y98624D01*
X187213Y99154D01*
X186820Y99416D01*
Y100699D01*
X177739D01*
Y99326D01*
X169938D01*
X169785Y99500D01*
X169656Y100480D01*
X169278Y101393D01*
X168676Y102176D01*
X167893Y102778D01*
X166980Y103156D01*
X166000Y103285D01*
D02*
G37*
G36*
X78000Y96500D02*
X75750D01*
Y94250D01*
X78000D01*
Y96500D01*
D02*
G37*
G36*
Y93250D02*
X75750D01*
Y91000D01*
X78000D01*
Y93250D01*
D02*
G37*
G36*
X83236Y90500D02*
X82000D01*
Y89264D01*
X82202Y89304D01*
X82798Y89702D01*
X83196Y90298D01*
X83236Y90500D01*
D02*
G37*
G36*
X81250Y93250D02*
X79000D01*
Y91000D01*
X79665D01*
X79804Y90298D01*
X80202Y89702D01*
X80798Y89304D01*
X81000Y89264D01*
Y91000D01*
X81500D01*
Y91500D01*
X83236D01*
X83196Y91702D01*
X82798Y92298D01*
X82202Y92696D01*
X81500Y92835D01*
X81250Y93040D01*
Y93250D01*
D02*
G37*
G36*
X209261Y90699D02*
X200180D01*
Y85083D01*
X209261D01*
Y90699D01*
D02*
G37*
G36*
X186820D02*
X177739D01*
Y85083D01*
X186820D01*
Y90699D01*
D02*
G37*
G36*
X169753Y89939D02*
X162247D01*
Y82434D01*
X169753D01*
Y89939D01*
D02*
G37*
G36*
X156000Y89972D02*
X155020Y89843D01*
X154107Y89465D01*
X153323Y88863D01*
X152722Y88079D01*
X152344Y87166D01*
X152215Y86187D01*
X152344Y85207D01*
X152722Y84294D01*
X153323Y83510D01*
X154107Y82909D01*
X155020Y82530D01*
X156000Y82402D01*
X156980Y82530D01*
X157893Y82909D01*
X158677Y83510D01*
X159278Y84294D01*
X159656Y85207D01*
X159785Y86187D01*
X159656Y87166D01*
X159278Y88079D01*
X158677Y88863D01*
X157893Y89465D01*
X156980Y89843D01*
X156000Y89972D01*
D02*
G37*
G36*
X45050Y115544D02*
X39950D01*
Y110444D01*
X43174D01*
Y92500D01*
X43275Y91993D01*
X43563Y91563D01*
X54728Y80397D01*
X54844Y79520D01*
X55222Y78607D01*
X55823Y77824D01*
X56607Y77222D01*
X57520Y76844D01*
X58500Y76715D01*
X59480Y76844D01*
X60393Y77222D01*
X61177Y77824D01*
X61778Y78607D01*
X62156Y79520D01*
X62285Y80500D01*
X62156Y81480D01*
X61778Y82393D01*
X61177Y83176D01*
X60393Y83778D01*
X59480Y84156D01*
X58500Y84285D01*
X57520Y84156D01*
X56607Y83778D01*
X55823Y83176D01*
X55706Y83169D01*
X45825Y93049D01*
Y111488D01*
X45725Y111995D01*
X45437Y112425D01*
X45050Y112813D01*
Y115544D01*
D02*
G37*
G36*
X209261Y80699D02*
X200180D01*
Y75083D01*
X209261D01*
Y80699D01*
D02*
G37*
G36*
X186820D02*
X177739D01*
Y75083D01*
X186820D01*
Y76476D01*
X186904Y76493D01*
X187433Y76846D01*
X187787Y77376D01*
X187911Y78000D01*
X187787Y78624D01*
X187433Y79154D01*
X186904Y79507D01*
X186820Y79524D01*
Y80699D01*
D02*
G37*
G36*
X78500Y75236D02*
Y74000D01*
X79736D01*
X79696Y74202D01*
X79298Y74798D01*
X78702Y75196D01*
X78500Y75236D01*
D02*
G37*
G36*
X77500D02*
X77298Y75196D01*
X76702Y74798D01*
X76304Y74202D01*
X76264Y74000D01*
X77500D01*
Y75236D01*
D02*
G37*
G36*
X79736Y73000D02*
X78500D01*
Y71764D01*
X78702Y71804D01*
X79298Y72202D01*
X79696Y72798D01*
X79736Y73000D01*
D02*
G37*
G36*
X77500D02*
X76264D01*
X76304Y72798D01*
X76702Y72202D01*
X77298Y71804D01*
X77500Y71764D01*
Y73000D01*
D02*
G37*
G36*
X169753Y76753D02*
X162247D01*
Y69247D01*
X169753D01*
Y76753D01*
D02*
G37*
G36*
X156000Y76785D02*
X155020Y76656D01*
X154107Y76278D01*
X153323Y75677D01*
X152722Y74893D01*
X152344Y73980D01*
X152215Y73000D01*
X152344Y72020D01*
X152722Y71107D01*
X153323Y70323D01*
X154107Y69722D01*
X155020Y69344D01*
X156000Y69215D01*
X156980Y69344D01*
X157893Y69722D01*
X158677Y70323D01*
X159278Y71107D01*
X159656Y72020D01*
X159785Y73000D01*
X159656Y73980D01*
X159278Y74893D01*
X158677Y75677D01*
X157893Y76278D01*
X156980Y76656D01*
X156000Y76785D01*
D02*
G37*
G36*
X78500Y69131D02*
X77876Y69007D01*
X77346Y68654D01*
X76993Y68124D01*
X76869Y67500D01*
X76993Y66876D01*
X77346Y66347D01*
X77876Y65993D01*
X78500Y65869D01*
X79124Y65993D01*
X79654Y66347D01*
X80007Y66876D01*
X80131Y67500D01*
X80007Y68124D01*
X79654Y68654D01*
X79124Y69007D01*
X78500Y69131D01*
D02*
G37*
G36*
X209261Y70699D02*
X200180D01*
Y65083D01*
X209261D01*
Y70699D01*
D02*
G37*
G36*
X186820D02*
X177739D01*
Y65083D01*
X186820D01*
Y70699D01*
D02*
G37*
G36*
X72253Y70253D02*
X64747D01*
Y62747D01*
X72253D01*
Y70253D01*
D02*
G37*
G36*
X58500Y70285D02*
X57520Y70156D01*
X56607Y69778D01*
X55823Y69177D01*
X55222Y68393D01*
X54844Y67480D01*
X54715Y66500D01*
X54844Y65520D01*
X55222Y64607D01*
X55823Y63823D01*
X56607Y63222D01*
X57520Y62844D01*
X58500Y62715D01*
X59480Y62844D01*
X60393Y63222D01*
X61177Y63823D01*
X61778Y64607D01*
X62156Y65520D01*
X62285Y66500D01*
X62156Y67480D01*
X61778Y68393D01*
X61177Y69177D01*
X60393Y69778D01*
X59480Y70156D01*
X58500Y70285D01*
D02*
G37*
G36*
X141000Y66786D02*
X140142Y66615D01*
X139414Y66129D01*
X138928Y65401D01*
X138757Y64543D01*
X138928Y63684D01*
X139414Y62957D01*
X140142Y62471D01*
X141000Y62300D01*
X141858Y62471D01*
X142586Y62957D01*
X143072Y63684D01*
X143243Y64543D01*
X143072Y65401D01*
X142586Y66129D01*
X141858Y66615D01*
X141000Y66786D01*
D02*
G37*
G36*
X166000Y61848D02*
Y60000D01*
X167848D01*
X167761Y60436D01*
X167230Y61230D01*
X166436Y61761D01*
X166000Y61848D01*
D02*
G37*
G36*
X165000D02*
X164564Y61761D01*
X163770Y61230D01*
X163239Y60436D01*
X163152Y60000D01*
X165000D01*
Y61848D01*
D02*
G37*
G36*
X187020Y60899D02*
X182780D01*
Y58391D01*
X187020D01*
Y60899D01*
D02*
G37*
G36*
X181780D02*
X177539D01*
Y58391D01*
X181780D01*
Y60899D01*
D02*
G37*
G36*
X167848Y59000D02*
X166000D01*
Y57152D01*
X166436Y57239D01*
X167230Y57770D01*
X167761Y58564D01*
X167848Y59000D01*
D02*
G37*
G36*
X165000D02*
X163152D01*
X163239Y58564D01*
X163770Y57770D01*
X164564Y57239D01*
X165000Y57152D01*
Y59000D01*
D02*
G37*
G36*
X141000Y61243D02*
X140142Y61072D01*
X139414Y60586D01*
X138928Y59858D01*
X138757Y59000D01*
X138928Y58142D01*
X139414Y57414D01*
X140142Y56928D01*
X141000Y56757D01*
X141858Y56928D01*
X142586Y57414D01*
X143072Y58142D01*
X143243Y59000D01*
X143072Y59858D01*
X142586Y60586D01*
X141858Y61072D01*
X141000Y61243D01*
D02*
G37*
G36*
X209261Y60699D02*
X200180D01*
Y55083D01*
X209261D01*
Y60699D01*
D02*
G37*
G36*
X187020Y57391D02*
X182780D01*
Y54883D01*
X187020D01*
Y57391D01*
D02*
G37*
G36*
X181780D02*
X177539D01*
Y54883D01*
X181780D01*
Y57391D01*
D02*
G37*
G36*
X187020Y50899D02*
X182780D01*
Y48391D01*
X187020D01*
Y50899D01*
D02*
G37*
G36*
X181780D02*
X177539D01*
Y48391D01*
X181780D01*
Y50899D01*
D02*
G37*
G36*
X81000Y48848D02*
Y47000D01*
X82848D01*
X82761Y47436D01*
X82230Y48230D01*
X81436Y48761D01*
X81000Y48848D01*
D02*
G37*
G36*
X80000D02*
X79564Y48761D01*
X78770Y48230D01*
X78239Y47436D01*
X78152Y47000D01*
X80000D01*
Y48848D01*
D02*
G37*
G36*
X209261Y50699D02*
X200180D01*
Y45083D01*
X209261D01*
Y50699D01*
D02*
G37*
G36*
X187020Y47391D02*
X182780D01*
Y44883D01*
X187020D01*
Y47391D01*
D02*
G37*
G36*
X181780D02*
X177539D01*
Y44883D01*
X181780D01*
Y47391D01*
D02*
G37*
G36*
X209261Y40699D02*
X200180D01*
Y35083D01*
X209261D01*
Y40699D01*
D02*
G37*
G36*
X186820D02*
X177739D01*
Y35083D01*
X186820D01*
Y40699D01*
D02*
G37*
G36*
X209261Y30699D02*
X200180D01*
Y25083D01*
X209261D01*
Y30699D01*
D02*
G37*
G36*
X186820D02*
X177739D01*
Y25083D01*
X186820D01*
Y30699D01*
D02*
G37*
G36*
X209261Y20699D02*
X200180D01*
Y15083D01*
X209261D01*
Y20699D01*
D02*
G37*
G36*
X186820D02*
X177739D01*
Y15083D01*
X186820D01*
Y20699D01*
D02*
G37*
G36*
X209261Y10699D02*
X200180D01*
Y5083D01*
X209261D01*
Y10699D01*
D02*
G37*
G36*
X186820D02*
X177739D01*
Y5083D01*
X186820D01*
Y10699D01*
D02*
G37*
%LPD*%
D10*
X182103Y105662D02*
X185244Y108803D01*
X177500Y105662D02*
X182103D01*
X8500Y98000D02*
X10279D01*
Y88000D02*
X25134D01*
X28442Y84692D01*
X42500Y46046D02*
X44800Y43746D01*
X42500Y46046D02*
Y51269D01*
X44800Y34700D02*
Y43746D01*
X68500Y80500D02*
X70000Y79000D01*
X85500D01*
X127500Y8500D02*
Y26000D01*
X103446Y30600D02*
X103500Y30546D01*
X60000Y26000D02*
X97500D01*
X58800Y23900D02*
X111900D01*
X60185Y28500D02*
X95000D01*
X61400Y30600D02*
X103446D01*
X52491Y39509D02*
X61400Y30600D01*
X50200Y38485D02*
X60185Y28500D01*
X113500Y25500D02*
Y27000D01*
X111900Y23900D02*
X113500Y25500D01*
X58000Y21500D02*
X111500D01*
X57400Y19100D02*
X107904D01*
X44800Y34700D02*
X58000Y21500D01*
X43000Y33500D02*
X57400Y19100D01*
X43000Y33500D02*
Y43000D01*
X56400Y17000D02*
X97870D01*
X40500Y32900D02*
X56400Y17000D01*
X40500Y32900D02*
Y36676D01*
X55500Y14500D02*
X96030D01*
X54800Y15200D02*
X55500Y14500D01*
X54754Y15200D02*
X54800D01*
X38700Y31254D02*
X54754Y15200D01*
X38700Y31254D02*
Y31300D01*
X46600Y36100D02*
X58800Y23900D01*
X46600Y36100D02*
Y44491D01*
X48400Y37600D02*
X60000Y26000D01*
X48400Y37600D02*
Y54100D01*
X52491Y39509D02*
Y74509D01*
X50200Y38485D02*
Y55573D01*
X38000Y32000D02*
X38700Y31300D01*
X21500Y32000D02*
X38000D01*
X39176Y38000D02*
X40500Y36676D01*
X97870Y14400D02*
X97970Y14500D01*
X96130Y14400D02*
X97870D01*
X96030Y14500D02*
X96130Y14400D01*
X97970Y14500D02*
X104500D01*
X60518Y11308D02*
X61326Y10500D01*
X100000D01*
X41230Y64543D02*
X50200Y55573D01*
X44500Y58000D02*
X48400Y54100D01*
X20308Y11308D02*
X60518D01*
X45500Y45591D02*
X46600Y44491D01*
X45500Y45591D02*
Y53500D01*
X41308Y44692D02*
X43000Y43000D01*
X19699Y44692D02*
X41308D01*
X32721Y58000D02*
X44500D01*
X44358Y54642D02*
X45500Y53500D01*
X22815Y54642D02*
X44358D01*
X42308Y84692D02*
X52491Y74509D01*
X17000Y8000D02*
X20308Y11308D01*
X23457Y64543D02*
X41230D01*
X123319Y63017D02*
X123803Y63502D01*
X95075Y56076D02*
Y61395D01*
X73575Y42032D02*
X74000Y41607D01*
X116500Y59500D02*
X117839D01*
X118016Y59324D01*
X10279Y8000D02*
X17000D01*
X15500Y38000D02*
X21500Y32000D01*
X32721Y38000D02*
X39176D01*
X16391Y48000D02*
X19699Y44692D01*
X19457Y58000D02*
X22815Y54642D01*
X10279Y58000D02*
X19457D01*
X20000Y68000D02*
X23457Y64543D01*
X28442Y84692D02*
X42308D01*
X10279Y48000D02*
X16391D01*
X10279Y38000D02*
X15500D01*
X10279Y68000D02*
X20000D01*
X42500Y113488D02*
X44500Y111488D01*
Y92500D02*
Y111488D01*
Y92500D02*
X56500Y80500D01*
X74000Y48531D02*
X75484Y50016D01*
X74000Y46394D02*
Y48531D01*
X69500Y47630D02*
Y53868D01*
X69185Y47315D02*
X69500Y47630D01*
X65500Y47315D02*
X66525D01*
X63000Y147441D02*
X63031Y146351D01*
X67000Y114000D02*
X67500Y114500D01*
X102950Y147441D02*
X103000Y147391D01*
X121500Y147211D02*
X121700Y147411D01*
X121975D01*
X161800D02*
X162000Y147211D01*
X161475Y147411D02*
X161800D01*
X185244Y108803D02*
Y109000D01*
X73575Y42032D02*
X74000Y42457D01*
X160500Y25244D02*
X160756Y25500D01*
X56500Y80500D02*
X58500D01*
X32059Y119000D02*
X42500D01*
X25559Y125500D02*
X32059Y119000D01*
X91032Y55000D02*
Y55773D01*
X204467Y109211D02*
X209500D01*
X204256Y109000D02*
X204467Y109211D01*
X123803Y52532D02*
X124772Y53500D01*
X125000D01*
X190756Y109000D02*
X195000D01*
Y120500D02*
X200500Y126000D01*
X195000Y109000D02*
Y120500D01*
Y109000D02*
X197244D01*
X183500Y144000D02*
X192500Y135000D01*
Y126000D02*
Y135000D01*
X183500Y144000D02*
Y144000D01*
X176000Y145500D02*
X176162D01*
X177178Y144484D01*
X179079D01*
X179563Y144000D01*
X200500Y126000D02*
X204300D01*
X195000Y109000D02*
X198744D01*
X195000D02*
Y109000D01*
X197244Y109000D02*
X197244Y109000D01*
X166000Y98000D02*
X186059D01*
X135500Y79000D02*
X156000Y99500D01*
X85500Y79000D02*
X135500D01*
X92500Y99000D02*
X92676Y99176D01*
X83020Y98969D02*
X83051Y99000D01*
X78500Y94835D02*
Y95032D01*
X25000Y125500D02*
X25559D01*
X123803Y52532D02*
Y52618D01*
X122553Y53868D02*
X123803Y52618D01*
X118500Y53868D02*
X122553D01*
X119063Y73032D02*
X119064Y73033D01*
X119063Y63500D02*
Y63502D01*
X118016Y58289D02*
Y59324D01*
Y58289D02*
X118500Y57805D01*
X113532Y50470D02*
Y57002D01*
X118297Y45705D02*
X123295D01*
X113532Y50470D02*
X118297Y45705D01*
X109595Y60001D02*
X109595Y60002D01*
X109595Y57002D02*
X109595Y57002D01*
X113532Y63502D02*
X113532Y63502D01*
X109595D02*
X109595Y63502D01*
X100500Y51500D02*
Y55783D01*
X91032Y55836D02*
X91063Y55805D01*
X91032Y55773D02*
Y55836D01*
Y55773D02*
X91063Y55805D01*
X90866Y56002D02*
X91032Y55836D01*
X91213Y61470D02*
Y62713D01*
X91046Y61637D02*
X91213Y61470D01*
X91046Y61637D02*
Y62500D01*
X92254Y63754D02*
X99029D01*
X91213Y62713D02*
X92254Y63754D01*
X99029D02*
X100032Y62752D01*
X95000Y56002D02*
X95075Y56076D01*
Y61395D02*
X95150Y61470D01*
X99782Y56002D02*
X100032Y56252D01*
X95000Y56002D02*
X99782D01*
X100032Y56252D02*
X100500Y55783D01*
D17*
X78500Y100250D02*
D03*
Y93750D02*
D03*
X42500Y119494D02*
D03*
Y112994D02*
D03*
X123803Y52752D02*
D03*
Y59252D02*
D03*
X100032Y56252D02*
D03*
Y62752D02*
D03*
D18*
X204750Y109000D02*
D03*
X198250D02*
D03*
X191250D02*
D03*
X184750D02*
D03*
X184782Y144000D02*
D03*
X178281D02*
D03*
D25*
X95000Y56002D02*
D03*
X91063D02*
D03*
X113532Y63502D02*
D03*
X109595D02*
D03*
X123000Y73032D02*
D03*
X119063D02*
D03*
X123000Y69500D02*
D03*
X119063D02*
D03*
X123000Y63500D02*
D03*
X119063D02*
D03*
X109595Y60002D02*
D03*
X113532D02*
D03*
X123000Y66500D02*
D03*
X119063D02*
D03*
X66969Y113701D02*
D03*
X63031D02*
D03*
X113532Y66500D02*
D03*
X109594D02*
D03*
X113532Y53752D02*
D03*
X109594D02*
D03*
X113532Y57002D02*
D03*
X109595D02*
D03*
X104437Y51500D02*
D03*
X100500D02*
D03*
X95150Y61470D02*
D03*
X91213D02*
D03*
D26*
X74000Y46394D02*
D03*
Y42457D02*
D03*
X118500Y57805D02*
D03*
Y53868D02*
D03*
D41*
X75484Y34500D02*
Y36351D01*
X74000Y37835D02*
X75484Y36351D01*
X113532Y63502D02*
X119063D01*
X116014Y59986D02*
X116500Y59500D01*
X113548Y59986D02*
X116014D01*
X113532Y60002D02*
X113548Y59986D01*
X117839Y59500D02*
X120065D01*
X123319Y60002D02*
Y63017D01*
X120065Y59500D02*
X120567Y60002D01*
X65500Y36185D02*
X72350D01*
X74000Y37835D02*
Y41607D01*
X63000Y144000D02*
Y146319D01*
X63031Y146351D01*
X67500Y114500D02*
X71500D01*
X78500Y94000D02*
Y94835D01*
Y94000D02*
X81500Y91000D01*
X103000Y144000D02*
Y147391D01*
X121500Y143500D02*
Y147211D01*
X162000Y144000D02*
Y147211D01*
X123053Y60002D02*
X123803Y59252D01*
X120567Y60002D02*
X123053D01*
X72350Y36185D02*
X74000Y37835D01*
X130500Y99176D02*
X133650D01*
X127350D02*
X130500D01*
X124201D02*
X127350D01*
X119983D02*
X124201D01*
X116833D02*
X119983D01*
X113684D02*
X116833D01*
X110534D02*
X113684D01*
X106316D02*
X110534D01*
X103167D02*
X106316D01*
X100017D02*
X103167D01*
X96867D02*
X100017D01*
X92676D02*
X96867D01*
X89350Y99000D02*
X92500D01*
X86201D02*
X89350D01*
X83051D02*
X86201D01*
X78500Y98969D02*
X83020D01*
X63031Y113701D02*
Y117500D01*
X119063Y63502D02*
Y66500D01*
X123803Y63502D02*
X127000D01*
X109595Y57002D02*
Y60001D01*
X109594Y63500D02*
Y66500D01*
X109595Y60002D02*
Y63502D01*
X113532Y63502D02*
Y66500D01*
X110000Y53752D02*
Y56486D01*
X106425Y53752D02*
X110000D01*
X105500Y52826D02*
X106425Y53752D01*
X119031Y73063D02*
Y75967D01*
X123000Y63500D02*
Y66500D01*
Y69500D01*
Y73032D01*
X119063Y69500D02*
Y73032D01*
Y66500D02*
Y69500D01*
D42*
X147500Y26000D02*
D03*
X137500D02*
D03*
X166000Y99500D02*
D03*
X58500Y66500D02*
D03*
X156000Y73000D02*
D03*
Y86187D02*
D03*
X193000Y162000D02*
D03*
X183000D02*
D03*
X173000D02*
D03*
X163000D02*
D03*
X153000D02*
D03*
X143000D02*
D03*
X133000D02*
D03*
X123000D02*
D03*
X113000D02*
D03*
X103000D02*
D03*
X93000D02*
D03*
X83000D02*
D03*
X73000D02*
D03*
X63000D02*
D03*
X53000D02*
D03*
X43000D02*
D03*
X33000D02*
D03*
X23000D02*
D03*
X13000D02*
D03*
X25000Y138000D02*
D03*
X35000Y125500D02*
D03*
X25000D02*
D03*
X58500Y80500D02*
D03*
X156000Y39000D02*
D03*
D43*
X127500Y26000D02*
D03*
X156000Y99500D02*
D03*
X68500Y66500D02*
D03*
X166000Y73000D02*
D03*
Y86187D02*
D03*
X203000Y162000D02*
D03*
X15000Y138000D02*
D03*
Y125500D02*
D03*
X68500Y80500D02*
D03*
X146000Y39000D02*
D03*
D44*
X177500Y105662D02*
D03*
X138000Y54500D02*
D03*
X95000Y58500D02*
D03*
X75484Y34500D02*
D03*
X91798Y35000D02*
D03*
X31000Y78000D02*
D03*
X34211Y68124D02*
D03*
X31000D02*
D03*
X10000Y7891D02*
D03*
X10279Y48000D02*
D03*
X34500Y78000D02*
D03*
Y88000D02*
D03*
Y98000D02*
D03*
X32721Y38000D02*
D03*
Y48000D02*
D03*
X31000Y88000D02*
D03*
X10279D02*
D03*
X31000Y98000D02*
D03*
X10279Y68000D02*
D03*
X32721Y58000D02*
D03*
X10279Y38000D02*
D03*
X92000Y71500D02*
D03*
X141000Y59000D02*
D03*
Y64543D02*
D03*
X80500Y46500D02*
D03*
X104500Y14500D02*
D03*
X165500Y59500D02*
D03*
X180000Y47891D02*
D03*
X184500D02*
D03*
X182280Y7891D02*
D03*
Y27891D02*
D03*
X180000Y57891D02*
D03*
X184500Y58000D02*
D03*
X116500Y59500D02*
D03*
X63000Y144000D02*
D03*
X103000D02*
D03*
X121500Y143500D02*
D03*
X162000Y144000D02*
D03*
X209500Y109211D02*
D03*
X10279Y18000D02*
D03*
Y28000D02*
D03*
Y78000D02*
D03*
X25500Y153500D02*
D03*
X105500Y52826D02*
D03*
X107000Y63754D02*
D03*
Y61637D02*
D03*
Y56882D02*
D03*
Y59000D02*
D03*
Y54500D02*
D03*
X119000Y75998D02*
D03*
D45*
X10279Y98000D02*
D03*
X127500Y8500D02*
D03*
X42500Y51269D02*
D03*
X123295Y45705D02*
D03*
X103500Y30546D02*
D03*
X97870Y17000D02*
D03*
X85500Y79000D02*
D03*
X95000Y28500D02*
D03*
X111500Y21500D02*
D03*
X78000Y73500D02*
D03*
X75484Y50016D02*
D03*
X91032Y55000D02*
D03*
X142831Y49000D02*
D03*
X100000Y10500D02*
D03*
X113500Y27000D02*
D03*
X97500Y26000D02*
D03*
X125000Y53500D02*
D03*
X69500Y53868D02*
D03*
X107904Y19100D02*
D03*
X127000Y63502D02*
D03*
X91046Y62500D02*
D03*
X68500Y80500D02*
D03*
X78500Y67500D02*
D03*
X147500Y26000D02*
D03*
X137500D02*
D03*
X127500D02*
D03*
X133000Y16500D02*
D03*
X165500Y46500D02*
D03*
X186059Y98000D02*
D03*
X68500Y66500D02*
D03*
X164000Y25244D02*
D03*
X138500Y37000D02*
D03*
Y40500D02*
D03*
X166000Y73000D02*
D03*
X156000D02*
D03*
Y86187D02*
D03*
X166000D02*
D03*
X15000Y125500D02*
D03*
Y138000D02*
D03*
X25000D02*
D03*
X35000Y125500D02*
D03*
X177500Y113500D02*
D03*
X178000Y122000D02*
D03*
X197244Y137000D02*
D03*
X176000Y145500D02*
D03*
X192500Y126000D02*
D03*
X204300D02*
D03*
X195000Y109000D02*
D03*
X186279Y78000D02*
D03*
X166000Y99500D02*
D03*
X156000D02*
D03*
X81500Y91000D02*
D03*
X71500Y114500D02*
D03*
X58500Y80500D02*
D03*
X25000Y125500D02*
D03*
Y138000D02*
D03*
X63031Y117500D02*
D03*
X134000Y105000D02*
D03*
X100000Y105500D02*
D03*
X82850Y105324D02*
D03*
X130500Y105500D02*
D03*
X127500D02*
D03*
X124500D02*
D03*
X120000D02*
D03*
X116858D02*
D03*
X114000D02*
D03*
X110500D02*
D03*
X106500D02*
D03*
X103079D02*
D03*
X97000D02*
D03*
X92350Y105324D02*
D03*
X89554D02*
D03*
X86350D02*
D03*
X152500Y147250D02*
D03*
Y149970D02*
D03*
X161500D02*
D03*
Y152500D02*
D03*
X122000D02*
D03*
Y149970D02*
D03*
X112953Y147250D02*
D03*
Y149970D02*
D03*
X94000Y147500D02*
D03*
X103000Y150000D02*
D03*
Y152500D02*
D03*
X94000Y150000D02*
D03*
X54025D02*
D03*
Y147500D02*
D03*
X63000Y150000D02*
D03*
Y152500D02*
D03*
D50*
X32721Y88000D02*
D03*
X10279D02*
D03*
X32721Y98000D02*
D03*
X10279D02*
D03*
Y78000D02*
D03*
X32721D02*
D03*
X10279Y68000D02*
D03*
X32721D02*
D03*
X10279Y58000D02*
D03*
X32721D02*
D03*
X10279Y48000D02*
D03*
X32721D02*
D03*
X10279Y38000D02*
D03*
X32721D02*
D03*
X10279Y28000D02*
D03*
X32721D02*
D03*
X10279Y18000D02*
D03*
X32721D02*
D03*
X10279Y8000D02*
D03*
X32721D02*
D03*
X204720Y87891D02*
D03*
X182280D02*
D03*
X204720Y97891D02*
D03*
X182280D02*
D03*
Y77891D02*
D03*
X204720D02*
D03*
X182280Y67891D02*
D03*
X204720D02*
D03*
X182280Y57891D02*
D03*
X204720D02*
D03*
X182280Y47891D02*
D03*
X204720D02*
D03*
X182280Y37891D02*
D03*
X204720D02*
D03*
X182280Y27891D02*
D03*
X204720D02*
D03*
X182280Y17891D02*
D03*
X204720D02*
D03*
X182280Y7891D02*
D03*
X204720D02*
D03*
D51*
X161475Y152529D02*
D03*
Y149970D02*
D03*
Y147411D02*
D03*
X152525D02*
D03*
Y149970D02*
D03*
Y152529D02*
D03*
X121975D02*
D03*
Y149970D02*
D03*
Y147411D02*
D03*
X113025D02*
D03*
Y149970D02*
D03*
Y152529D02*
D03*
X102950Y152559D02*
D03*
Y150000D02*
D03*
Y147441D02*
D03*
X94000D02*
D03*
Y150000D02*
D03*
Y152559D02*
D03*
X63000D02*
D03*
Y150000D02*
D03*
Y147441D02*
D03*
X54050D02*
D03*
Y150000D02*
D03*
Y152559D02*
D03*
D52*
X65500Y46815D02*
D03*
Y36185D02*
D03*
D53*
X124201Y99176D02*
D03*
X127350D02*
D03*
X130500D02*
D03*
X133650D02*
D03*
X124201Y105475D02*
D03*
X127350D02*
D03*
X130500D02*
D03*
X133650D02*
D03*
X110534Y99176D02*
D03*
X113684D02*
D03*
X116833D02*
D03*
X119983D02*
D03*
X110534Y105475D02*
D03*
X113684D02*
D03*
X116833D02*
D03*
X119983D02*
D03*
X83051Y99000D02*
D03*
X86201D02*
D03*
X89350D02*
D03*
X92500D02*
D03*
X83051Y105299D02*
D03*
X86201D02*
D03*
X89350D02*
D03*
X92500D02*
D03*
X96867Y99176D02*
D03*
X100017D02*
D03*
X103167D02*
D03*
X106316D02*
D03*
X96867Y105475D02*
D03*
X100017D02*
D03*
X103167D02*
D03*
X106316D02*
D03*
M02*
