G04*
G04 #@! TF.GenerationSoftware,Altium Limited,Altium Designer,19.0.10 (269)*
G04*
G04 Layer_Color=65535*
%FSLAX25Y25*%
%MOIN*%
G70*
G01*
G75*
%ADD10C,0.01000*%
%ADD11C,0.00787*%
%ADD12C,0.00600*%
%ADD13C,0.00500*%
%ADD14C,0.01500*%
D10*
X438190Y391270D02*
X451060D01*
X438340Y220500D02*
X451060D01*
X450060Y319381D02*
Y391270D01*
Y220500D02*
Y289189D01*
X448060Y385270D02*
X450060Y391270D01*
X452060Y385270D01*
X450060Y220500D02*
X452060Y226500D01*
X448060D02*
X450060Y220500D01*
X443000Y199200D02*
Y225160D01*
X222730Y199200D02*
Y226570D01*
X346361Y200200D02*
X443000D01*
X222730D02*
X316169D01*
X437000Y202200D02*
X443000Y200200D01*
X437000Y198200D02*
X443000Y200200D01*
X222730D02*
X228730Y198200D01*
X222730Y200200D02*
X228730Y202200D01*
X259130Y215660D02*
X265130Y217660D01*
X259130Y215660D02*
X265130Y213660D01*
X425130D02*
X431130Y215660D01*
X425130Y217660D02*
X431130Y215660D01*
X259130D02*
X345130D01*
X431130D01*
X259130Y214660D02*
Y261999D01*
X431130Y214660D02*
Y261999D01*
D11*
X393663Y330118D02*
Y334842D01*
X372338Y336176D02*
Y338144D01*
X384542Y336176D02*
Y338144D01*
X372338Y336176D02*
X384542D01*
X372338Y338144D02*
X384542D01*
X378313Y283191D02*
Y288309D01*
X372260Y259890D02*
Y279890D01*
Y259890D02*
X382260D01*
Y279890D01*
X372260D02*
X382260D01*
X353670Y260010D02*
Y280010D01*
X343670D02*
X353670D01*
X343670Y260010D02*
Y280010D01*
Y260010D02*
X353670D01*
X359646Y267950D02*
Y271100D01*
X369094Y267950D02*
Y271100D01*
X329790Y279370D02*
Y299370D01*
X319790D02*
X329790D01*
X319790Y279370D02*
Y299370D01*
Y279370D02*
X329790D01*
X280380Y279410D02*
Y299410D01*
X270380D02*
X280380D01*
X270380Y279410D02*
Y299410D01*
Y279410D02*
X280380D01*
X313960Y338050D02*
Y348050D01*
X343960D01*
Y338050D02*
Y348050D01*
X313960Y338050D02*
X343960D01*
X389120Y310660D02*
X399120D01*
Y280660D02*
Y310660D01*
X389120Y280660D02*
X399120D01*
X389120D02*
Y310660D01*
X385456Y267945D02*
Y271095D01*
X394904Y267945D02*
Y271095D01*
X238402Y364797D02*
X258598D01*
Y362631D02*
Y364797D01*
X238402Y362631D02*
Y364797D01*
Y264206D02*
X258598D01*
X238402D02*
Y266371D01*
X258598Y264206D02*
Y266371D01*
X430598Y264206D02*
Y266371D01*
X410402Y264206D02*
Y266371D01*
Y264206D02*
X430598D01*
X410402Y362631D02*
Y364797D01*
X430598Y362631D02*
Y364797D01*
X410402D02*
X430598D01*
X371157Y358558D02*
Y363282D01*
X371160Y349468D02*
Y354192D01*
X382311Y356850D02*
X387429D01*
D12*
X453659Y293788D02*
X447661D01*
X450660Y290789D01*
Y294788D01*
X448661Y296787D02*
X447661Y297787D01*
Y299786D01*
X448661Y300786D01*
X449660D01*
X450660Y299786D01*
Y298787D01*
Y299786D01*
X451660Y300786D01*
X452659D01*
X453659Y299786D01*
Y297787D01*
X452659Y296787D01*
X453659Y302785D02*
X452659D01*
Y303785D01*
X453659D01*
Y302785D01*
X448661Y307784D02*
X447661Y308784D01*
Y310783D01*
X448661Y311783D01*
X449660D01*
X450660Y310783D01*
Y309783D01*
Y310783D01*
X451660Y311783D01*
X452659D01*
X453659Y310783D01*
Y308784D01*
X452659Y307784D01*
X448661Y313782D02*
X447661Y314782D01*
Y316781D01*
X448661Y317781D01*
X449660D01*
X450660Y316781D01*
X451660Y317781D01*
X452659D01*
X453659Y316781D01*
Y314782D01*
X452659Y313782D01*
X451660D01*
X450660Y314782D01*
X449660Y313782D01*
X448661D01*
X450660Y314782D02*
Y316781D01*
X321768Y202599D02*
X317769D01*
Y199600D01*
X319769Y200600D01*
X320768D01*
X321768Y199600D01*
Y197601D01*
X320768Y196601D01*
X318769D01*
X317769Y197601D01*
X327766Y202599D02*
X323767D01*
Y199600D01*
X325767Y200600D01*
X326766D01*
X327766Y199600D01*
Y197601D01*
X326766Y196601D01*
X324767D01*
X323767Y197601D01*
X329766Y196601D02*
Y197601D01*
X330765D01*
Y196601D01*
X329766D01*
X334764Y197601D02*
X335764Y196601D01*
X337763D01*
X338763Y197601D01*
Y201599D01*
X337763Y202599D01*
X335764D01*
X334764Y201599D01*
Y200600D01*
X335764Y199600D01*
X338763D01*
X344761Y202599D02*
X340762D01*
Y199600D01*
X342761Y200600D01*
X343761D01*
X344761Y199600D01*
Y197601D01*
X343761Y196601D01*
X341762D01*
X340762Y197601D01*
X232752Y364344D02*
Y363011D01*
Y363677D01*
X236751D01*
X236084Y364344D01*
X260311Y362859D02*
Y365525D01*
X262977Y362859D01*
X263643D01*
X264310Y363526D01*
Y364859D01*
X263643Y365525D01*
X232752Y265840D02*
Y264507D01*
Y265174D01*
X236751D01*
X236084Y265840D01*
X233418Y262508D02*
X232752Y261841D01*
Y260508D01*
X233418Y259842D01*
X236084D01*
X236751Y260508D01*
Y261841D01*
X236084Y262508D01*
X235418D01*
X234751Y261841D01*
Y259842D01*
X260311Y263174D02*
Y265840D01*
X262977Y263174D01*
X263643D01*
X264310Y263841D01*
Y265174D01*
X263643Y265840D01*
Y261841D02*
X264310Y261175D01*
Y259842D01*
X263643Y259175D01*
X260978D01*
X260311Y259842D01*
Y261175D01*
X260978Y261841D01*
X263643D01*
X432311Y263174D02*
Y265840D01*
X434977Y263174D01*
X435643D01*
X436310Y263841D01*
Y265174D01*
X435643Y265840D01*
Y261841D02*
X436310Y261175D01*
Y259842D01*
X435643Y259175D01*
X432977D01*
X432311Y259842D01*
Y261175D01*
X432977Y261841D01*
X435643D01*
X404752Y265840D02*
Y264507D01*
Y265174D01*
X408751D01*
X408084Y265840D01*
X405418Y262508D02*
X404752Y261841D01*
Y260508D01*
X405418Y259842D01*
X408084D01*
X408751Y260508D01*
Y261841D01*
X408084Y262508D01*
X407418D01*
X406751Y261841D01*
Y259842D01*
X432311Y362859D02*
Y365525D01*
X434977Y362859D01*
X435643D01*
X436310Y363526D01*
Y364859D01*
X435643Y365525D01*
X404752Y364344D02*
Y363011D01*
Y363677D01*
X408751D01*
X408084Y364344D01*
X333380Y207060D02*
X335379D01*
X334380D01*
Y213058D01*
X333380Y212058D01*
X338378Y213058D02*
X342377D01*
Y212058D01*
X338378Y208060D01*
Y207060D01*
X348375D02*
X344376D01*
X348375Y211059D01*
Y212058D01*
X347375Y213058D01*
X345376D01*
X344376Y212058D01*
X350375D02*
X351374Y213058D01*
X353374D01*
X354373Y212058D01*
Y208060D01*
X353374Y207060D01*
X351374D01*
X350375Y208060D01*
Y212058D01*
X356373Y207060D02*
Y208060D01*
X357372D01*
Y207060D01*
X356373D01*
X361371Y212058D02*
X362371Y213058D01*
X364370D01*
X365370Y212058D01*
Y208060D01*
X364370Y207060D01*
X362371D01*
X361371Y208060D01*
Y212058D01*
X367369D02*
X368369Y213058D01*
X370368D01*
X371368Y212058D01*
Y208060D01*
X370368Y207060D01*
X368369D01*
X367369Y208060D01*
Y212058D01*
D13*
X314910Y334490D02*
Y335823D01*
X315577Y336489D01*
X316243Y335823D01*
Y334490D01*
Y335490D01*
X314910D01*
X318242Y336156D02*
X317909Y336489D01*
X317243D01*
X316909Y336156D01*
Y334823D01*
X317243Y334490D01*
X317909D01*
X318242Y334823D01*
Y335490D01*
X317576D01*
X318909Y334490D02*
Y336489D01*
X320242Y334490D01*
Y336489D01*
X320908D02*
Y334490D01*
X321908D01*
X322241Y334823D01*
Y336156D01*
X321908Y336489D01*
X320908D01*
X366773Y324356D02*
X366440Y324689D01*
X365773D01*
X365440Y324356D01*
Y323023D01*
X365773Y322690D01*
X366440D01*
X366773Y323023D01*
X367439Y322690D02*
X368106D01*
X367773D01*
Y324689D01*
X367439Y324356D01*
X370438Y324689D02*
X369772Y324356D01*
X369106Y323690D01*
Y323023D01*
X369439Y322690D01*
X370105D01*
X370438Y323023D01*
Y323356D01*
X370105Y323690D01*
X369106D01*
X363323Y341906D02*
X362990Y342239D01*
X362323D01*
X361990Y341906D01*
Y340573D01*
X362323Y340240D01*
X362990D01*
X363323Y340573D01*
X363989Y340240D02*
X364656D01*
X364323D01*
Y342239D01*
X363989Y341906D01*
X365655D02*
X365989Y342239D01*
X366655D01*
X366988Y341906D01*
Y341573D01*
X366655Y341240D01*
X366988Y340906D01*
Y340573D01*
X366655Y340240D01*
X365989D01*
X365655Y340573D01*
Y340906D01*
X365989Y341240D01*
X365655Y341573D01*
Y341906D01*
X365989Y341240D02*
X366655D01*
X390403Y345776D02*
X390070Y346109D01*
X389403D01*
X389070Y345776D01*
Y344443D01*
X389403Y344110D01*
X390070D01*
X390403Y344443D01*
X392402Y344110D02*
X391069D01*
X392402Y345443D01*
Y345776D01*
X392069Y346109D01*
X391403D01*
X391069Y345776D01*
X393069D02*
X393402Y346109D01*
X394068D01*
X394402Y345776D01*
Y344443D01*
X394068Y344110D01*
X393402D01*
X393069Y344443D01*
Y345776D01*
X392473Y337616D02*
X392140Y337949D01*
X391473D01*
X391140Y337616D01*
Y336283D01*
X391473Y335950D01*
X392140D01*
X392473Y336283D01*
X393139Y335950D02*
X393806D01*
X393473D01*
Y337949D01*
X393139Y337616D01*
X394806D02*
X395139Y337949D01*
X395805D01*
X396138Y337616D01*
Y336283D01*
X395805Y335950D01*
X395139D01*
X394806Y336283D01*
Y337616D01*
X377050Y346519D02*
Y344853D01*
X377383Y344520D01*
X378050D01*
X378383Y344853D01*
Y346519D01*
X379049Y346186D02*
X379383Y346519D01*
X380049D01*
X380382Y346186D01*
Y345853D01*
X380049Y345520D01*
X379716D01*
X380049D01*
X380382Y345186D01*
Y344853D01*
X380049Y344520D01*
X379383D01*
X379049Y344853D01*
X367800Y286849D02*
Y284850D01*
X369133D01*
X369799D02*
X370466D01*
X370133D01*
Y286849D01*
X369799Y286516D01*
X375743Y282619D02*
X375077D01*
X375410D01*
Y280953D01*
X375077Y280620D01*
X374743D01*
X374410Y280953D01*
X376409Y280620D02*
Y282619D01*
X377409D01*
X377742Y282286D01*
Y281620D01*
X377409Y281287D01*
X376409D01*
X379408Y280620D02*
Y282619D01*
X378409Y281620D01*
X379742D01*
X346743Y283029D02*
X346076D01*
X346410D01*
Y281363D01*
X346076Y281030D01*
X345743D01*
X345410Y281363D01*
X347409Y281030D02*
Y283029D01*
X348409D01*
X348742Y282696D01*
Y282030D01*
X348409Y281697D01*
X347409D01*
X349409Y282696D02*
X349742Y283029D01*
X350408D01*
X350742Y282696D01*
Y282363D01*
X350408Y282030D01*
X350075D01*
X350408D01*
X350742Y281697D01*
Y281363D01*
X350408Y281030D01*
X349742D01*
X349409Y281363D01*
X363873Y279496D02*
X363540Y279829D01*
X362873D01*
X362540Y279496D01*
Y278163D01*
X362873Y277830D01*
X363540D01*
X363873Y278163D01*
X365872Y277830D02*
X364539D01*
X365872Y279163D01*
Y279496D01*
X365539Y279829D01*
X364873D01*
X364539Y279496D01*
X323623Y277969D02*
X322956D01*
X323290D01*
Y276303D01*
X322956Y275970D01*
X322623D01*
X322290Y276303D01*
X324289Y275970D02*
Y277969D01*
X325289D01*
X325622Y277636D01*
Y276970D01*
X325289Y276637D01*
X324289D01*
X326289Y275970D02*
X326955D01*
X326622D01*
Y277969D01*
X326289Y277636D01*
X273563Y278179D02*
X272897D01*
X273230D01*
Y276513D01*
X272897Y276180D01*
X272563D01*
X272230Y276513D01*
X274229Y276180D02*
Y278179D01*
X275229D01*
X275562Y277846D01*
Y277180D01*
X275229Y276847D01*
X274229D01*
X277562Y276180D02*
X276229D01*
X277562Y277513D01*
Y277846D01*
X277228Y278179D01*
X276562D01*
X276229Y277846D01*
X277290Y304560D02*
Y306559D01*
X278290D01*
X278623Y306226D01*
Y305560D01*
X278290Y305226D01*
X277290D01*
X277956D02*
X278623Y304560D01*
X279289D02*
X279956D01*
X279623D01*
Y306559D01*
X279289Y306226D01*
X277600Y314880D02*
Y316879D01*
X278600D01*
X278933Y316546D01*
Y315880D01*
X278600Y315546D01*
X277600D01*
X278266D02*
X278933Y314880D01*
X280932D02*
X279599D01*
X280932Y316213D01*
Y316546D01*
X280599Y316879D01*
X279933D01*
X279599Y316546D01*
X307270Y366660D02*
Y367993D01*
X307937Y368659D01*
X308603Y367993D01*
Y366660D01*
Y367660D01*
X307270D01*
X310602Y368326D02*
X310269Y368659D01*
X309603D01*
X309269Y368326D01*
Y366993D01*
X309603Y366660D01*
X310269D01*
X310602Y366993D01*
Y367660D01*
X309936D01*
X311269Y366660D02*
Y368659D01*
X312602Y366660D01*
Y368659D01*
X313268D02*
Y366660D01*
X314268D01*
X314601Y366993D01*
Y368326D01*
X314268Y368659D01*
X313268D01*
X292313Y368506D02*
X291980Y368839D01*
X291313D01*
X290980Y368506D01*
Y367173D01*
X291313Y366840D01*
X291980D01*
X292313Y367173D01*
Y367840D01*
X291647D01*
X292979Y366840D02*
Y368839D01*
X294312Y366840D01*
Y368839D01*
X294979D02*
Y366840D01*
X295978D01*
X296312Y367173D01*
Y368506D01*
X295978Y368839D01*
X294979D01*
X265630Y310789D02*
Y308790D01*
X266630D01*
X266963Y309123D01*
Y310456D01*
X266630Y310789D01*
X265630D01*
X267629D02*
Y309456D01*
X268296Y308790D01*
X268962Y309456D01*
Y310789D01*
X269629D02*
Y308790D01*
X270628D01*
X270962Y309123D01*
Y310456D01*
X270628Y310789D01*
X269629D01*
X271628D02*
Y308790D01*
X272628D01*
X272961Y309123D01*
Y310456D01*
X272628Y310789D01*
X271628D01*
X268773Y359866D02*
X268440Y360199D01*
X267773D01*
X267440Y359866D01*
Y358533D01*
X267773Y358200D01*
X268440D01*
X268773Y358533D01*
Y359200D01*
X268106D01*
X269439Y358200D02*
Y360199D01*
X270772Y358200D01*
Y360199D01*
X271439D02*
Y358200D01*
X272438D01*
X272772Y358533D01*
Y359866D01*
X272438Y360199D01*
X271439D01*
X265730Y298470D02*
Y300469D01*
X266730D01*
X267063Y300136D01*
Y299470D01*
X266730Y299136D01*
X265730D01*
X266396D02*
X267063Y298470D01*
X269062Y300469D02*
X267729D01*
Y298470D01*
X269062D01*
X267729Y299470D02*
X268396D01*
X271062Y300136D02*
X270728Y300469D01*
X270062D01*
X269729Y300136D01*
Y299803D01*
X270062Y299470D01*
X270728D01*
X271062Y299136D01*
Y298803D01*
X270728Y298470D01*
X270062D01*
X269729Y298803D01*
X273061Y300469D02*
X271728D01*
Y298470D01*
X273061D01*
X271728Y299470D02*
X272394D01*
X273727Y300469D02*
X275060D01*
X274394D01*
Y298470D01*
X265730Y318390D02*
Y320389D01*
X266730D01*
X267063Y320056D01*
Y319390D01*
X266730Y319056D01*
X265730D01*
X267729Y320389D02*
Y318390D01*
X268396Y319056D01*
X269062Y318390D01*
Y320389D01*
X269729D02*
Y318390D01*
X270728D01*
X271062Y318723D01*
Y320056D01*
X270728Y320389D01*
X269729D01*
X271728Y318390D02*
Y320389D01*
X273061Y318390D01*
Y320389D01*
X267833Y330006D02*
X267500Y330339D01*
X266833D01*
X266500Y330006D01*
Y328673D01*
X266833Y328340D01*
X267500D01*
X267833Y328673D01*
Y329340D01*
X267166D01*
X268499Y328340D02*
Y330339D01*
X269832Y328340D01*
Y330339D01*
X270499D02*
Y328340D01*
X271498D01*
X271832Y328673D01*
Y330006D01*
X271498Y330339D01*
X270499D01*
X268303Y340156D02*
X267970Y340489D01*
X267303D01*
X266970Y340156D01*
Y338823D01*
X267303Y338490D01*
X267970D01*
X268303Y338823D01*
Y339490D01*
X267636D01*
X268969Y338490D02*
Y340489D01*
X270302Y338490D01*
Y340489D01*
X270969D02*
Y338490D01*
X271968D01*
X272302Y338823D01*
Y340156D01*
X271968Y340489D01*
X270969D01*
X268653Y350066D02*
X268320Y350399D01*
X267653D01*
X267320Y350066D01*
Y348733D01*
X267653Y348400D01*
X268320D01*
X268653Y348733D01*
Y349400D01*
X267986D01*
X269319Y348400D02*
Y350399D01*
X270652Y348400D01*
Y350399D01*
X271319D02*
Y348400D01*
X272318D01*
X272652Y348733D01*
Y350066D01*
X272318Y350399D01*
X271319D01*
X267833Y268871D02*
X266500D01*
X267833Y270204D01*
Y270538D01*
X267500Y270871D01*
X266833D01*
X266500Y270538D01*
X268499D02*
X268833Y270871D01*
X269499D01*
X269832Y270538D01*
Y269205D01*
X269499Y268871D01*
X268833D01*
X268499Y269205D01*
Y270538D01*
X225833D02*
X225500Y270871D01*
X224833D01*
X224500Y270538D01*
Y269205D01*
X224833Y268871D01*
X225500D01*
X225833Y269205D01*
X226499Y270871D02*
Y268871D01*
X227832D01*
X228499Y270871D02*
Y268871D01*
Y269538D01*
X229832Y270871D01*
X228832Y269871D01*
X229832Y268871D01*
X226833Y300166D02*
X226500Y300499D01*
X225833D01*
X225500Y300166D01*
Y298833D01*
X225833Y298500D01*
X226500D01*
X226833Y298833D01*
X228832Y300166D02*
X228499Y300499D01*
X227833D01*
X227499Y300166D01*
Y299833D01*
X227833Y299500D01*
X228499D01*
X228832Y299166D01*
Y298833D01*
X228499Y298500D01*
X227833D01*
X227499Y298833D01*
X224863Y309586D02*
X224530Y309919D01*
X223863D01*
X223530Y309586D01*
Y309253D01*
X223863Y308920D01*
X224530D01*
X224863Y308587D01*
Y308253D01*
X224530Y307920D01*
X223863D01*
X223530Y308253D01*
X226862Y309586D02*
X226529Y309919D01*
X225863D01*
X225529Y309586D01*
Y308253D01*
X225863Y307920D01*
X226529D01*
X226862Y308253D01*
X227529Y309919D02*
Y307920D01*
X228862D01*
X229528Y309919D02*
Y307920D01*
Y308587D01*
X230861Y309919D01*
X229861Y308920D01*
X230861Y307920D01*
X224000Y318420D02*
Y320419D01*
X224666Y319753D01*
X225333Y320419D01*
Y318420D01*
X225999Y320419D02*
X226666D01*
X226333D01*
Y318420D01*
X225999D01*
X226666D01*
X228998Y320086D02*
X228665Y320419D01*
X227999D01*
X227665Y320086D01*
Y319753D01*
X227999Y319420D01*
X228665D01*
X228998Y319087D01*
Y318753D01*
X228665Y318420D01*
X227999D01*
X227665Y318753D01*
X230664Y320419D02*
X229998D01*
X229665Y320086D01*
Y318753D01*
X229998Y318420D01*
X230664D01*
X230998Y318753D01*
Y320086D01*
X230664Y320419D01*
X224590Y328220D02*
Y330219D01*
X225256Y329553D01*
X225923Y330219D01*
Y328220D01*
X227589Y330219D02*
X226923D01*
X226589Y329886D01*
Y328553D01*
X226923Y328220D01*
X227589D01*
X227922Y328553D01*
Y329886D01*
X227589Y330219D01*
X229922Y329886D02*
X229588Y330219D01*
X228922D01*
X228589Y329886D01*
Y329553D01*
X228922Y329220D01*
X229588D01*
X229922Y328887D01*
Y328553D01*
X229588Y328220D01*
X228922D01*
X228589Y328553D01*
X230588Y330219D02*
X231255D01*
X230921D01*
Y328220D01*
X230588D01*
X231255D01*
X223803Y349716D02*
X223470Y350049D01*
X222803D01*
X222470Y349716D01*
Y349383D01*
X222803Y349050D01*
X223470D01*
X223803Y348716D01*
Y348383D01*
X223470Y348050D01*
X222803D01*
X222470Y348383D01*
X224469Y350049D02*
X225802D01*
X225136D01*
Y348050D01*
X226469D02*
Y349383D01*
X227135Y350049D01*
X227802Y349383D01*
Y348050D01*
Y349050D01*
X226469D01*
X228468Y348050D02*
Y350049D01*
X229468D01*
X229801Y349716D01*
Y349050D01*
X229468Y348716D01*
X228468D01*
X229134D02*
X229801Y348050D01*
X230467Y350049D02*
X231800D01*
X231134D01*
Y348050D01*
X223650Y360199D02*
Y358200D01*
X224650D01*
X224983Y358533D01*
Y359866D01*
X224650Y360199D01*
X223650D01*
X225649Y358200D02*
Y360199D01*
X226649D01*
X226982Y359866D01*
Y359200D01*
X226649Y358866D01*
X225649D01*
X226316D02*
X226982Y358200D01*
X227649Y360199D02*
Y358200D01*
X228648D01*
X228982Y358533D01*
Y359866D01*
X228648Y360199D01*
X227649D01*
X229648D02*
Y359866D01*
X230314Y359200D01*
X230981Y359866D01*
Y360199D01*
X230314Y359200D02*
Y358200D01*
X385090Y285560D02*
X386423D01*
X385756Y286226D02*
Y284893D01*
X388422Y286559D02*
X387089D01*
Y285560D01*
X387756Y285893D01*
X388089D01*
X388422Y285560D01*
Y284893D01*
X388089Y284560D01*
X387423D01*
X387089Y284893D01*
X381070Y294740D02*
Y296073D01*
X381736Y296739D01*
X382403Y296073D01*
Y294740D01*
Y295740D01*
X381070D01*
X383069Y296739D02*
Y295406D01*
X383736Y294740D01*
X384402Y295406D01*
Y296739D01*
X385069D02*
Y294740D01*
X386068D01*
X386402Y295073D01*
Y296406D01*
X386068Y296739D01*
X385069D01*
X387068D02*
Y294740D01*
X388068D01*
X388401Y295073D01*
Y296406D01*
X388068Y296739D01*
X387068D01*
X380570Y305540D02*
X381903D01*
X381237Y306206D02*
Y304873D01*
X383902Y304540D02*
X382569D01*
X383902Y305873D01*
Y306206D01*
X383569Y306539D01*
X382903D01*
X382569Y306206D01*
X384569Y304540D02*
Y304873D01*
X384902D01*
Y304540D01*
X384569D01*
X387568Y306539D02*
X386235D01*
Y305540D01*
X386901Y305873D01*
X387234D01*
X387568Y305540D01*
Y304873D01*
X387234Y304540D01*
X386568D01*
X386235Y304873D01*
X325230Y334680D02*
Y336013D01*
X325897Y336679D01*
X326563Y336013D01*
Y334680D01*
Y335680D01*
X325230D01*
X327229Y336679D02*
Y335347D01*
X327896Y334680D01*
X328562Y335347D01*
Y336679D01*
X330562Y336346D02*
X330228Y336679D01*
X329562D01*
X329229Y336346D01*
Y336013D01*
X329562Y335680D01*
X330228D01*
X330562Y335347D01*
Y335013D01*
X330228Y334680D01*
X329562D01*
X329229Y335013D01*
X332561Y336346D02*
X332228Y336679D01*
X331561D01*
X331228Y336346D01*
Y336013D01*
X331561Y335680D01*
X332228D01*
X332561Y335347D01*
Y335013D01*
X332228Y334680D01*
X331561D01*
X331228Y335013D01*
X334880Y335690D02*
X336213D01*
X338212Y334690D02*
X336879D01*
X338212Y336023D01*
Y336356D01*
X337879Y336689D01*
X337213D01*
X336879Y336356D01*
X338879Y334690D02*
Y335023D01*
X339212D01*
Y334690D01*
X338879D01*
X341878Y336689D02*
X340545D01*
Y335690D01*
X341211Y336023D01*
X341545D01*
X341878Y335690D01*
Y335023D01*
X341545Y334690D01*
X340878D01*
X340545Y335023D01*
X393970Y318260D02*
Y319593D01*
X394637Y320259D01*
X395303Y319593D01*
Y318260D01*
Y319260D01*
X393970D01*
X397302Y319926D02*
X396969Y320259D01*
X396303D01*
X395969Y319926D01*
Y318593D01*
X396303Y318260D01*
X396969D01*
X397302Y318593D01*
Y319260D01*
X396636D01*
X397969Y318260D02*
Y320259D01*
X399302Y318260D01*
Y320259D01*
X399968D02*
Y318260D01*
X400968D01*
X401301Y318593D01*
Y319926D01*
X400968Y320259D01*
X399968D01*
X399780Y268120D02*
X400447D01*
X400113D01*
Y270119D01*
X399780Y269786D01*
X401446Y268453D02*
X401779Y268120D01*
X402446D01*
X402779Y268453D01*
Y269786D01*
X402446Y270119D01*
X401779D01*
X401446Y269786D01*
Y269453D01*
X401779Y269120D01*
X402779D01*
X331060Y295209D02*
Y293210D01*
X332060D01*
X332393Y293543D01*
Y294876D01*
X332060Y295209D01*
X331060D01*
X333059D02*
Y293877D01*
X333726Y293210D01*
X334392Y293877D01*
Y295209D01*
X335059D02*
Y293210D01*
X336058D01*
X336392Y293543D01*
Y294876D01*
X336058Y295209D01*
X335059D01*
X337058D02*
Y293210D01*
X338058D01*
X338391Y293543D01*
Y294876D01*
X338058Y295209D01*
X337058D01*
X246870Y311301D02*
Y313301D01*
X247870D01*
X248203Y312967D01*
Y312301D01*
X247870Y311968D01*
X246870D01*
X250202Y311301D02*
X248869D01*
X250202Y312634D01*
Y312967D01*
X249869Y313301D01*
X249203D01*
X248869Y312967D01*
X422090Y258460D02*
Y260459D01*
X423090D01*
X423423Y260126D01*
Y259460D01*
X423090Y259126D01*
X422090D01*
X424089Y258460D02*
X424756D01*
X424423D01*
Y260459D01*
X424089Y260126D01*
X383170Y357806D02*
Y355807D01*
X384503D01*
X386169D02*
Y357806D01*
X385169Y356806D01*
X386502D01*
X327283Y351629D02*
X326616D01*
X326950D01*
Y349963D01*
X326616Y349630D01*
X326283D01*
X325950Y349963D01*
X327949Y349630D02*
Y351629D01*
X328949D01*
X329282Y351296D01*
Y350630D01*
X328949Y350296D01*
X327949D01*
X331282Y351629D02*
X330615Y351296D01*
X329949Y350630D01*
Y349963D01*
X330282Y349630D01*
X330948D01*
X331282Y349963D01*
Y350296D01*
X330948Y350630D01*
X329949D01*
X392863Y301569D02*
X392196D01*
X392530D01*
Y299903D01*
X392196Y299570D01*
X391863D01*
X391530Y299903D01*
X393529Y299570D02*
Y301569D01*
X394529D01*
X394862Y301236D01*
Y300570D01*
X394529Y300237D01*
X393529D01*
X396862Y301569D02*
X395529D01*
Y300570D01*
X396195Y300903D01*
X396528D01*
X396862Y300570D01*
Y299903D01*
X396528Y299570D01*
X395862D01*
X395529Y299903D01*
X370033Y352496D02*
X369700Y352829D01*
X369033D01*
X368700Y352496D01*
Y351163D01*
X369033Y350830D01*
X369700D01*
X370033Y351163D01*
X370699Y350830D02*
X371366D01*
X371033D01*
Y352829D01*
X370699Y352496D01*
X372365Y351163D02*
X372699Y350830D01*
X373365D01*
X373698Y351163D01*
Y352496D01*
X373365Y352829D01*
X372699D01*
X372365Y352496D01*
Y352163D01*
X372699Y351830D01*
X373698D01*
X370039Y361606D02*
X369706Y361939D01*
X369040D01*
X368706Y361606D01*
Y360273D01*
X369040Y359940D01*
X369706D01*
X370039Y360273D01*
X370706Y359940D02*
X371372D01*
X371039D01*
Y361939D01*
X370706Y361606D01*
X372372Y361939D02*
X373705D01*
Y361606D01*
X372372Y360273D01*
Y359940D01*
X389883Y270146D02*
X389550Y270479D01*
X388883D01*
X388550Y270146D01*
Y268813D01*
X388883Y268480D01*
X389550D01*
X389883Y268813D01*
X390549Y270146D02*
X390883Y270479D01*
X391549D01*
X391882Y270146D01*
Y269813D01*
X391549Y269480D01*
X391216D01*
X391549D01*
X391882Y269146D01*
Y268813D01*
X391549Y268480D01*
X390883D01*
X390549Y268813D01*
D14*
X282130Y386246D02*
Y374250D01*
X288128D01*
X290127Y376249D01*
Y378249D01*
X288128Y380248D01*
X282130D01*
X288128D01*
X290127Y382247D01*
Y384247D01*
X288128Y386246D01*
X282130D01*
X302123D02*
X294126D01*
Y374250D01*
X302123D01*
X294126Y380248D02*
X298125D01*
X306122Y374250D02*
Y382247D01*
X310121Y386246D01*
X314120Y382247D01*
Y374250D01*
Y380248D01*
X306122D01*
X318118Y386246D02*
X326116D01*
X322117D01*
Y374250D01*
X338112Y384247D02*
X336112Y386246D01*
X332114D01*
X330115Y384247D01*
Y382247D01*
X332114Y380248D01*
X336112D01*
X338112Y378249D01*
Y376249D01*
X336112Y374250D01*
X332114D01*
X330115Y376249D01*
X342111Y380248D02*
X350108D01*
X354107Y374250D02*
Y386246D01*
X358105Y382247D01*
X362104Y386246D01*
Y374250D01*
X366103Y386246D02*
Y374250D01*
X372101D01*
X374100Y376249D01*
Y378249D01*
X372101Y380248D01*
X366103D01*
X372101D01*
X374100Y382247D01*
Y384247D01*
X372101Y386246D01*
X366103D01*
X378099Y384247D02*
X380098Y386246D01*
X384097D01*
X386096Y384247D01*
Y376249D01*
X384097Y374250D01*
X380098D01*
X378099Y376249D01*
Y384247D01*
M02*
