G04*
G04 #@! TF.GenerationSoftware,Altium Limited,Altium Designer,19.0.10 (269)*
G04*
G04 Layer_Physical_Order=1*
G04 Layer_Color=255*
%FSLAX25Y25*%
%MOIN*%
G70*
G01*
G75*
%ADD10C,0.01000*%
%ADD15R,0.03150X0.03543*%
%ADD16R,0.03543X0.03150*%
%ADD17R,0.04724X0.05512*%
%ADD19R,0.05512X0.05906*%
%ADD20R,0.10236X0.04331*%
%ADD21R,0.12205X0.03937*%
%ADD22R,0.05906X0.05512*%
%ADD36R,0.02559X0.04331*%
%ADD37C,0.05906*%
%ADD38R,0.05906X0.05906*%
%ADD39R,0.05906X0.05906*%
%ADD40C,0.12598*%
%ADD41C,0.02800*%
%ADD42C,0.03500*%
D10*
X374545Y332590D02*
X374700Y332436D01*
X365340Y332590D02*
X374545D01*
X259139Y329510D02*
X275280D01*
X259130Y329501D02*
X259139Y329510D01*
X259529Y339900D02*
X275400D01*
X259130Y339501D02*
X259529Y339900D01*
X259149Y349520D02*
X275150D01*
X259130Y349501D02*
X259149Y349520D01*
X259669Y360040D02*
X275400D01*
X259130Y359501D02*
X259669Y360040D01*
X409239Y288870D02*
X409870Y289501D01*
X361160Y326680D02*
X365344D01*
X365584Y326440D01*
X397207Y332480D02*
X397630Y332057D01*
Y326110D02*
Y332057D01*
X394976Y341690D02*
X399590D01*
X394782Y341884D02*
X394976Y341690D01*
X361060Y332670D02*
X361140Y332590D01*
X365340D01*
X360610Y358360D02*
X363170Y360920D01*
X367613D01*
X360440Y351600D02*
X367387D01*
X367617Y351830D01*
X374700Y360920D02*
X384540D01*
X384737D01*
X380284Y365176D02*
X384540Y360920D01*
X361086Y365176D02*
X380284D01*
X338960Y343050D02*
X361086Y365176D01*
X384737Y360920D02*
X384870Y360787D01*
X383787Y351830D02*
X384870Y352913D01*
X374703Y351830D02*
X383787D01*
X365537Y338102D02*
X369320Y341884D01*
X365340Y338102D02*
X365537D01*
X369320Y341884D02*
X374700D01*
Y351827D01*
X374703Y351830D01*
X389270Y341884D02*
X389270Y341884D01*
X382180Y341884D02*
X389270D01*
X382180Y332436D02*
X390076D01*
X390120Y332480D01*
X378330Y327830D02*
X378385Y327885D01*
X372001Y327830D02*
X378330D01*
X370926Y326755D02*
X372001Y327830D01*
X370926Y326610D02*
Y326755D01*
X378385Y327885D02*
Y332381D01*
X378440Y332436D01*
X282590Y259820D02*
X290690Y251720D01*
X282590Y259820D02*
Y299730D01*
X290690Y251720D02*
X397660D01*
X279426Y302894D02*
X282590Y299730D01*
X273930Y302894D02*
X279426D01*
X364310Y264210D02*
X364340Y264240D01*
X273930Y308406D02*
X313744D01*
X324790Y297360D01*
X356270Y264210D02*
X364310D01*
X324790Y294370D02*
Y297360D01*
X353170Y285840D02*
Y291400D01*
X358260Y296490D01*
X226730Y297580D02*
X228651Y299501D01*
X226730Y256790D02*
Y297580D01*
Y256790D02*
X256050Y227470D01*
X315720D02*
X317800Y229550D01*
X256050Y227470D02*
X315720D01*
X228651Y299501D02*
X237870D01*
X255469Y276033D02*
X267003D01*
X250406Y270970D02*
X255469Y276033D01*
X275380Y283083D02*
Y284410D01*
X267003Y276033D02*
X275380Y284410D01*
X339970Y273710D02*
Y289260D01*
X310068Y319162D02*
X339970Y289260D01*
X274060Y319162D02*
X310068D01*
X339970Y273710D02*
X348670Y265010D01*
X324790Y294370D02*
X333840Y285320D01*
Y265390D02*
Y285320D01*
Y265390D02*
X341620Y257610D01*
X415110D02*
X417420Y259920D01*
X341620Y257610D02*
X415110D01*
X363380Y273850D02*
X363640Y274110D01*
X363120D02*
X363380Y273850D01*
X363120Y274110D02*
X363640D01*
X364340Y264240D02*
X364370Y264210D01*
X273721Y319501D02*
X274060Y319162D01*
X259130Y319501D02*
X273721D01*
X273930Y308406D02*
X274060Y308536D01*
Y313650D01*
X272855Y309481D02*
X273930Y308406D01*
X259151Y309481D02*
X272855D01*
X259130Y309501D02*
X259151Y309481D01*
X259130Y299501D02*
X270340D01*
X273733Y302894D01*
X273930D01*
X239339Y270970D02*
X250406D01*
X237870Y269501D02*
X239339Y270970D01*
X374850Y305660D02*
X394120D01*
X356380Y324130D02*
X374850Y305660D01*
X409940Y311539D02*
Y319940D01*
X382340Y285660D02*
X394120D01*
X382250Y285750D02*
X382340Y285660D01*
X408402Y270970D02*
X409870Y269501D01*
X363640Y274110D02*
X377260D01*
X376632Y275518D02*
X377260Y274890D01*
X376632Y275518D02*
Y283494D01*
X374376Y285750D02*
X376632Y283494D01*
X363640Y274110D02*
X364370Y274840D01*
X415920Y261420D02*
X417420Y259920D01*
X392965Y261420D02*
X415920D01*
X390180Y264205D02*
X392965Y261420D01*
X390855Y274160D02*
X397880D01*
X390180Y274835D02*
X390855Y274160D01*
X400780Y320620D02*
X401366Y320034D01*
X409846D01*
X409940Y319940D01*
X409900Y271100D02*
X414034D01*
X367617Y351830D02*
X367774Y351987D01*
X259130Y329501D02*
Y339501D01*
Y309501D02*
X259158Y309530D01*
X259130Y339501D02*
Y349501D01*
Y359501D01*
X377260Y274890D02*
X377311Y274941D01*
X384870Y360787D02*
X386264Y359392D01*
X378440Y332436D02*
X382180D01*
Y341884D02*
X382653Y342357D01*
X382705Y355078D02*
X384870Y352913D01*
X365163Y338279D02*
X365340Y338102D01*
X388660Y341274D02*
X389270Y341884D01*
X370926Y326610D02*
X371469Y327153D01*
X318960Y343050D02*
X320641Y344731D01*
X373920Y331656D02*
X374700Y332436D01*
D15*
X365414Y326610D02*
D03*
X370926D02*
D03*
X394782Y341884D02*
D03*
X389270D02*
D03*
D16*
X365340Y332590D02*
D03*
Y338102D02*
D03*
X273930Y302894D02*
D03*
Y308406D02*
D03*
X274060Y319162D02*
D03*
Y313650D02*
D03*
D17*
X390120Y332480D02*
D03*
X397207D02*
D03*
X367613Y360920D02*
D03*
X374700D02*
D03*
X367617Y351830D02*
D03*
X374703D02*
D03*
D19*
X374376Y285750D02*
D03*
X382250D02*
D03*
D20*
X364370Y264210D02*
D03*
Y274840D02*
D03*
X390180Y264205D02*
D03*
Y274835D02*
D03*
D21*
X259130Y309501D02*
D03*
X237870D02*
D03*
X259130Y339501D02*
D03*
X237870D02*
D03*
X259130Y349501D02*
D03*
X237870D02*
D03*
X259130Y359501D02*
D03*
X237870D02*
D03*
Y329501D02*
D03*
X259130D02*
D03*
X237870Y319501D02*
D03*
X259130D02*
D03*
X237870Y299501D02*
D03*
X259130D02*
D03*
X237870Y289501D02*
D03*
X259130D02*
D03*
X237870Y279501D02*
D03*
Y269501D02*
D03*
X259130Y279501D02*
D03*
Y269501D02*
D03*
X431130Y269501D02*
D03*
Y279501D02*
D03*
X409870Y269501D02*
D03*
Y279501D02*
D03*
X431130Y289501D02*
D03*
X409870D02*
D03*
X431130Y299501D02*
D03*
X409870D02*
D03*
X431130Y319501D02*
D03*
X409870D02*
D03*
X431130Y329501D02*
D03*
X409870D02*
D03*
Y359501D02*
D03*
X431130D02*
D03*
X409870Y349501D02*
D03*
X431130D02*
D03*
X409870Y339501D02*
D03*
X431130D02*
D03*
X409870Y309501D02*
D03*
X431130D02*
D03*
D22*
X384870Y352913D02*
D03*
Y360787D02*
D03*
D36*
X374700Y341884D02*
D03*
X382180D02*
D03*
Y332436D02*
D03*
X378440D02*
D03*
X374700D02*
D03*
D37*
X377260Y274890D02*
D03*
X348670Y265010D02*
D03*
X324790Y284370D02*
D03*
X275380Y284410D02*
D03*
X338960Y343050D02*
D03*
X328960D02*
D03*
X394120Y285660D02*
D03*
Y295660D02*
D03*
D38*
X377260Y264890D02*
D03*
X348670Y275010D02*
D03*
X324790Y294370D02*
D03*
X275380Y294410D02*
D03*
X394120Y305660D02*
D03*
D39*
X318960Y343050D02*
D03*
D40*
X234420Y379650D02*
D03*
X431340D02*
D03*
D41*
X291140Y326350D02*
D03*
X275400Y360040D02*
D03*
X275150Y349520D02*
D03*
X275400Y339900D02*
D03*
X275280Y329510D02*
D03*
X318960Y343050D02*
D03*
X361160Y326680D02*
D03*
X397630Y326110D02*
D03*
X399590Y341690D02*
D03*
X400790Y320170D02*
D03*
X307910Y326590D02*
D03*
X315150Y320090D02*
D03*
X343280Y317320D02*
D03*
X361060Y332670D02*
D03*
X360440Y351600D02*
D03*
X360610Y358360D02*
D03*
X378330Y327830D02*
D03*
X298780Y284120D02*
D03*
X298990Y301830D02*
D03*
X356270Y264210D02*
D03*
X353170Y285840D02*
D03*
X358260Y296490D02*
D03*
X407760Y229399D02*
D03*
X367760D02*
D03*
X337760D02*
D03*
X292760Y233565D02*
D03*
X317800Y229550D02*
D03*
X397660Y251720D02*
D03*
X237720Y349410D02*
D03*
X238100Y359410D02*
D03*
X356380Y324130D02*
D03*
X409470Y269410D02*
D03*
X409530Y289490D02*
D03*
X397880Y274160D02*
D03*
X417420Y259920D02*
D03*
D42*
X237870Y329501D02*
D03*
Y309501D02*
D03*
Y319501D02*
D03*
M02*
