G04*
G04 #@! TF.GenerationSoftware,Altium Limited,Altium Designer,19.0.10 (269)*
G04*
G04 Layer_Physical_Order=2*
G04 Layer_Color=16711680*
%FSLAX25Y25*%
%MOIN*%
G70*
G01*
G75*
%ADD10C,0.01000*%
%ADD15R,0.03150X0.03543*%
%ADD16R,0.03543X0.03150*%
%ADD17R,0.04724X0.05512*%
%ADD19R,0.05512X0.05906*%
%ADD37C,0.05906*%
%ADD38R,0.05906X0.05906*%
%ADD39R,0.05906X0.05906*%
%ADD40C,0.12598*%
%ADD41C,0.02800*%
%ADD42C,0.03500*%
%ADD43R,0.03937X0.01575*%
%ADD44O,0.03937X0.01575*%
%ADD45R,0.05800X0.02200*%
%ADD46R,0.07087X0.07874*%
%ADD47R,0.05512X0.04724*%
%ADD48R,0.04016X0.07480*%
G36*
X423370Y272150D02*
X414169Y262949D01*
X396052D01*
X392952Y266049D01*
Y269095D01*
X392952Y269233D01*
Y269595D01*
X392952Y269733D01*
Y271670D01*
X390180D01*
X387408D01*
Y269733D01*
X387408Y269595D01*
Y269233D01*
X387408Y269095D01*
Y264083D01*
X390592D01*
X394337Y260339D01*
X394798Y260030D01*
X394803Y259994D01*
X394506Y259530D01*
X385400D01*
X381213Y263717D01*
Y268843D01*
X376087D01*
X373881Y271049D01*
X373996Y271328D01*
X374119Y271518D01*
X374669Y271628D01*
X374855Y271753D01*
X375267Y271437D01*
X376228Y271039D01*
X377260Y270903D01*
X378292Y271039D01*
X379253Y271437D01*
X380079Y272071D01*
X380713Y272897D01*
X381111Y273858D01*
X381247Y274890D01*
X381111Y275922D01*
X380713Y276883D01*
X380079Y277709D01*
X379253Y278343D01*
X378292Y278741D01*
X377260Y278877D01*
X376228Y278741D01*
X375764Y278549D01*
X375193Y279120D01*
X374697Y279451D01*
X374111Y279568D01*
X373125D01*
X368625Y284067D01*
Y289416D01*
X362039D01*
X361901Y289416D01*
X361539D01*
X361401Y289416D01*
X358677D01*
Y285660D01*
Y281904D01*
X361401D01*
X361539Y281904D01*
X361901D01*
X362039Y281904D01*
X366463D01*
X371410Y276957D01*
X371906Y276626D01*
X372491Y276509D01*
X373111D01*
X373445Y276009D01*
X373409Y275922D01*
X373273Y274890D01*
X372993Y274570D01*
X370360D01*
X368610Y276320D01*
X352623D01*
Y278963D01*
X349170D01*
Y275010D01*
X348170D01*
Y278963D01*
X344717D01*
Y276320D01*
X343670D01*
Y289450D01*
X331651Y301468D01*
X331898Y301929D01*
X331958Y301917D01*
X334320D01*
X335017Y302056D01*
X335608Y302451D01*
X336003Y303042D01*
X336109Y303571D01*
X336564Y303765D01*
X336619Y303768D01*
X337729Y302658D01*
X338225Y302327D01*
X338810Y302210D01*
X339690D01*
X339921Y302056D01*
X340619Y301917D01*
X342981D01*
X343678Y302056D01*
X343910Y302210D01*
X345413D01*
Y301165D01*
X346655D01*
Y296006D01*
X346771Y295421D01*
X347103Y294924D01*
X351099Y290929D01*
X351595Y290597D01*
X352180Y290481D01*
X376818D01*
Y289435D01*
X382362D01*
Y290481D01*
X388166D01*
X390809Y287838D01*
X390667Y287653D01*
X390269Y286692D01*
X390133Y285660D01*
X390269Y284628D01*
X390667Y283667D01*
X391301Y282841D01*
X392127Y282207D01*
X393088Y281809D01*
X394120Y281673D01*
X395152Y281809D01*
X396113Y282207D01*
X396939Y282841D01*
X397573Y283667D01*
X397971Y284628D01*
X398107Y285660D01*
X397971Y286692D01*
X397573Y287653D01*
X396939Y288479D01*
X396113Y289113D01*
X395152Y289511D01*
X394120Y289647D01*
X393418Y289555D01*
X389881Y293091D01*
X389385Y293423D01*
X388800Y293539D01*
X382362D01*
Y294447D01*
X382362Y294585D01*
X382362D01*
Y294947D01*
X382362D01*
Y297022D01*
X379590D01*
Y298022D01*
X382362D01*
Y299659D01*
X382422D01*
Y301734D01*
X379650D01*
Y302734D01*
X382422D01*
Y304809D01*
X382422D01*
Y305171D01*
X382422D01*
Y308355D01*
X388191Y314124D01*
X388523Y314621D01*
X388639Y315206D01*
Y318527D01*
X390053D01*
Y326433D01*
X382679D01*
X382541Y326433D01*
X382179D01*
X382041Y326433D01*
X380813D01*
X380609Y326815D01*
X380598Y326933D01*
X380777Y327830D01*
X380591Y328766D01*
X380060Y329560D01*
X379266Y330091D01*
X378330Y330277D01*
X377394Y330091D01*
X376600Y329560D01*
X376069Y328766D01*
X375883Y327830D01*
X376062Y326933D01*
X376051Y326815D01*
X375847Y326433D01*
X374667D01*
Y318527D01*
X382041D01*
X382179Y318527D01*
X382541D01*
X382679Y318527D01*
X385581D01*
Y315839D01*
X380062Y310321D01*
X376878D01*
Y309069D01*
X372340D01*
Y309640D01*
X365179D01*
Y314008D01*
X366511D01*
Y319552D01*
X361361D01*
Y319552D01*
X360999D01*
Y319552D01*
X355849D01*
Y314008D01*
X357511D01*
Y309640D01*
X355140D01*
Y305440D01*
X362120D01*
Y302469D01*
X361867Y302160D01*
X359540D01*
Y300060D01*
X359040D01*
Y299560D01*
X355140D01*
Y297960D01*
X355825D01*
X356061Y297519D01*
X355999Y297426D01*
X355912Y296990D01*
X360608D01*
X360521Y297426D01*
X360459Y297519D01*
X360695Y297960D01*
X362940D01*
Y300362D01*
X363402Y300554D01*
X363837Y300118D01*
X364333Y299787D01*
X364540Y299746D01*
Y297960D01*
X372340D01*
Y299465D01*
X372802Y299656D01*
X373610Y298848D01*
Y296263D01*
X373727Y295678D01*
X374058Y295182D01*
X375239Y294001D01*
X375048Y293539D01*
X352814D01*
X349714Y296639D01*
Y301165D01*
X350956D01*
Y306177D01*
X350956Y306315D01*
Y306677D01*
X350956Y306815D01*
Y308752D01*
X348184D01*
X345413D01*
Y306815D01*
X345413Y306677D01*
Y306315D01*
X345413Y306177D01*
Y305269D01*
X343910D01*
X343815Y305332D01*
X343792Y305412D01*
Y305808D01*
X343815Y305888D01*
X344270Y306191D01*
X344665Y306783D01*
X344704Y306980D01*
X341800D01*
Y307980D01*
X344704D01*
X344665Y308177D01*
X344270Y308769D01*
X344024Y308933D01*
X344176Y309433D01*
X344769D01*
Y313008D01*
X342235D01*
X342087Y313037D01*
X341940Y313008D01*
X338831D01*
Y312750D01*
X338650D01*
X338065Y312633D01*
X337569Y312302D01*
X336625Y311357D01*
X336082Y311522D01*
X336003Y311918D01*
X335608Y312509D01*
X335017Y312904D01*
X334668Y312973D01*
Y314398D01*
X335961D01*
X336099Y314398D01*
X336461D01*
X336599Y314398D01*
X338536D01*
Y317170D01*
Y319942D01*
X336599D01*
X336461Y319942D01*
X336099D01*
X335961Y319942D01*
X335053D01*
Y322507D01*
X337181D01*
X337319Y322507D01*
X337681D01*
X337819Y322507D01*
X345193D01*
Y323071D01*
X345824D01*
Y320749D01*
X345824Y320611D01*
Y320249D01*
X345824Y320111D01*
Y318732D01*
X345324Y318581D01*
X345010Y319050D01*
X344216Y319581D01*
X343780Y319668D01*
Y317320D01*
Y314972D01*
X344216Y315059D01*
X345010Y315590D01*
X345324Y316059D01*
X345824Y315908D01*
Y313525D01*
X349080D01*
Y316887D01*
X349580D01*
Y317387D01*
X353336D01*
Y320111D01*
X353336Y320249D01*
Y320611D01*
X353336Y320749D01*
Y322601D01*
X354516D01*
X354650Y322400D01*
X355444Y321869D01*
X356380Y321683D01*
X357316Y321869D01*
X358110Y322400D01*
X358641Y323194D01*
X358827Y324130D01*
X358641Y325066D01*
X358110Y325860D01*
X357316Y326391D01*
X356380Y326577D01*
X355444Y326391D01*
X354650Y325860D01*
X354516Y325659D01*
X353336D01*
Y327336D01*
X345824D01*
Y326129D01*
X345193D01*
Y330413D01*
X337819D01*
X337681Y330413D01*
X337319D01*
X337181Y330413D01*
X329827D01*
X329807Y330413D01*
Y330413D01*
X329392Y330256D01*
X329392Y330256D01*
X322806D01*
X322668Y330256D01*
X322306D01*
X322168Y330256D01*
X319443D01*
Y326500D01*
X318943D01*
Y326000D01*
X315581D01*
Y322961D01*
X315168Y322533D01*
X315150Y322537D01*
X314214Y322351D01*
X313420Y321820D01*
X312889Y321026D01*
X312802Y320590D01*
X315150D01*
Y320090D01*
X315650D01*
Y317742D01*
X316086Y317829D01*
X316197Y317903D01*
X316638Y317668D01*
X316638Y316683D01*
X316145Y316520D01*
X305490D01*
X304080Y317930D01*
Y323688D01*
X304641D01*
Y329232D01*
X304080D01*
Y368025D01*
X303960Y368390D01*
X307400Y371830D01*
X423370D01*
Y272150D01*
D02*
G37*
G36*
X298020Y371820D02*
X298020Y329232D01*
X297054D01*
Y326460D01*
Y323688D01*
X298020D01*
Y312990D01*
X312200Y312990D01*
X326405Y298785D01*
X326214Y298323D01*
X320837D01*
Y290417D01*
X328743D01*
Y295794D01*
X329205Y295985D01*
X338460Y286730D01*
Y271600D01*
X344717D01*
Y271057D01*
X352623D01*
Y271600D01*
X361848D01*
Y269529D01*
X361848Y269391D01*
Y269029D01*
X361848Y268891D01*
Y266954D01*
X367392D01*
Y268891D01*
X367392Y269029D01*
Y269391D01*
X367392Y269529D01*
Y270385D01*
X367854Y270576D01*
X373307Y265123D01*
Y260937D01*
X377493D01*
X384752Y253678D01*
Y247100D01*
X390768D01*
Y247100D01*
X391165Y247265D01*
X398760Y239670D01*
X412000D01*
Y222029D01*
X230933D01*
X224259Y228703D01*
Y371820D01*
X298020Y371820D01*
D02*
G37*
%LPC*%
G36*
X361110Y360708D02*
Y358860D01*
X362958D01*
X362871Y359296D01*
X362340Y360090D01*
X361546Y360621D01*
X361110Y360708D01*
D02*
G37*
G36*
X360110D02*
X359674Y360621D01*
X358880Y360090D01*
X358349Y359296D01*
X358262Y358860D01*
X360110D01*
Y360708D01*
D02*
G37*
G36*
X362958Y357860D02*
X361110D01*
Y356012D01*
X361546Y356099D01*
X362340Y356630D01*
X362871Y357424D01*
X362958Y357860D01*
D02*
G37*
G36*
X360110D02*
X358262D01*
X358349Y357424D01*
X358880Y356630D01*
X359674Y356099D01*
X360110Y356012D01*
Y357860D01*
D02*
G37*
G36*
X360940Y353948D02*
Y352100D01*
X362788D01*
X362701Y352536D01*
X362170Y353330D01*
X361376Y353861D01*
X360940Y353948D01*
D02*
G37*
G36*
X359940D02*
X359504Y353861D01*
X358710Y353330D01*
X358179Y352536D01*
X358092Y352100D01*
X359940D01*
Y353948D01*
D02*
G37*
G36*
X362788Y351100D02*
X360940D01*
Y349252D01*
X361376Y349339D01*
X362170Y349870D01*
X362701Y350664D01*
X362788Y351100D01*
D02*
G37*
G36*
X359940D02*
X358092D01*
X358179Y350664D01*
X358710Y349870D01*
X359504Y349339D01*
X359940Y349252D01*
Y351100D01*
D02*
G37*
G36*
X322913Y347003D02*
X319460D01*
Y343550D01*
X322913D01*
Y347003D01*
D02*
G37*
G36*
X318460D02*
X315007D01*
Y343550D01*
X318460D01*
Y347003D01*
D02*
G37*
G36*
X400090Y344038D02*
Y342190D01*
X401938D01*
X401851Y342626D01*
X401320Y343420D01*
X400526Y343951D01*
X400090Y344038D01*
D02*
G37*
G36*
X399090D02*
X398654Y343951D01*
X397860Y343420D01*
X397329Y342626D01*
X397242Y342190D01*
X399090D01*
Y344038D01*
D02*
G37*
G36*
X401938Y341190D02*
X400090D01*
Y339342D01*
X400526Y339429D01*
X401320Y339960D01*
X401851Y340754D01*
X401938Y341190D01*
D02*
G37*
G36*
X399090D02*
X397242D01*
X397329Y340754D01*
X397860Y339960D01*
X398654Y339429D01*
X399090Y339342D01*
Y341190D01*
D02*
G37*
G36*
X322913Y342550D02*
X319460D01*
Y339097D01*
X322913D01*
Y342550D01*
D02*
G37*
G36*
X318460D02*
X315007D01*
Y339097D01*
X318460D01*
Y342550D01*
D02*
G37*
G36*
X338960Y347037D02*
X337928Y346901D01*
X336967Y346503D01*
X336141Y345869D01*
X335507Y345043D01*
X335109Y344082D01*
X334973Y343050D01*
X335109Y342018D01*
X335507Y341057D01*
X336141Y340231D01*
X336967Y339597D01*
X337928Y339199D01*
X338960Y339063D01*
X339992Y339199D01*
X340953Y339597D01*
X341779Y340231D01*
X342413Y341057D01*
X342811Y342018D01*
X342947Y343050D01*
X342811Y344082D01*
X342413Y345043D01*
X341779Y345869D01*
X340953Y346503D01*
X339992Y346901D01*
X338960Y347037D01*
D02*
G37*
G36*
X361560Y335018D02*
Y333170D01*
X363408D01*
X363321Y333606D01*
X362790Y334400D01*
X361996Y334931D01*
X361560Y335018D01*
D02*
G37*
G36*
X360560D02*
X360124Y334931D01*
X359330Y334400D01*
X358799Y333606D01*
X358712Y333170D01*
X360560D01*
Y335018D01*
D02*
G37*
G36*
X363408Y332170D02*
X361560D01*
Y330322D01*
X361996Y330409D01*
X362790Y330940D01*
X363321Y331734D01*
X363408Y332170D01*
D02*
G37*
G36*
X360560D02*
X358712D01*
X358799Y331734D01*
X359330Y330940D01*
X360124Y330409D01*
X360560Y330322D01*
Y332170D01*
D02*
G37*
G36*
X361660Y329028D02*
Y327180D01*
X363508D01*
X363421Y327616D01*
X362890Y328410D01*
X362096Y328941D01*
X361660Y329028D01*
D02*
G37*
G36*
X360660D02*
X360224Y328941D01*
X359430Y328410D01*
X358899Y327616D01*
X358812Y327180D01*
X360660D01*
Y329028D01*
D02*
G37*
G36*
X308410Y328938D02*
Y327090D01*
X310258D01*
X310171Y327526D01*
X309640Y328320D01*
X308846Y328851D01*
X308410Y328938D01*
D02*
G37*
G36*
X307410D02*
X306974Y328851D01*
X306180Y328320D01*
X305649Y327526D01*
X305562Y327090D01*
X307410D01*
Y328938D01*
D02*
G37*
G36*
X318443Y330256D02*
X315581D01*
Y327000D01*
X318443D01*
Y330256D01*
D02*
G37*
G36*
X398130Y328458D02*
Y326610D01*
X399978D01*
X399891Y327046D01*
X399360Y327840D01*
X398566Y328371D01*
X398130Y328458D01*
D02*
G37*
G36*
X397130D02*
X396694Y328371D01*
X395900Y327840D01*
X395369Y327046D01*
X395282Y326610D01*
X397130D01*
Y328458D01*
D02*
G37*
G36*
X363508Y326180D02*
X361660D01*
Y324332D01*
X362096Y324419D01*
X362890Y324950D01*
X363421Y325744D01*
X363508Y326180D01*
D02*
G37*
G36*
X360660D02*
X358812D01*
X358899Y325744D01*
X359430Y324950D01*
X360224Y324419D01*
X360660Y324332D01*
Y326180D01*
D02*
G37*
G36*
X310258Y326090D02*
X308410D01*
Y324242D01*
X308846Y324329D01*
X309640Y324860D01*
X310171Y325654D01*
X310258Y326090D01*
D02*
G37*
G36*
X307410D02*
X305562D01*
X305649Y325654D01*
X306180Y324860D01*
X306974Y324329D01*
X307410Y324242D01*
Y326090D01*
D02*
G37*
G36*
X399978Y325610D02*
X398130D01*
Y323762D01*
X398566Y323849D01*
X399360Y324380D01*
X399891Y325174D01*
X399978Y325610D01*
D02*
G37*
G36*
X397130D02*
X395282D01*
X395369Y325174D01*
X395900Y324380D01*
X396694Y323849D01*
X397130Y323762D01*
Y325610D01*
D02*
G37*
G36*
X401290Y322518D02*
Y320670D01*
X403138D01*
X403051Y321106D01*
X402520Y321900D01*
X401726Y322431D01*
X401290Y322518D01*
D02*
G37*
G36*
X400290D02*
X399854Y322431D01*
X399060Y321900D01*
X398529Y321106D01*
X398442Y320670D01*
X400290D01*
Y322518D01*
D02*
G37*
G36*
X403138Y319670D02*
X401290D01*
Y317822D01*
X401726Y317909D01*
X402520Y318440D01*
X403051Y319234D01*
X403138Y319670D01*
D02*
G37*
G36*
X400290D02*
X398442D01*
X398529Y319234D01*
X399060Y318440D01*
X399854Y317909D01*
X400290Y317822D01*
Y319670D01*
D02*
G37*
G36*
X314650Y319590D02*
X312802D01*
X312889Y319154D01*
X313420Y318360D01*
X314214Y317829D01*
X314650Y317742D01*
Y319590D01*
D02*
G37*
G36*
X339536Y319942D02*
Y317170D01*
Y314398D01*
X341611D01*
Y315019D01*
X342052Y315254D01*
X342344Y315059D01*
X342780Y314972D01*
Y317320D01*
Y319668D01*
X342344Y319581D01*
X342052Y319386D01*
X341611Y319621D01*
Y319942D01*
X339536D01*
D02*
G37*
G36*
X353336Y316387D02*
X350080D01*
Y313525D01*
X353336D01*
Y316387D01*
D02*
G37*
G36*
X350956Y311826D02*
X348684D01*
Y309752D01*
X350956D01*
Y311826D01*
D02*
G37*
G36*
X347684D02*
X345413D01*
Y309752D01*
X347684D01*
Y311826D01*
D02*
G37*
G36*
X398073Y309613D02*
X390167D01*
Y301707D01*
X398073D01*
Y309613D01*
D02*
G37*
G36*
X358540Y302160D02*
X355140D01*
Y300560D01*
X358540D01*
Y302160D01*
D02*
G37*
G36*
X360608Y295990D02*
X358760D01*
Y294142D01*
X359196Y294229D01*
X359990Y294760D01*
X360521Y295554D01*
X360608Y295990D01*
D02*
G37*
G36*
X357760D02*
X355912D01*
X355999Y295554D01*
X356530Y294760D01*
X357324Y294229D01*
X357760Y294142D01*
Y295990D01*
D02*
G37*
G36*
X419024Y371069D02*
X355450D01*
X354865Y370953D01*
X354369Y370621D01*
X330456Y346709D01*
X329992Y346901D01*
X328960Y347037D01*
X327928Y346901D01*
X326967Y346503D01*
X326141Y345869D01*
X325507Y345043D01*
X325109Y344082D01*
X324973Y343050D01*
X325109Y342018D01*
X325507Y341057D01*
X326141Y340231D01*
X326967Y339597D01*
X327928Y339199D01*
X328960Y339063D01*
X329992Y339199D01*
X330953Y339597D01*
X331779Y340231D01*
X332413Y341057D01*
X332811Y342018D01*
X332947Y343050D01*
X332811Y344082D01*
X332619Y344546D01*
X356083Y368011D01*
X418081D01*
Y300203D01*
X409767Y291890D01*
X409530Y291937D01*
X408594Y291751D01*
X407800Y291220D01*
X407269Y290426D01*
X407083Y289490D01*
X407269Y288554D01*
X407800Y287760D01*
X408001Y287626D01*
Y284832D01*
X407098D01*
Y279820D01*
X407098Y279682D01*
Y279320D01*
X407098Y279182D01*
Y274652D01*
X406599Y274444D01*
X402079Y278963D01*
Y292860D01*
X401963Y293445D01*
X401631Y293941D01*
X399581Y295991D01*
X399085Y296323D01*
X398500Y296440D01*
X398004D01*
X397971Y296692D01*
X397573Y297653D01*
X396939Y298479D01*
X396113Y299113D01*
X395152Y299511D01*
X394120Y299647D01*
X393088Y299511D01*
X392127Y299113D01*
X391301Y298479D01*
X390667Y297653D01*
X390269Y296692D01*
X390133Y295660D01*
X390269Y294628D01*
X390667Y293667D01*
X391301Y292841D01*
X392127Y292207D01*
X393088Y291809D01*
X394120Y291673D01*
X395152Y291809D01*
X396113Y292207D01*
X396939Y292841D01*
X397353Y293381D01*
X397866D01*
X399021Y292227D01*
Y278330D01*
X399137Y277745D01*
X399469Y277249D01*
X407070Y269647D01*
X407023Y269410D01*
X407209Y268474D01*
X407740Y267680D01*
X408534Y267149D01*
X409470Y266963D01*
X410406Y267149D01*
X411200Y267680D01*
X411731Y268474D01*
X411917Y269410D01*
X411731Y270346D01*
X411200Y271140D01*
X410999Y271274D01*
Y274171D01*
X412642D01*
Y279182D01*
X412642Y279320D01*
Y279682D01*
X412642Y279820D01*
Y284832D01*
X411059D01*
Y287626D01*
X411260Y287760D01*
X411791Y288554D01*
X411977Y289490D01*
X411930Y289727D01*
X420691Y298489D01*
X421023Y298985D01*
X421139Y299570D01*
Y368954D01*
X421023Y369539D01*
X420691Y370036D01*
X420106Y370621D01*
X419609Y370953D01*
X419024Y371069D01*
D02*
G37*
G36*
X357677Y289416D02*
X354815D01*
Y288158D01*
X354374Y287922D01*
X354106Y288101D01*
X353670Y288188D01*
Y285840D01*
Y283492D01*
X354106Y283579D01*
X354374Y283758D01*
X354815Y283522D01*
Y281904D01*
X357677D01*
Y285660D01*
Y289416D01*
D02*
G37*
G36*
X352670Y288188D02*
X352234Y288101D01*
X351440Y287570D01*
X350909Y286776D01*
X350822Y286340D01*
X352670D01*
Y288188D01*
D02*
G37*
G36*
Y285340D02*
X350822D01*
X350909Y284904D01*
X351440Y284110D01*
X352234Y283579D01*
X352670Y283492D01*
Y285340D01*
D02*
G37*
G36*
X398380Y276508D02*
Y274660D01*
X400228D01*
X400141Y275096D01*
X399610Y275890D01*
X398816Y276421D01*
X398380Y276508D01*
D02*
G37*
G36*
X397380D02*
X396944Y276421D01*
X396150Y275890D01*
X395619Y275096D01*
X395532Y274660D01*
X397380D01*
Y276508D01*
D02*
G37*
G36*
X392952Y274745D02*
X390680D01*
Y272670D01*
X392952D01*
Y274745D01*
D02*
G37*
G36*
X389680D02*
X387408D01*
Y272670D01*
X389680D01*
Y274745D01*
D02*
G37*
G36*
X400228Y273660D02*
X398380D01*
Y271812D01*
X398816Y271899D01*
X399610Y272430D01*
X400141Y273224D01*
X400228Y273660D01*
D02*
G37*
G36*
X397380D02*
X395532D01*
X395619Y273224D01*
X396150Y272430D01*
X396944Y271899D01*
X397380Y271812D01*
Y273660D01*
D02*
G37*
G36*
X275900Y362388D02*
Y360540D01*
X277748D01*
X277661Y360976D01*
X277130Y361770D01*
X276336Y362301D01*
X275900Y362388D01*
D02*
G37*
G36*
X274900D02*
X274464Y362301D01*
X273670Y361770D01*
X273139Y360976D01*
X273052Y360540D01*
X274900D01*
Y362388D01*
D02*
G37*
G36*
X277748Y359540D02*
X275900D01*
Y357692D01*
X276336Y357779D01*
X277130Y358310D01*
X277661Y359104D01*
X277748Y359540D01*
D02*
G37*
G36*
X274900D02*
X273052D01*
X273139Y359104D01*
X273670Y358310D01*
X274464Y357779D01*
X274900Y357692D01*
Y359540D01*
D02*
G37*
G36*
X275650Y351868D02*
Y350020D01*
X277498D01*
X277411Y350456D01*
X276880Y351250D01*
X276086Y351781D01*
X275650Y351868D01*
D02*
G37*
G36*
X274650D02*
X274214Y351781D01*
X273420Y351250D01*
X272889Y350456D01*
X272802Y350020D01*
X274650D01*
Y351868D01*
D02*
G37*
G36*
X277498Y349020D02*
X275650D01*
Y347172D01*
X276086Y347259D01*
X276880Y347790D01*
X277411Y348584D01*
X277498Y349020D01*
D02*
G37*
G36*
X274650D02*
X272802D01*
X272889Y348584D01*
X273420Y347790D01*
X274214Y347259D01*
X274650Y347172D01*
Y349020D01*
D02*
G37*
G36*
X275900Y342248D02*
Y340400D01*
X277748D01*
X277661Y340836D01*
X277130Y341630D01*
X276336Y342161D01*
X275900Y342248D01*
D02*
G37*
G36*
X274900D02*
X274464Y342161D01*
X273670Y341630D01*
X273139Y340836D01*
X273052Y340400D01*
X274900D01*
Y342248D01*
D02*
G37*
G36*
X238100Y361857D02*
X237164Y361671D01*
X236370Y361140D01*
X235839Y360346D01*
X235653Y359410D01*
X235839Y358474D01*
X236370Y357680D01*
X237164Y357149D01*
X238100Y356963D01*
X238337Y357010D01*
X249661Y345687D01*
Y340339D01*
X249161Y340132D01*
X240120Y349173D01*
X240167Y349410D01*
X239981Y350346D01*
X239450Y351140D01*
X238656Y351671D01*
X237720Y351857D01*
X236784Y351671D01*
X235990Y351140D01*
X235459Y350346D01*
X235273Y349410D01*
X235459Y348474D01*
X235990Y347680D01*
X236784Y347149D01*
X237720Y346963D01*
X237957Y347010D01*
X246711Y338257D01*
Y321699D01*
X246342Y321544D01*
X246211Y321532D01*
X239993Y327750D01*
X240272Y328115D01*
X240549Y328783D01*
X240644Y329501D01*
X240549Y330219D01*
X240272Y330888D01*
X239831Y331463D01*
X239257Y331904D01*
X238588Y332181D01*
X237870Y332275D01*
X237152Y332181D01*
X236483Y331904D01*
X235909Y331463D01*
X235468Y330888D01*
X235191Y330219D01*
X235096Y329501D01*
X235191Y328783D01*
X235468Y328115D01*
X235909Y327540D01*
X236465Y327114D01*
X236789Y326628D01*
X243631Y319787D01*
Y314939D01*
X243131Y314732D01*
X240045Y317818D01*
X240272Y318114D01*
X240549Y318783D01*
X240644Y319501D01*
X240549Y320219D01*
X240272Y320888D01*
X239831Y321463D01*
X239257Y321903D01*
X238588Y322181D01*
X237870Y322275D01*
X237152Y322181D01*
X236483Y321903D01*
X235909Y321463D01*
X235468Y320888D01*
X235191Y320219D01*
X235096Y319501D01*
X235191Y318783D01*
X235468Y318114D01*
X235909Y317540D01*
X236483Y317099D01*
X236581Y317058D01*
X236789Y316748D01*
X240811Y312726D01*
Y310895D01*
X240311Y310795D01*
X240272Y310888D01*
X239831Y311463D01*
X239257Y311904D01*
X238588Y312181D01*
X237870Y312275D01*
X237152Y312181D01*
X236483Y311904D01*
X235909Y311463D01*
X235577Y311031D01*
X234301D01*
X233716Y310914D01*
X233220Y310583D01*
X227659Y305021D01*
X227327Y304525D01*
X227211Y303940D01*
Y262200D01*
X227327Y261615D01*
X227659Y261119D01*
X230169Y258609D01*
X230665Y258277D01*
X231250Y258161D01*
X309277D01*
X310357Y257080D01*
X310150Y256580D01*
X304752D01*
Y247100D01*
X310768D01*
Y255962D01*
X311268Y256169D01*
X314752Y252685D01*
Y247100D01*
X320768D01*
Y255611D01*
X321230Y255803D01*
X324752Y252280D01*
Y247100D01*
X330768D01*
Y253885D01*
X331230Y254077D01*
X334548Y250759D01*
X334752Y250622D01*
Y247100D01*
X340768D01*
Y256528D01*
X340768Y256580D01*
X340894Y257028D01*
X344626D01*
X344752Y256580D01*
X344752D01*
Y247100D01*
X350768D01*
Y253885D01*
X351230Y254077D01*
X351308Y253999D01*
X351804Y253667D01*
X352389Y253551D01*
X354752D01*
Y247100D01*
X360768D01*
Y253885D01*
X361230Y254077D01*
X361308Y253999D01*
X361804Y253667D01*
X362389Y253551D01*
X364752D01*
Y247100D01*
X370768D01*
Y256580D01*
X366400D01*
X366252Y256610D01*
X363023D01*
X362048Y257584D01*
X362239Y258046D01*
X371123D01*
X374752Y254417D01*
Y247100D01*
X380768D01*
Y256580D01*
X376915D01*
X372838Y260657D01*
X372342Y260989D01*
X371757Y261105D01*
X354738D01*
X352329Y263514D01*
X352521Y263978D01*
X352657Y265010D01*
X352521Y266042D01*
X352123Y267003D01*
X351489Y267829D01*
X350663Y268463D01*
X349702Y268861D01*
X348670Y268997D01*
X347638Y268861D01*
X346677Y268463D01*
X345851Y267829D01*
X345217Y267003D01*
X344819Y266042D01*
X344683Y265010D01*
X344819Y263978D01*
X345217Y263017D01*
X345547Y262587D01*
X345301Y262087D01*
X335333D01*
X320548Y276871D01*
X320052Y277203D01*
X319467Y277319D01*
X314322D01*
X313953Y277635D01*
X313953Y277819D01*
Y282841D01*
X321145D01*
X321337Y282377D01*
X321971Y281551D01*
X322797Y280917D01*
X323758Y280519D01*
X324790Y280383D01*
X325822Y280519D01*
X326783Y280917D01*
X327609Y281551D01*
X328243Y282377D01*
X328641Y283338D01*
X328777Y284370D01*
X328641Y285402D01*
X328243Y286363D01*
X327609Y287189D01*
X326783Y287823D01*
X325822Y288221D01*
X324790Y288357D01*
X323758Y288221D01*
X322797Y287823D01*
X321971Y287189D01*
X321337Y286363D01*
X321145Y285899D01*
X313953D01*
Y287509D01*
X310939D01*
Y294171D01*
X313953D01*
Y304045D01*
X306817D01*
X304591Y306271D01*
Y309652D01*
X299441D01*
X299441Y309652D01*
X299079D01*
Y309652D01*
X298941Y309652D01*
X297004D01*
Y306880D01*
Y304108D01*
X297180D01*
X297332Y303608D01*
X297260Y303560D01*
X296729Y302766D01*
X296642Y302330D01*
X301338D01*
X301251Y302766D01*
X300720Y303560D01*
X300648Y303608D01*
X300800Y304108D01*
X302428D01*
X304867Y301670D01*
Y294171D01*
X307881D01*
Y287509D01*
X304867D01*
Y277819D01*
X304867Y277635D01*
X304498Y277319D01*
X294322D01*
X293953Y277635D01*
X293953Y277819D01*
Y282072D01*
X289410D01*
X284867D01*
Y277819D01*
X284867Y277635D01*
X284497Y277319D01*
X265999D01*
X252719Y290599D01*
Y346320D01*
X252603Y346905D01*
X252272Y347401D01*
X240500Y359173D01*
X240547Y359410D01*
X240361Y360346D01*
X239830Y361140D01*
X239036Y361671D01*
X238100Y361857D01*
D02*
G37*
G36*
X277748Y339400D02*
X275900D01*
Y337552D01*
X276336Y337639D01*
X277130Y338170D01*
X277661Y338964D01*
X277748Y339400D01*
D02*
G37*
G36*
X274900D02*
X273052D01*
X273139Y338964D01*
X273670Y338170D01*
X274464Y337639D01*
X274900Y337552D01*
Y339400D01*
D02*
G37*
G36*
X275780Y331858D02*
Y330010D01*
X277628D01*
X277541Y330446D01*
X277010Y331240D01*
X276216Y331771D01*
X275780Y331858D01*
D02*
G37*
G36*
X274780D02*
X274344Y331771D01*
X273550Y331240D01*
X273019Y330446D01*
X272932Y330010D01*
X274780D01*
Y331858D01*
D02*
G37*
G36*
X277628Y329010D02*
X275780D01*
Y327162D01*
X276216Y327249D01*
X277010Y327780D01*
X277541Y328574D01*
X277628Y329010D01*
D02*
G37*
G36*
X274780D02*
X272932D01*
X273019Y328574D01*
X273550Y327780D01*
X274344Y327249D01*
X274780Y327162D01*
Y329010D01*
D02*
G37*
G36*
X296054Y329232D02*
X293979D01*
Y326941D01*
X293479Y326892D01*
X293401Y327286D01*
X292870Y328080D01*
X292076Y328611D01*
X291640Y328698D01*
Y326350D01*
Y324002D01*
X292076Y324089D01*
X292870Y324620D01*
X293401Y325414D01*
X293479Y325808D01*
X293979Y325759D01*
Y323688D01*
X296054D01*
Y326460D01*
Y329232D01*
D02*
G37*
G36*
X290640Y328698D02*
X290204Y328611D01*
X289410Y328080D01*
X288879Y327286D01*
X288792Y326850D01*
X290640D01*
Y328698D01*
D02*
G37*
G36*
Y325850D02*
X288792D01*
X288879Y325414D01*
X289410Y324620D01*
X290204Y324089D01*
X290640Y324002D01*
Y325850D01*
D02*
G37*
G36*
X296004Y309652D02*
X293929D01*
Y307380D01*
X296004D01*
Y309652D01*
D02*
G37*
G36*
X301338Y301330D02*
X299490D01*
Y299482D01*
X299926Y299569D01*
X300720Y300100D01*
X301251Y300894D01*
X301338Y301330D01*
D02*
G37*
G36*
X298490D02*
X296642D01*
X296729Y300894D01*
X297260Y300100D01*
X298054Y299569D01*
X298490Y299482D01*
Y301330D01*
D02*
G37*
G36*
X296004Y306380D02*
X293929D01*
Y304545D01*
X293929Y304108D01*
X293456Y304045D01*
X293453Y304045D01*
X284867D01*
Y298408D01*
X284198D01*
X283613Y298291D01*
X283117Y297960D01*
X281097Y295939D01*
X279333D01*
Y298363D01*
X271427D01*
Y290457D01*
X279333D01*
Y292881D01*
X281730D01*
X282315Y292997D01*
X282811Y293329D01*
X284367Y294884D01*
X284867Y294677D01*
Y294171D01*
X293953D01*
X293953Y303608D01*
X293953Y304045D01*
X294427Y304108D01*
X294429Y304108D01*
X296004D01*
Y306380D01*
D02*
G37*
G36*
X299280Y286468D02*
Y284620D01*
X301128D01*
X301041Y285056D01*
X300510Y285850D01*
X299716Y286381D01*
X299280Y286468D01*
D02*
G37*
G36*
X298280D02*
X297844Y286381D01*
X297050Y285850D01*
X296519Y285056D01*
X296432Y284620D01*
X298280D01*
Y286468D01*
D02*
G37*
G36*
X293953Y287509D02*
X289910D01*
Y283072D01*
X293953D01*
Y287509D01*
D02*
G37*
G36*
X288910D02*
X284867D01*
Y283072D01*
X288910D01*
Y287509D01*
D02*
G37*
G36*
X301128Y283620D02*
X299280D01*
Y281772D01*
X299716Y281859D01*
X300510Y282390D01*
X301041Y283184D01*
X301128Y283620D01*
D02*
G37*
G36*
X298280D02*
X296432D01*
X296519Y283184D01*
X297050Y282390D01*
X297844Y281859D01*
X298280Y281772D01*
Y283620D01*
D02*
G37*
G36*
X275380Y288397D02*
X274348Y288261D01*
X273387Y287863D01*
X272561Y287229D01*
X271927Y286403D01*
X271529Y285442D01*
X271393Y284410D01*
X271529Y283378D01*
X271927Y282417D01*
X272561Y281591D01*
X273387Y280957D01*
X274348Y280559D01*
X275380Y280423D01*
X276412Y280559D01*
X277373Y280957D01*
X278199Y281591D01*
X278833Y282417D01*
X279231Y283378D01*
X279367Y284410D01*
X279231Y285442D01*
X278833Y286403D01*
X278199Y287229D01*
X277373Y287863D01*
X276412Y288261D01*
X275380Y288397D01*
D02*
G37*
G36*
X356770Y266558D02*
Y264710D01*
X358618D01*
X358531Y265146D01*
X358000Y265940D01*
X357206Y266471D01*
X356770Y266558D01*
D02*
G37*
G36*
X355770D02*
X355334Y266471D01*
X354540Y265940D01*
X354009Y265146D01*
X353922Y264710D01*
X355770D01*
Y266558D01*
D02*
G37*
G36*
X367392Y265954D02*
X365120D01*
Y263879D01*
X367392D01*
Y265954D01*
D02*
G37*
G36*
X364120D02*
X361848D01*
Y263879D01*
X364120D01*
Y265954D01*
D02*
G37*
G36*
X358618Y263710D02*
X356770D01*
Y261862D01*
X357206Y261949D01*
X358000Y262480D01*
X358531Y263274D01*
X358618Y263710D01*
D02*
G37*
G36*
X355770D02*
X353922D01*
X354009Y263274D01*
X354540Y262480D01*
X355334Y261949D01*
X355770Y261862D01*
Y263710D01*
D02*
G37*
G36*
X300768Y256580D02*
X294752D01*
Y247100D01*
X300768D01*
Y256580D01*
D02*
G37*
G36*
X290768D02*
X284752D01*
Y247100D01*
X290768D01*
Y256580D01*
D02*
G37*
G36*
X280768D02*
X274752D01*
Y247100D01*
X280768D01*
Y256580D01*
D02*
G37*
G36*
X270768D02*
X264752D01*
Y247100D01*
X270768D01*
Y256580D01*
D02*
G37*
G36*
X260768D02*
X254752D01*
Y247100D01*
X260768D01*
Y256580D01*
D02*
G37*
G36*
X250768D02*
X244752D01*
Y247100D01*
X250768D01*
Y256580D01*
D02*
G37*
G36*
X240768D02*
X234752D01*
Y247100D01*
X240768D01*
Y256580D01*
D02*
G37*
G36*
X292260Y235913D02*
X291824Y235826D01*
X291030Y235295D01*
X290499Y234501D01*
X290427Y234139D01*
X288260D01*
Y229899D01*
X290768D01*
Y231408D01*
X291268Y231676D01*
X291824Y231304D01*
X292260Y231217D01*
Y233565D01*
Y235913D01*
D02*
G37*
G36*
X370768Y234139D02*
X368260D01*
Y229899D01*
X370768D01*
Y234139D01*
D02*
G37*
G36*
X340768D02*
X338260D01*
Y229899D01*
X340768D01*
Y234139D01*
D02*
G37*
G36*
X410768D02*
X408260D01*
Y229899D01*
X410768D01*
Y234139D01*
D02*
G37*
G36*
X407260D02*
X404752D01*
Y229899D01*
X407260D01*
Y234139D01*
D02*
G37*
G36*
X367260D02*
X364752D01*
Y229899D01*
X367260D01*
Y234139D01*
D02*
G37*
G36*
X337260D02*
X334752D01*
Y229899D01*
X337260D01*
Y234139D01*
D02*
G37*
G36*
X287260D02*
X284752D01*
Y229899D01*
X287260D01*
Y234139D01*
D02*
G37*
G36*
X410768Y228899D02*
X408260D01*
Y224659D01*
X410768D01*
Y228899D01*
D02*
G37*
G36*
X407260D02*
X404752D01*
Y224659D01*
X407260D01*
Y228899D01*
D02*
G37*
G36*
X400768Y234139D02*
X394752D01*
Y224659D01*
X400768D01*
Y234139D01*
D02*
G37*
G36*
X390768D02*
X384752D01*
Y224659D01*
X390768D01*
Y234139D01*
D02*
G37*
G36*
X380768D02*
X374752D01*
Y224659D01*
X380768D01*
Y234139D01*
D02*
G37*
G36*
X370768Y228899D02*
X368260D01*
Y224659D01*
X370768D01*
Y228899D01*
D02*
G37*
G36*
X367260D02*
X364752D01*
Y224659D01*
X367260D01*
Y228899D01*
D02*
G37*
G36*
X360768Y234139D02*
X354752D01*
Y224659D01*
X360768D01*
Y234139D01*
D02*
G37*
G36*
X350768D02*
X344752D01*
Y224659D01*
X350768D01*
Y234139D01*
D02*
G37*
G36*
X340768Y228899D02*
X338260D01*
Y224659D01*
X340768D01*
Y228899D01*
D02*
G37*
G36*
X337260D02*
X334752D01*
Y224659D01*
X337260D01*
Y228899D01*
D02*
G37*
G36*
X330768Y234139D02*
X324752D01*
Y224659D01*
X330768D01*
Y234139D01*
D02*
G37*
G36*
X320768D02*
X314752D01*
Y224659D01*
X320768D01*
Y234139D01*
D02*
G37*
G36*
X310768D02*
X304752D01*
Y224659D01*
X310768D01*
Y234139D01*
D02*
G37*
G36*
X293260Y235913D02*
Y233565D01*
Y231217D01*
X293696Y231304D01*
X294252Y231676D01*
X294752Y231408D01*
Y224659D01*
X300768D01*
Y234139D01*
X295093D01*
X295021Y234501D01*
X294490Y235295D01*
X293696Y235826D01*
X293260Y235913D01*
D02*
G37*
G36*
X290768Y228899D02*
X288260D01*
Y224659D01*
X290768D01*
Y228899D01*
D02*
G37*
G36*
X287260D02*
X284752D01*
Y224659D01*
X287260D01*
Y228899D01*
D02*
G37*
G36*
X280768Y234139D02*
X274752D01*
Y224659D01*
X280768D01*
Y234139D01*
D02*
G37*
G36*
X270768D02*
X264752D01*
Y224659D01*
X270768D01*
Y234139D01*
D02*
G37*
G36*
X260768D02*
X254752D01*
Y224659D01*
X260768D01*
Y234139D01*
D02*
G37*
G36*
X250768D02*
X244752D01*
Y224659D01*
X250768D01*
Y234139D01*
D02*
G37*
G36*
X240768D02*
X234752D01*
Y224659D01*
X240768D01*
Y234139D01*
D02*
G37*
%LPD*%
D10*
X333871Y258557D02*
X348912D01*
X320228Y272200D02*
X333871Y258557D01*
X348912D02*
X352389Y255080D01*
X296444Y326350D02*
X296554Y326460D01*
X291140Y326350D02*
X296444D01*
X318960Y326517D02*
Y343050D01*
X318943Y326500D02*
X318960Y326517D01*
X409530Y289490D02*
X419610Y299570D01*
Y368954D01*
X419024Y369540D02*
X419610Y368954D01*
X355450Y369540D02*
X419024D01*
X328960Y343050D02*
X355450Y369540D01*
X302196Y326590D02*
X307910D01*
X302066Y326460D02*
X302196Y326590D01*
X315150Y320090D02*
X315494Y320434D01*
Y322657D01*
X318943Y326106D01*
Y326500D01*
X315150Y320090D02*
X318940D01*
X319410Y319620D01*
X378330Y322573D02*
Y327830D01*
Y322573D02*
X378423Y322480D01*
X319410Y314108D02*
X326006D01*
X331958Y303740D02*
X333139D01*
X327562Y308136D02*
X331958Y303740D01*
X327562Y308136D02*
Y312749D01*
X326487Y313824D02*
X327562Y312749D01*
X326290Y313824D02*
X326487D01*
X326030Y319596D02*
X326290Y319336D01*
X326030Y319596D02*
Y326500D01*
X333523D02*
X333563Y326460D01*
X326030Y326500D02*
X333523D01*
X309410Y299108D02*
Y299501D01*
X306367Y302545D02*
X309410Y299501D01*
X306154Y302545D02*
X306367D01*
X302016Y306683D02*
X306154Y302545D01*
X302016Y306683D02*
Y306880D01*
X309410Y282572D02*
Y299108D01*
X311208Y284370D02*
X324790D01*
X309410Y282572D02*
X311208Y284370D01*
X290958Y284120D02*
X298780D01*
X289410Y282572D02*
X290958Y284120D01*
X296307Y306880D02*
X297579Y305608D01*
X298990Y301830D02*
Y302317D01*
X297579Y303728D02*
X298990Y302317D01*
X297579Y303728D02*
Y305608D01*
X296250Y306880D02*
X296307D01*
X265366Y275790D02*
X319467D01*
X334700Y260557D01*
X251190Y289966D02*
X265366Y275790D01*
X287180Y296878D02*
X289410Y299108D01*
X284198Y296878D02*
X287180D01*
X281730Y294410D02*
X284198Y296878D01*
X301106Y306450D02*
X301184D01*
X275380Y294410D02*
X281730D01*
X356270Y264210D02*
X356757D01*
X357926Y265379D01*
X363545D01*
X371757Y259576D02*
X377760Y253572D01*
X354104Y259576D02*
X371757D01*
X377760Y251840D02*
Y253572D01*
X352389Y255080D02*
X356252D01*
X357760Y253572D01*
X362389Y255080D02*
X366252D01*
X359894Y257576D02*
X362389Y255080D01*
X366252D02*
X367760Y253572D01*
X315086Y264110D02*
X327771Y251425D01*
X253880Y264110D02*
X315086D01*
X327562Y251673D02*
X327771Y251425D01*
X242340Y275650D02*
X253880Y264110D01*
X261450Y267960D02*
X319509D01*
X245160Y284250D02*
X261450Y267960D01*
X319509D02*
X335629Y251840D01*
X337760D01*
X264216Y272200D02*
X320228D01*
X248240Y288176D02*
X264216Y272200D01*
X248240Y288176D02*
Y338890D01*
X334700Y260557D02*
X349741D01*
X352722Y257576D01*
X231250Y259690D02*
X309910D01*
X228740Y262200D02*
X231250Y259690D01*
X309910D02*
X317760Y251840D01*
X416049Y261420D02*
X422389Y255080D01*
X353686Y301064D02*
X358260Y296490D01*
X347706Y310241D02*
Y317170D01*
X348184Y309252D02*
X348381D01*
X347987D02*
X348184D01*
X353170Y285840D02*
X357997D01*
X358177Y285660D01*
X353686Y301064D02*
Y303947D01*
X348381Y309252D02*
X353686Y303947D01*
X293442Y233565D02*
X294516Y234639D01*
X292760Y233565D02*
X293442D01*
X292760Y233370D02*
Y233565D01*
X290189Y230799D02*
X292760Y233370D01*
X294516Y234639D02*
X330389D01*
X332389Y232639D01*
X336252D01*
X337760Y231131D01*
Y229399D02*
Y231131D01*
X287760Y229399D02*
X289160Y230799D01*
X290189D01*
X324475Y284055D02*
X324790Y284370D01*
X238100Y359410D02*
X251190Y346320D01*
Y289966D02*
Y346320D01*
X237720Y349410D02*
X248240Y338890D01*
X237870Y327710D02*
X245160Y320420D01*
Y284250D02*
Y320420D01*
X242340Y275650D02*
Y313360D01*
X352722Y257576D02*
X359894D01*
X367760Y251840D02*
Y253572D01*
X357760Y251840D02*
Y253572D01*
X237870Y327710D02*
Y329501D01*
Y317830D02*
X242340Y313360D01*
X237870Y317830D02*
Y319501D01*
X228740Y303940D02*
X234301Y309501D01*
X341347Y324600D02*
X349580D01*
X349737Y324130D02*
X356380D01*
X349580Y323973D02*
X349737Y324130D01*
X396060Y272170D02*
X398255Y274365D01*
X339036Y317170D02*
X347706D01*
X363650Y302469D02*
Y316780D01*
X359040Y307540D02*
Y315170D01*
X358550Y315660D02*
X359040Y315170D01*
X352180Y292010D02*
X379393D01*
X348184Y296006D02*
X352180Y292010D01*
X348184Y296006D02*
Y303740D01*
X379393Y292010D02*
X379590D01*
Y297522D02*
X379650Y297582D01*
Y302234D01*
X380922Y309018D02*
X387110Y315206D01*
X380922Y308821D02*
Y309018D01*
X379847Y307746D02*
X380922Y308821D01*
X379650Y307746D02*
X379847D01*
X387110Y315206D02*
Y322090D01*
X379444Y307540D02*
X379650Y307746D01*
X368440Y307540D02*
X379444D01*
X363650Y302469D02*
X364919Y301200D01*
X365500D01*
X366640Y300060D01*
X368440D01*
X375140Y296263D02*
X379393Y292010D01*
X375140Y296263D02*
Y299481D01*
X371961Y302660D02*
X375140Y299481D01*
X371380Y302660D02*
X371961D01*
X370240Y303800D02*
X371380Y302660D01*
X368440Y303800D02*
X370240D01*
X379590Y292010D02*
X388800D01*
X394120Y286690D01*
Y285660D02*
Y286690D01*
X356314Y282655D02*
Y283798D01*
X348670Y275010D02*
X356314Y282655D01*
X400550Y278330D02*
Y292860D01*
X398500Y294910D02*
X400550Y292860D01*
X394870Y294910D02*
X398500D01*
X400550Y278330D02*
X409470Y269410D01*
X394120Y295660D02*
X394870Y294910D01*
X409470Y269410D02*
Y276345D01*
X409870Y276745D01*
X409530Y282597D02*
Y289490D01*
Y282597D02*
X409870Y282257D01*
X395418Y261420D02*
X416049D01*
X390180Y266658D02*
X395418Y261420D01*
X356314Y283798D02*
X358177Y285660D01*
X372491Y278039D02*
X374111D01*
X365263Y285266D02*
X372491Y278039D01*
X365263Y285266D02*
Y285660D01*
X374111Y278039D02*
X377260Y274890D01*
X375933D02*
X377260D01*
X374083Y273041D02*
X375933Y274890D01*
X365695Y273041D02*
X374083D01*
X364620Y271966D02*
X365695Y273041D01*
X363545D02*
X364620Y271966D01*
X348670Y265010D02*
X354104Y259576D01*
X363545Y265379D02*
X364620Y266454D01*
X377420Y264910D02*
X384390Y257940D01*
X409529D01*
X422389Y255080D02*
X426252D01*
X427760Y253572D01*
Y251840D02*
Y253572D01*
X390180Y272170D02*
X396060D01*
X409529Y257940D02*
X414252Y253217D01*
Y244639D02*
Y253217D01*
Y244639D02*
X427760Y231131D01*
Y229399D02*
Y231131D01*
X341287Y324660D02*
X341347Y324600D01*
X341800Y311220D02*
X342087Y311508D01*
X333139Y316785D02*
X333524Y317170D01*
X333139Y311220D02*
Y316785D01*
X333524Y317170D02*
Y324549D01*
X333413Y324660D02*
X333524Y324549D01*
X338650Y311220D02*
X341800D01*
X337390Y309960D02*
X338650Y311220D01*
X337390Y305160D02*
Y309960D01*
Y305160D02*
X338810Y303740D01*
X341800D01*
X346216Y307480D02*
X347987Y309252D01*
X341800Y307480D02*
X346216D01*
X341800Y303740D02*
X348184D01*
X326006Y314108D02*
X326290Y313824D01*
X333099Y311181D02*
X333139Y311220D01*
X228740Y262200D02*
Y303940D01*
X234301Y309501D02*
X237870D01*
X316252Y255080D02*
X317760Y253572D01*
Y251840D02*
Y253572D01*
D15*
X302016Y306880D02*
D03*
X296504D02*
D03*
X296554Y326460D02*
D03*
X302066D02*
D03*
X363936Y316780D02*
D03*
X358424D02*
D03*
X339036Y317170D02*
D03*
X333524D02*
D03*
D16*
X364620Y271966D02*
D03*
Y266454D02*
D03*
X390180Y266658D02*
D03*
Y272170D02*
D03*
X348184Y303740D02*
D03*
Y309252D02*
D03*
X319410Y314108D02*
D03*
Y319620D02*
D03*
X326290Y313824D02*
D03*
Y319336D02*
D03*
X379590Y292010D02*
D03*
Y297522D02*
D03*
X379650Y307746D02*
D03*
Y302234D02*
D03*
X409870Y282257D02*
D03*
Y276745D02*
D03*
D17*
X358177Y285660D02*
D03*
X365263D02*
D03*
X318943Y326500D02*
D03*
X326030D02*
D03*
D19*
X386297Y322480D02*
D03*
X378423D02*
D03*
X341437Y326460D02*
D03*
X333563D02*
D03*
D37*
X377260Y274890D02*
D03*
X348670Y265010D02*
D03*
X324790Y284370D02*
D03*
X275380Y284410D02*
D03*
X338960Y343050D02*
D03*
X328960D02*
D03*
X394120Y285660D02*
D03*
Y295660D02*
D03*
D38*
X377260Y264890D02*
D03*
X348670Y275010D02*
D03*
X324790Y294370D02*
D03*
X275380Y294410D02*
D03*
X394120Y305660D02*
D03*
D39*
X318960Y343050D02*
D03*
D40*
X234420Y379650D02*
D03*
X431340D02*
D03*
D41*
X291140Y326350D02*
D03*
X275400Y360040D02*
D03*
X275150Y349520D02*
D03*
X275400Y339900D02*
D03*
X275280Y329510D02*
D03*
X318960Y343050D02*
D03*
X361160Y326680D02*
D03*
X397630Y326110D02*
D03*
X399590Y341690D02*
D03*
X400790Y320170D02*
D03*
X307910Y326590D02*
D03*
X315150Y320090D02*
D03*
X343280Y317320D02*
D03*
X361060Y332670D02*
D03*
X360440Y351600D02*
D03*
X360610Y358360D02*
D03*
X378330Y327830D02*
D03*
X298780Y284120D02*
D03*
X298990Y301830D02*
D03*
X356270Y264210D02*
D03*
X353170Y285840D02*
D03*
X358260Y296490D02*
D03*
X407760Y229399D02*
D03*
X367760D02*
D03*
X337760D02*
D03*
X292760Y233565D02*
D03*
X317800Y229550D02*
D03*
X397660Y251720D02*
D03*
X237720Y349410D02*
D03*
X238100Y359410D02*
D03*
X356380Y324130D02*
D03*
X409470Y269410D02*
D03*
X409530Y289490D02*
D03*
X397880Y274160D02*
D03*
X417420Y259920D02*
D03*
D42*
X237870Y329501D02*
D03*
Y309501D02*
D03*
Y319501D02*
D03*
D43*
X341800Y311220D02*
D03*
D44*
Y307480D02*
D03*
Y303740D02*
D03*
X333139Y311220D02*
D03*
Y303740D02*
D03*
D45*
X359040Y307540D02*
D03*
Y300060D02*
D03*
X368440D02*
D03*
Y303800D02*
D03*
Y307540D02*
D03*
D46*
X309410Y282572D02*
D03*
X289410D02*
D03*
Y299108D02*
D03*
X309410D02*
D03*
D47*
X349580Y323973D02*
D03*
Y316887D02*
D03*
D48*
X237760Y229399D02*
D03*
Y251840D02*
D03*
X247760Y229399D02*
D03*
Y251840D02*
D03*
X257760Y229399D02*
D03*
Y251840D02*
D03*
X267760Y229399D02*
D03*
Y251840D02*
D03*
X277760Y229399D02*
D03*
Y251840D02*
D03*
X287760Y229399D02*
D03*
Y251840D02*
D03*
X297760Y229399D02*
D03*
Y251840D02*
D03*
X307760Y229399D02*
D03*
Y251840D02*
D03*
X317760Y229399D02*
D03*
Y251840D02*
D03*
X327760Y229399D02*
D03*
Y251840D02*
D03*
X337760Y229399D02*
D03*
Y251840D02*
D03*
X347760Y229399D02*
D03*
Y251840D02*
D03*
X357760Y229399D02*
D03*
Y251840D02*
D03*
X367760Y229399D02*
D03*
Y251840D02*
D03*
X377760Y229399D02*
D03*
Y251840D02*
D03*
X387760Y229399D02*
D03*
Y251840D02*
D03*
X397760Y229399D02*
D03*
Y251840D02*
D03*
X407760Y229399D02*
D03*
Y251840D02*
D03*
X427760D02*
D03*
Y229399D02*
D03*
X417760Y251840D02*
D03*
Y229399D02*
D03*
M02*
